SplineFontDB: 3.0
FontName: UniversElse-Light
FullName: Univers Else Light 
FamilyName: Univers Else
Weight: Extra-Light
Copyright: Pierre Huyghebaert (Typography, initiative, testing)\nPierre Marchand (Development and typography, Fonzie software)\nDelphine Platteeuw (Design and testing)\nGregoire Vigneron (Scanning and assembling)\n\nOSP: December 2010 - Version 1.0 (http://ospublish.constantvzw.org/foundry/univers-else)\n\nUnivers Else is released under the OFL 1.1 -- http://scripts.sil.org/OFL\n\nFor information on what you're allowed to change or modify, \nconsult the OFL-1.1.txt and OFL-FAQ.txt files.  The OFL-FAQ also gives a very general rationale and various recommendations regarding why you would want to contribute to the project or make your own version of the font.

StartChar: .notdef
Encoding: 65536 -1 0
Width: 500
Flags: W
LayerCount: 2
Fore
SplineSet
100 50 m 1,0,-1
 400 50 l 1,1,-1
 400 483 l 1,2,-1
 100 483 l 1,3,-1
 100 50 l 1,0,-1
50 0 m 1,4,-1
 50 533 l 1,5,-1
 450 533 l 1,6,-1
 450 0 l 1,7,-1
 50 0 l 1,4,-1
EndSplineSet
Validated: 1
EndChar

StartChar: uni0021
Encoding: 33 33 4
Width: 474
GlyphClass: 2
Flags: W
LayerCount: 2
Fore
SplineSet
256 731 m 128,-1,1
 258 732 258 732 260 732 c 2,2,-1
 262 732 l 2,3,4
 265 732 265 732 271 730 c 1,5,6
 278 729 278 729 284 721 c 0,7,8
 289 716 289 716 289 705 c 0,9,10
 289 700 289 700 288 684 c 0,11,12
 288 676 288 676 287.5 668 c 128,-1,13
 287 660 287 660 287 654 c 2,14,-1
 287 649 l 1,15,-1
 287 644 l 2,16,17
 287 638 287 638 287.5 629.5 c 128,-1,18
 288 621 288 621 288 613 c 0,19,20
 288 582 288 582 286 574 c 2,21,-1
 282 562 l 2,22,23
 280 554 280 554 280 551 c 0,24,25
 280 545 280 545 285 540 c 0,26,27
 289 535 289 535 289 528 c 0,28,29
 289 525 289 525 288 514 c 0,30,31
 287 494 287 494 284 490 c 0,32,33
 281 487 281 487 281 404 c 0,34,35
 281 322 281 322 278 318 c 1,36,37
 274 308 274 308 274 305 c 0,38,39
 273 298 273 298 277 292 c 0,40,41
 280 288 280 288 280 278 c 0,42,43
 280 270 280 270 277 264 c 1,44,45
 273 259 273 259 273 233 c 128,-1,46
 273 207 273 207 270 203 c 0,47,48
 266 199 266 199 266 192 c 128,-1,49
 266 185 266 185 264 183 c 128,-1,50
 262 181 262 181 258 181 c 0,51,52
 255 181 255 181 252 178 c 0,53,54
 250 177 250 177 249 177 c 128,-1,55
 248 177 248 177 244 179 c 1,56,57
 241 182 241 182 231 181 c 0,58,59
 223 180 223 180 216 187 c 0,60,61
 211 191 211 191 210 196.5 c 128,-1,62
 209 202 209 202 209 230 c 0,63,64
 209 268 209 268 205 275 c 128,-1,65
 201 282 201 282 203 287 c 0,66,67
 204 290 204 290 204 293 c 1,68,69
 202 295 202 295 202 334 c 0,70,71
 202 372 202 372 199 378 c 0,72,73
 196 382 196 382 196 392 c 2,74,-1
 196 407 l 2,75,76
 196 413 196 413 194 413 c 1,77,78
 192 415 192 415 194 425 c 1,79,80
 194 437 194 437 199 445 c 1,81,82
 202 453 202 453 202 496 c 1,83,84
 201 520 201 520 201 543 c 2,85,-1
 201 566 l 2,86,87
 201 588 201 588 198 590 c 1,88,89
 195 594 195 594 195 638 c 128,-1,90
 195 682 195 682 191 687 c 0,91,92
 188 690 188 690 188 694 c 0,93,94
 188 696 188 696 189 701 c 0,95,96
 191 711 191 711 193 712 c 0,97,98
 197 714 197 714 202 719 c 1,99,100
 208 723 208 723 216 725 c 1,101,-1
 237 725 l 2,102,103
 249 725 249 725 251 727 c 0,104,0
 254 730 254 730 256 731 c 128,-1,1
232 90 m 128,-1,106
 235 94 235 94 238 94 c 0,107,108
 239 94 239 94 241 94 c 0,109,110
 245 93 245 93 261 91 c 0,111,112
 274 90 274 90 279 84 c 128,-1,113
 284 78 284 78 283 72 c 128,-1,114
 282 66 282 66 284 60 c 1,115,116
 288 53 288 53 288 40 c 0,117,118
 288 35 288 35 285 29 c 128,-1,119
 282 23 282 23 282 20 c 1,120,-1
 276 12 l 2,121,122
 271 7 271 7 267 7 c 2,123,-1
 257 6 l 2,124,125
 247 6 247 6 239 6 c 0,126,127
 211 6 211 6 207 7 c 0,128,129
 200 8 200 8 197 14 c 0,130,131
 194 18 194 18 194 25 c 0,132,133
 194 31 194 31 196 35 c 0,134,135
 197 37 197 37 194 49 c 0,136,137
 191 57 191 57 191 59 c 128,-1,138
 191 61 191 61 193 65 c 0,139,140
 194 66 194 66 195.5 70.5 c 128,-1,141
 197 75 197 75 197 76 c 0,142,143
 199 81 199 81 202 81 c 128,-1,144
 205 81 205 81 209 83 c 1,145,146
 212 86 212 86 221 86 c 0,147,105
 229 86 229 86 232 90 c 128,-1,106
EndSplineSet
Validated: 1
EndChar

StartChar: uni0022
Encoding: 34 34 5
Width: 655
GlyphClass: 2
Flags: W
LayerCount: 2
Fore
SplineSet
435 723 m 1,0,1
 435 725 435 725 442 725 c 128,-1,2
 449 725 449 725 453 721 c 0,3,4
 458 716 458 716 465 717 c 0,5,6
 470 718 470 718 475 715 c 1,7,8
 479 711 479 711 483 711 c 0,9,10
 486 711 486 711 495 702 c 128,-1,11
 504 693 504 693 506 689 c 0,12,13
 507 687 507 687 514 677 c 0,14,15
 520 667 520 667 520 665 c 0,16,17
 520 661 520 661 516 651 c 0,18,19
 512 639 512 639 512 630 c 0,20,21
 512 616 512 616 513 609 c 1,22,23
 513 593 513 593 512 587 c 0,24,25
 511 575 511 575 514 570 c 0,26,27
 518 563 518 563 518 553 c 0,28,29
 518 548 518 548 515 539 c 1,30,31
 512 535 512 535 511 500 c 0,32,33
 511 467 511 467 507 459 c 0,34,35
 503 452 503 452 505 450 c 1,36,37
 505 445 505 445 503 444 c 1,38,39
 502 442 502 442 489 440 c 0,40,41
 486 440 486 440 483 440 c 0,42,43
 477 440 477 440 474 441 c 0,44,45
 472 442 472 442 465 442 c 1,46,47
 456 445 456 445 455 446 c 0,48,49
 451 449 451 449 448 449 c 0,50,51
 446 449 446 449 444 454 c 0,52,53
 442 458 442 458 438 463 c 0,54,55
 434 469 434 469 434 472 c 0,56,57
 434 476 434 476 430 484 c 0,58,59
 427 490 427 490 427 499 c 128,-1,60
 427 508 427 508 423 512 c 1,61,62
 420 517 420 517 419 546 c 128,-1,63
 418 575 418 575 415 580 c 1,64,65
 412 588 412 588 412 612 c 128,-1,66
 412 636 412 636 408 647 c 1,67,68
 404 654 404 654 405 670 c 0,69,70
 406 684 406 684 402 689 c 0,71,72
 399 694 399 694 399 699 c 0,73,74
 399 706 399 706 403 711 c 1,75,76
 407 719 407 719 409 719 c 0,77,78
 413 719 413 719 416 718 c 0,79,80
 423 716 423 716 428 719 c 1,81,82
 432 720 432 720 435 723 c 1,0,1
155 717 m 1,83,-1
 174 717 l 2,84,85
 188 717 188 717 194 714 c 0,86,87
 199 711 199 711 204 711 c 0,88,89
 206 711 206 711 218 699 c 1,90,91
 229 686 229 686 233 686 c 1,92,93
 238 684 238 684 243 681 c 128,-1,94
 248 678 248 678 250 672 c 1,95,96
 253 668 253 668 253 649 c 128,-1,97
 253 630 253 630 256 625 c 0,98,99
 260 620 260 620 260 608 c 0,100,101
 260 592 260 592 259 584 c 0,102,103
 257 569 257 569 256 567 c 128,-1,104
 255 565 255 565 253 551 c 0,105,106
 253 550 253 550 253 540 c 128,-1,107
 253 530 253 530 253 523 c 0,108,109
 253 512 253 512 253 504 c 0,110,111
 253 478 253 478 252 473 c 128,-1,112
 251 468 251 468 246 463 c 0,113,114
 239 455 239 455 239 448 c 0,115,116
 240 441 240 441 235 437 c 0,117,118
 232 434 232 434 228 434 c 0,119,120
 225 434 225 434 220 435 c 1,121,122
 213 435 213 435 201 438 c 0,123,124
 199 439 199 439 195 441 c 128,-1,125
 191 443 191 443 190 443 c 0,126,127
 187 445 187 445 185 448 c 2,128,-1
 178 455 l 1,129,130
 174 457 174 457 170 466 c 0,131,132
 167 474 167 474 167 478 c 128,-1,133
 167 482 167 482 162 485 c 1,134,135
 158 491 158 491 158 492 c 0,136,137
 158 495 158 495 156 499 c 0,138,139
 153 503 153 503 152 529 c 0,140,141
 151 543 151 543 151 565 c 1,142,143
 152 572 152 572 152 586 c 0,144,145
 152 595 152 595 147 608 c 0,146,147
 142 620 142 620 144 627 c 0,148,149
 146 636 146 636 145 641 c 1,150,151
 145 648 145 648 143 658 c 0,152,153
 140 668 140 668 139 669 c 0,154,155
 137 672 137 672 137 685 c 1,156,157
 139 698 139 698 141 701 c 0,158,159
 144 704 144 704 144 708 c 128,-1,160
 144 712 144 712 147 713 c 2,161,-1
 155 717 l 1,83,-1
EndSplineSet
Validated: 1
EndChar

StartChar: uni0023
Encoding: 35 35 6
Width: 563
GlyphClass: 2
Flags: W
LayerCount: 2
Fore
SplineSet
253 677 m 1,0,1
 254 680 254 680 259 680 c 0,2,3
 260 680 260 680 268 675 c 1,4,5
 274 670 274 670 275 661 c 128,-1,6
 276 652 276 652 273 649 c 1,7,8
 271 645 271 645 271 637 c 128,-1,9
 271 629 271 629 269 617 c 1,10,11
 269 610 269 610 264 600 c 0,12,13
 261 593 261 593 262 581 c 0,14,15
 263 570 263 570 261 564 c 0,16,17
 260 563 260 563 257 553 c 1,18,19
 257 548 257 548 252 541 c 0,20,21
 248 536 248 536 249 516 c 0,22,23
 249 496 249 496 246 492 c 0,24,25
 244 488 244 488 244 483 c 0,26,27
 244 479 244 479 246 473 c 0,28,29
 247 468 247 468 252 466 c 0,30,31
 255 464 255 464 262 468 c 0,32,33
 267 471 267 471 312 471 c 0,34,35
 358 471 358 471 360 472 c 0,36,37
 362 472 362 472 368 480 c 128,-1,38
 374 488 374 488 374 492 c 0,39,40
 374 497 374 497 378 503 c 0,41,42
 383 509 383 509 381 517 c 128,-1,43
 379 525 379 525 379 529 c 0,44,45
 379 532 379 532 383 538 c 0,46,47
 386 542 386 542 386 551 c 0,48,49
 386 561 386 561 385 563 c 0,50,51
 384 566 384 566 389 569 c 128,-1,52
 394 572 394 572 393 580 c 0,53,54
 393 586 393 586 396 594 c 1,55,56
 399 598 399 598 402 623 c 1,57,58
 404 649 404 649 404 653 c 0,59,60
 406 661 406 661 406 665 c 1,61,-1
 410 673 l 2,62,63
 412 675 412 675 426 675 c 0,64,65
 441 675 441 675 445 671 c 128,-1,66
 449 667 449 667 455 668 c 1,67,68
 462 668 462 668 463 667 c 0,69,70
 464 665 464 665 466 647 c 0,71,72
 467 630 467 630 463 626 c 0,73,74
 459 621 459 621 459 608 c 128,-1,75
 459 595 459 595 454 590 c 1,76,77
 451 585 451 585 452 576 c 0,78,79
 454 566 454 566 453 559 c 1,80,81
 453 551 453 551 449 545 c 0,82,83
 446 542 446 542 444 529 c 1,84,85
 444 518 444 518 440 512 c 0,86,87
 437 507 437 507 438 503 c 0,88,89
 438 500 438 500 440 492 c 0,90,91
 442 485 442 485 448 477 c 0,92,93
 452 472 452 472 455 471 c 128,-1,94
 458 470 458 470 474 471 c 0,95,96
 485 472 485 472 499 472 c 0,97,98
 504 472 504 472 510 476 c 0,99,100
 516 479 516 479 520 478 c 128,-1,101
 524 477 524 477 528 469 c 128,-1,102
 532 461 532 461 531 453 c 0,103,104
 530 443 530 443 533 437 c 0,105,106
 535 432 535 432 535 430 c 128,-1,107
 535 428 535 428 533 423 c 0,108,109
 530 416 530 416 525 413 c 0,110,111
 522 411 522 411 513 412 c 0,112,113
 511 413 511 413 506.5 415 c 128,-1,114
 502 417 502 417 501 417 c 0,115,116
 498 420 498 420 469 420 c 1,117,118
 454 421 454 421 450 421 c 0,119,120
 440 421 440 421 433 416 c 0,121,122
 426 412 426 412 425 409.5 c 128,-1,123
 424 407 424 407 424 396 c 0,124,125
 424 382 424 382 421 378 c 0,126,127
 420 377 420 377 417 371 c 0,128,129
 415 367 415 367 412 364 c 0,130,131
 409 362 409 362 409 344 c 128,-1,132
 409 326 409 326 406 321.5 c 128,-1,133
 403 317 403 317 403 309 c 128,-1,134
 403 301 403 301 401 295 c 128,-1,135
 399 289 399 289 402 281 c 0,136,137
 404 274 404 274 405.5 272.5 c 128,-1,138
 407 271 407 271 415 267 c 0,139,140
 427 261 427 261 431 261 c 1,141,142
 434 262 434 262 442 262 c 0,143,144
 443 262 443 262 453 261.5 c 128,-1,145
 463 261 463 261 470 261 c 0,146,147
 492 260 492 260 495 257 c 0,148,149
 499 253 499 253 499 251 c 0,150,151
 501 247 501 247 497 240 c 1,152,153
 493 230 493 230 493 219 c 1,154,155
 492 216 492 216 492 210 c 2,156,-1
 491 204 l 1,157,158
 489 202 489 202 487 206 c 0,159,160
 487 207 487 207 485.5 208.5 c 128,-1,161
 484 210 484 210 484 211 c 128,-1,162
 484 212 484 212 476 210 c 0,163,164
 469 208 469 208 465 205 c 0,165,166
 462 202 462 202 455 202 c 0,167,168
 450 202 450 202 445 205 c 1,169,170
 441 209 441 209 422 209 c 0,171,172
 413 209 413 209 410 209 c 0,173,174
 402 209 402 209 392 202 c 0,175,176
 383 196 383 196 381.5 193.5 c 128,-1,177
 380 191 380 191 381 184 c 0,178,179
 383 174 383 174 381 163 c 0,180,181
 379 149 379 149 378 147 c 1,182,183
 378 142 378 142 376 140 c 0,184,185
 373 137 373 137 375 131 c 1,186,187
 375 123 375 123 371 117 c 0,188,189
 366 111 366 111 367 101 c 0,190,191
 369 91 369 91 369 83 c 0,192,193
 370 75 370 75 366 71 c 1,194,195
 361 68 361 68 361 62 c 1,196,197
 358 53 358 53 357 52 c 0,198,199
 354 46 354 46 354 39 c 0,200,201
 354 31 354 31 352 23 c 1,202,203
 348 15 348 15 345 15 c 1,204,205
 343 13 343 13 325 13 c 0,206,207
 304 13 304 13 299 14 c 0,208,209
 290 15 290 15 288 20 c 1,210,211
 284 25 284 25 290 28 c 0,212,213
 294 31 294 31 294.5 35 c 128,-1,214
 295 39 295 39 295 58 c 0,215,216
 296 85 296 85 300 89 c 0,217,218
 303 93 303 93 303 97 c 0,219,220
 303 98 303 98 307 108 c 0,221,222
 311 116 311 116 310 130 c 1,223,224
 310 145 310 145 314 147 c 1,225,226
 317 150 317 150 317 173 c 0,227,228
 316 197 316 197 311 203 c 0,229,230
 308 207 308 207 303 210 c 1,231,-1
 279 210 l 2,232,233
 262 210 262 210 255 206 c 0,234,235
 249 202 249 202 245 202 c 0,236,237
 242 202 242 202 234 204 c 1,238,239
 228 208 228 208 226 206 c 1,240,241
 222 206 222 206 220 208 c 0,242,243
 217 210 217 210 210 209 c 0,244,245
 208 208 208 208 205 206 c 2,246,-1
 202 205 l 2,247,248
 199 205 199 205 196 198 c 0,249,250
 195 196 195 196 193 191 c 128,-1,251
 191 186 191 186 190 184 c 0,252,253
 186 177 186 177 186 161 c 128,-1,254
 186 145 186 145 181 139 c 0,255,256
 177 133 177 133 177 119 c 0,257,258
 177 101 177 101 176 95 c 0,259,260
 175 82 175 82 170 79 c 1,261,262
 165 74 165 74 164 66 c 0,263,264
 164 64 164 64 163.5 55.5 c 128,-1,265
 163 47 163 47 163 43 c 0,266,267
 163 30 163 30 161 22 c 0,268,269
 160 20 160 20 159 17.5 c 128,-1,270
 158 15 158 15 157 15 c 1,271,272
 157 13 157 13 137 13 c 128,-1,273
 117 13 117 13 110 17 c 0,274,275
 102 21 102 21 99 21 c 0,276,277
 97 21 97 21 95 23 c 0,278,279
 94 24 94 24 92 32 c 0,280,281
 91 39 91 39 96 47 c 0,282,283
 103 58 103 58 104 63 c 1,284,285
 109 73 109 73 111 76 c 0,286,287
 115 81 115 81 111 87 c 0,288,289
 106 94 106 94 109 98 c 0,290,291
 111 100 111 100 113 117 c 1,292,293
 113 132 113 132 116 135 c 0,294,295
 120 139 120 139 120 150 c 1,296,297
 122 163 122 163 125 164 c 1,298,299
 127 167 127 167 127 183 c 128,-1,300
 127 199 127 199 125 201 c 1,301,302
 125 204 125 204 119 204 c 0,303,304
 114 204 114 204 112 206 c 128,-1,305
 110 208 110 208 103 210 c 1,306,307
 95 210 95 210 91 207 c 0,308,309
 87 203 87 203 80 203 c 1,310,311
 73 201 73 201 72 202 c 0,312,313
 64 203 64 203 56 203 c 0,314,315
 50 203 50 203 42 204 c 1,316,-1
 40 204 l 1,317,318
 37 207 37 207 34 213 c 0,319,320
 29 222 29 222 29 236 c 128,-1,321
 29 250 29 250 33 255 c 0,322,323
 37 259 37 259 42 261 c 128,-1,324
 47 263 47 263 52 262 c 0,325,326
 58 260 58 260 83 260 c 0,327,328
 110 260 110 260 114 257 c 128,-1,329
 118 254 118 254 124 256 c 1,330,331
 129 256 129 256 135 259 c 0,332,333
 140 262 140 262 140 264 c 2,334,-1
 140 266 l 1,335,336
 141 273 141 273 141 277 c 0,337,338
 141 286 141 286 145 294 c 1,339,340
 149 299 149 299 149 308 c 1,341,342
 147 315 147 315 151 319 c 0,343,344
 154 322 154 322 154 338 c 1,345,346
 156 353 156 353 159 358 c 0,347,348
 161 362 161 362 161 366 c 0,349,350
 161 380 161 380 162 394 c 1,351,352
 162 418 162 418 161 419 c 0,353,354
 157 421 157 421 134 421 c 1,355,356
 108 419 108 419 101 417 c 0,357,358
 99 417 99 417 94 415.5 c 128,-1,359
 89 414 89 414 88 414 c 0,360,361
 83 414 83 414 80 417 c 1,362,363
 77 423 77 423 73 427 c 1,364,365
 69 435 69 435 70 446 c 1,366,367
 70 459 70 459 71 462 c 1,368,369
 71 467 71 467 73 469 c 128,-1,370
 75 471 75 471 98 471 c 0,371,372
 108 471 108 471 124 471 c 0,373,374
 172 471 172 471 176 473 c 1,375,376
 181 474 181 474 181 484 c 1,377,378
 183 496 183 496 185 499 c 0,379,380
 187 504 187 504 189 512 c 0,381,382
 191 521 191 521 189 526 c 0,383,384
 188 529 188 529 192 535 c 1,385,386
 197 540 197 540 197 544 c 1,387,388
 199 548 199 548 197 558 c 0,389,390
 195 569 195 569 196 570 c 1,391,392
 196 573 196 573 201 576 c 1,393,394
 205 580 205 580 204 605 c 0,395,396
 203 619 203 619 203 622 c 0,397,398
 203 631 203 631 207 638 c 0,399,400
 210 645 210 645 210 652 c 0,401,402
 210 656 210 656 214 660 c 128,-1,403
 218 664 218 664 219.5 668.5 c 128,-1,404
 221 673 221 673 223 674 c 128,-1,405
 225 675 225 675 236 675 c 0,406,407
 251 675 251 675 253 677 c 1,0,1
276 419 m 2,408,409
 268 421 268 421 260 421 c 0,410,411
 249 421 249 421 248 418 c 0,412,413
 246 414 246 414 238 414 c 1,414,415
 230 412 230 412 229 410 c 1,416,417
 226 408 226 408 226 398 c 1,418,419
 223 385 223 385 223 384 c 0,420,421
 219 380 219 380 221 361 c 1,422,423
 221 341 221 341 218 339 c 0,424,425
 215 336 215 336 215 330 c 0,426,427
 215 325 215 325 213 319 c 128,-1,428
 211 313 211 313 209 308 c 0,429,430
 208 306 208 306 206 282 c 1,431,432
 206 266 206 266 212.5 263.5 c 128,-1,433
 219 261 219 261 259 261 c 0,434,435
 311 261 311 261 317 259 c 0,436,437
 320 258 320 258 321 258 c 0,438,439
 323 258 323 258 323 260 c 1,440,-1
 333 274 l 1,441,442
 341 283 341 283 342.5 287 c 128,-1,443
 344 291 344 291 345 308 c 1,444,445
 345 330 345 330 347 332 c 1,446,447
 347 335 347 335 346 337 c 0,448,449
 344 340 344 340 348 344 c 1,450,451
 353 347 353 347 353 350 c 0,452,453
 353 354 353 354 356 358 c 0,454,455
 359 363 359 363 359 387 c 0,456,457
 359 409 359 409 356 413 c 0,458,459
 351 418 351 418 343 418 c 1,460,461
 329 420 329 420 327 421 c 1,462,463
 319 421 319 421 314 418 c 1,464,465
 306 415 306 415 294 416 c 2,466,-1
 276 419 l 2,408,409
EndSplineSet
Validated: 1
EndChar

StartChar: uni0024
Encoding: 36 36 7
Width: 588
GlyphClass: 2
Flags: W
LayerCount: 2
Fore
SplineSet
285 805 m 0,0,1
 291 811 291 811 293 811 c 0,2,3
 296 811 296 811 300 808 c 128,-1,4
 304 805 304 805 304.5 802.5 c 128,-1,5
 305 800 305 800 304 790 c 0,6,7
 302 776 302 776 302 767 c 0,8,9
 301 758 301 758 305 750 c 128,-1,10
 309 742 309 742 316 739 c 0,11,12
 318 738 318 738 327 734 c 1,13,14
 329 732 329 732 339 732 c 0,15,16
 348 732 348 732 352 729 c 0,17,18
 357 725 357 725 363 724 c 0,19,20
 368 724 368 724 374 720 c 1,21,22
 380 718 380 718 397 718 c 0,23,24
 415 717 415 717 419 714 c 0,25,26
 425 711 425 711 428 711 c 0,27,28
 432 711 432 711 440 707 c 1,29,30
 452 698 452 698 458 692 c 0,31,32
 469 683 469 683 480 670 c 1,33,34
 492 658 492 658 494 657 c 0,35,36
 498 655 498 655 498 652 c 128,-1,37
 498 649 498 649 506 644 c 1,38,39
 514 636 514 636 518 628 c 0,40,41
 522 619 522 619 521 610 c 0,42,43
 520 602 520 602 524 598 c 0,44,45
 529 594 529 594 529 576 c 0,46,47
 528 558 528 558 523 553 c 128,-1,48
 518 548 518 548 512 548 c 0,49,50
 497 548 497 548 485 547 c 1,51,52
 468 547 468 547 464 547.5 c 128,-1,53
 460 548 460 548 453 553 c 0,54,55
 446 557 446 557 440 563 c 0,56,57
 436 568 436 568 436 578 c 0,58,59
 436 587 436 587 432 595 c 1,60,61
 427 602 427 602 429 604 c 1,62,63
 429 607 429 607 426 610 c 0,64,65
 424 612 424 612 421 618 c 0,66,67
 421 619 421 619 416 627 c 1,68,69
 412 631 412 631 406 634 c 0,70,71
 400 638 400 638 396 644 c 0,72,73
 392 652 392 652 390 652 c 0,74,75
 388 653 388 653 382 653 c 0,76,77
 379 653 379 653 373 656 c 0,78,79
 368 659 368 659 356 659 c 0,80,81
 350 659 350 659 341 659 c 0,82,83
 313 659 313 659 312 658 c 0,84,85
 310 656 310 656 310 649 c 0,86,87
 310 643 310 643 306 629 c 0,88,89
 303 619 303 619 304 609 c 1,90,-1
 304 594 l 1,91,-1
 304 549 l 1,92,-1
 304 493 l 2,93,94
 304 489 304 489 304 483 c 0,95,96
 304 478 304 478 304 469 c 128,-1,97
 304 460 304 460 304 456 c 0,98,99
 302 433 302 433 304 429 c 1,100,101
 304 425 304 425 313 416 c 1,102,103
 324 407 324 407 328 407 c 0,104,105
 334 406 334 406 338 399 c 0,106,107
 341 393 341 393 346 393 c 128,-1,108
 351 393 351 393 357 390 c 0,109,110
 365 386 365 386 372 386 c 0,111,112
 381 386 381 386 385 383 c 0,113,114
 391 379 391 379 391 378 c 0,115,116
 391 376 391 376 397 372 c 0,117,118
 405 367 405 367 414 366 c 1,119,120
 425 366 425 366 429 362 c 1,121,122
 435 359 435 359 436 359 c 0,123,124
 440 359 440 359 444 355 c 128,-1,125
 448 351 448 351 450 351 c 0,126,127
 453 351 453 351 457 348 c 0,128,129
 461 344 461 344 464 344 c 0,130,131
 465 344 465 344 475 338 c 0,132,133
 484 332 484 332 485 325 c 1,134,135
 488 317 488 317 491 316 c 0,136,137
 499 312 499 312 504 309 c 0,138,139
 514 301 514 301 518 297 c 1,140,-1
 522 289 l 2,141,142
 522 288 522 288 528 280 c 0,143,144
 533 273 533 273 535 266 c 0,145,146
 536 264 536 264 537.5 258.5 c 128,-1,147
 539 253 539 253 539 251 c 0,148,149
 542 245 542 245 542 231 c 0,150,151
 542 219 542 219 544 213 c 0,152,153
 546 208 546 208 546 206.5 c 128,-1,154
 546 205 546 205 544 202 c 128,-1,155
 542 199 542 199 543 178 c 128,-1,156
 544 157 544 157 540 154 c 0,157,158
 536 150 536 150 536 144 c 0,159,160
 536 137 536 137 532 132 c 1,161,162
 528 124 528 124 528 120 c 0,163,164
 528 115 528 115 522 107 c 0,165,166
 517 99 517 99 517 97 c 0,167,168
 515 93 515 93 512 89 c 0,169,170
 510 87 510 87 506 80 c 128,-1,171
 502 73 502 73 502 72 c 0,172,173
 500 68 500 68 493 57 c 1,174,175
 487 53 487 53 485 53 c 128,-1,176
 483 53 483 53 479 49 c 0,177,178
 474 44 474 44 467 41 c 2,179,-1
 457 37 l 2,180,181
 455 37 455 37 450 32 c 1,182,183
 440 27 440 27 436 26 c 1,184,185
 428 26 428 26 424 22 c 0,186,187
 421 19 421 19 415 19 c 0,188,189
 410 19 410 19 407 16 c 0,190,191
 404 12 404 12 396 13 c 128,-1,192
 388 14 388 14 372 6 c 0,193,194
 355 -2 355 -2 344 -1 c 128,-1,195
 333 0 333 0 324 -5 c 1,196,-1
 314 -15 l 2,197,198
 311 -19 311 -19 310 -53 c 128,-1,199
 309 -87 309 -87 306 -88 c 1,200,201
 304 -90 304 -90 301 -90 c 0,202,203
 299 -90 299 -90 291 -86 c 0,204,205
 285 -83 285 -83 284 -80 c 128,-1,206
 283 -77 283 -77 282 -60 c 0,207,208
 280 -37 280 -37 279 -34 c 0,209,210
 279 -32 279 -32 276 -23 c 0,211,212
 275 -17 275 -17 266 -12 c 0,213,214
 258 -7 258 -7 255 -7 c 0,215,216
 251 -7 251 -7 248 -4 c 0,217,218
 242 0 242 0 240 -2 c 0,219,220
 236 -4 236 -4 226 -2 c 0,221,222
 214 0 214 0 211 3 c 0,223,224
 206 7 206 7 196 7 c 128,-1,225
 186 7 186 7 182 10 c 0,226,227
 178 14 178 14 173 14 c 0,228,229
 169 14 169 14 163 18 c 0,230,231
 158 21 158 21 155 20 c 1,232,233
 150 20 150 20 142 23 c 0,234,235
 140 24 140 24 135 25.5 c 128,-1,236
 130 27 130 27 129 28 c 0,237,238
 124 33 124 33 123 35 c 0,239,240
 120 39 120 39 117 41 c 2,241,-1
 114 42 l 2,242,243
 112 42 112 42 110 42 c 0,244,245
 105 42 105 42 100 47 c 0,246,247
 94 53 94 53 94 56 c 128,-1,248
 94 59 94 59 82 73 c 1,249,250
 69 86 69 86 69 90 c 0,251,252
 69 95 69 95 66 98 c 0,253,254
 62 104 62 104 59 110 c 2,255,-1
 53 125 l 2,256,257
 52 127 52 127 50 132 c 128,-1,258
 48 137 48 137 47 139 c 0,259,260
 44 145 44 145 42 161 c 1,261,262
 42 174 42 174 40 176 c 128,-1,263
 38 178 38 178 38 181 c 0,264,265
 38 182 38 182 39 185 c 0,266,267
 39 187 39 187 44 200 c 0,268,269
 47 207 47 207 52 209 c 1,270,271
 54 211 54 211 81 211 c 1,272,273
 95 212 95 212 100 212 c 0,274,275
 109 212 109 212 112 209 c 1,276,277
 118 206 118 206 127 188 c 128,-1,278
 136 170 136 170 136 159 c 0,279,280
 136 149 136 149 139 143 c 0,281,282
 141 137 141 137 141 133 c 1,283,-1
 144 124 l 1,284,285
 147 119 147 119 151 110 c 0,286,287
 154 104 154 104 161 97 c 1,288,289
 167 93 167 93 169 93 c 0,290,291
 172 93 172 93 178 87 c 128,-1,292
 184 81 184 81 194 77 c 0,293,294
 201 74 201 74 206 74 c 0,295,296
 208 74 208 74 212 68 c 0,297,298
 215 63 215 63 219 63 c 0,299,300
 225 63 225 63 234 60 c 128,-1,301
 243 57 243 57 252 57 c 0,302,303
 260 57 260 57 269 66 c 0,304,305
 279 76 279 76 280 82 c 0,306,307
 281 86 281 86 281 159 c 1,308,309
 280 197 280 197 280 233 c 0,310,311
 280 234 280 234 280 239 c 0,312,313
 280 245 280 245 281 273 c 0,314,315
 281 284 281 284 281 292 c 0,316,317
 281 307 281 307 280 310 c 1,318,319
 276 314 276 314 273 322 c 1,320,321
 268 331 268 331 263 334 c 1,322,323
 258 335 258 335 254 340 c 1,324,325
 250 342 250 342 246 342 c 0,326,327
 243 342 243 342 237 346 c 0,328,329
 234 349 234 349 226 351 c 0,330,331
 217 353 217 353 216 354 c 0,332,333
 215 356 215 356 209 356 c 0,334,335
 204 356 204 356 196 361 c 0,336,337
 188 365 188 365 183 365 c 0,338,339
 177 365 177 365 176 368 c 1,340,341
 172 370 172 370 168 370 c 128,-1,342
 164 370 164 370 161 376 c 1,343,344
 157 381 157 381 156 380 c 1,345,346
 153 380 153 380 145 385 c 0,347,348
 142 386 142 386 138 388 c 2,349,-1
 134 390 l 1,350,351
 131 390 131 390 125 398 c 1,352,353
 115 406 115 406 114 406 c 0,354,355
 111 406 111 406 107 408 c 1,356,-1
 104 412 l 2,357,358
 100 416 100 416 98 418 c 0,359,360
 92 426 92 426 92 429 c 128,-1,361
 92 432 92 432 85 437 c 0,362,363
 81 440 81 440 71 450 c 0,364,365
 64 456 64 456 64 461 c 0,366,367
 64 465 64 465 60 475 c 0,368,369
 57 480 57 480 52 497 c 1,370,371
 49 512 49 512 49 542 c 0,372,373
 49 574 49 574 52 577 c 0,374,375
 55 581 55 581 55 584 c 128,-1,376
 55 587 55 587 59 593 c 0,377,378
 60 595 60 595 62.5 601 c 128,-1,379
 65 607 65 607 67 610 c 0,380,381
 71 622 71 622 71 623 c 0,382,383
 71 626 71 626 76 633 c 0,384,385
 79 637 79 637 84 647 c 0,386,387
 88 655 88 655 96 663 c 1,388,389
 103 672 103 672 110 674 c 0,390,391
 113 674 113 674 119 677 c 1,392,393
 122 680 122 680 122 682 c 128,-1,394
 122 684 122 684 128 689 c 2,395,-1
 140 697 l 1,396,-1
 156 705 l 2,397,398
 163 709 163 709 178 709 c 0,399,400
 192 709 192 709 196 713 c 0,401,402
 199 716 199 716 206 716 c 0,403,404
 210 716 210 716 224 720 c 0,405,406
 233 723 233 723 244 723 c 0,407,408
 252 723 252 723 261 729 c 0,409,410
 273 738 273 738 275 740 c 0,411,412
 281 746 281 746 281 756 c 0,413,414
 281 760 281 760 281 772 c 0,415,416
 280 786 280 786 280 790 c 0,417,418
 280 799 280 799 285 805 c 0,0,1
245 655 m 0,419,420
 242 658 242 658 234 658 c 0,421,422
 225 658 225 658 220 654 c 1,423,424
 214 651 214 651 210 647 c 1,425,426
 209 643 209 643 203 643 c 128,-1,427
 197 643 197 643 191 640 c 0,428,429
 187 638 187 638 181 632 c 0,430,431
 178 629 178 629 174 629 c 0,432,433
 171 629 171 629 167 623 c 0,434,435
 160 613 160 613 160 612 c 0,436,437
 159 611 159 611 157.5 608 c 128,-1,438
 156 605 156 605 155 604 c 0,439,440
 155 603 155 603 152 599 c 128,-1,441
 149 595 149 595 147 592 c 0,442,443
 142 583 142 583 142 569 c 0,444,445
 142 564 142 564 142 546 c 0,446,447
 142 509 142 509 144 506 c 0,448,449
 148 500 148 500 151 497 c 1,450,451
 155 490 155 490 158 484 c 0,452,453
 159 482 159 482 165 472 c 1,454,455
 169 468 169 468 169 464 c 0,456,457
 169 461 169 461 171 459 c 0,458,459
 174 456 174 456 177 456 c 0,460,461
 182 456 182 456 185 453 c 0,462,463
 191 449 191 449 194 449 c 1,464,-1
 200 446 l 2,465,466
 206 444 206 444 209 442 c 0,467,468
 220 436 220 436 220 435 c 0,469,470
 220 432 220 432 224 430 c 0,471,472
 226 429 226 429 245 429 c 1,473,474
 263 430 263 430 267 434 c 128,-1,475
 271 438 271 438 271 441 c 0,476,477
 271 445 271 445 274 448 c 1,478,479
 276 452 276 452 275 464 c 0,480,481
 274 471 274 471 274 488 c 1,482,483
 276 498 276 498 278 505 c 1,484,485
 282 512 282 512 281 530 c 0,486,487
 280 550 280 550 277 554 c 0,488,489
 274 559 274 559 273 578 c 1,490,-1
 273 619 l 2,491,492
 273 635 273 635 272.5 638 c 128,-1,493
 272 641 272 641 268 645 c 128,-1,494
 264 649 264 649 256 651 c 0,495,496
 247 653 247 653 245 655 c 0,419,420
347 310 m 1,497,498
 345 312 345 312 335 312 c 0,499,500
 324 312 324 312 318 309 c 0,501,502
 311 306 311 306 309 299 c 0,503,504
 305 289 305 289 305 277 c 1,505,506
 304 270 304 270 304 237 c 2,507,-1
 304 204 l 1,508,-1
 304 175 l 1,509,-1
 304 141 l 2,510,511
 304 138 304 138 304 133 c 128,-1,512
 304 128 304 128 304 121 c 128,-1,513
 304 114 304 114 304 110 c 0,514,515
 303 98 303 98 303 95 c 0,516,517
 303 89 303 89 308 84 c 0,518,519
 309 83 309 83 310 81 c 0,520,521
 313 76 313 76 314 75 c 1,522,523
 314 72 314 72 324 68 c 1,524,525
 332 63 332 63 340 63 c 0,526,527
 343 63 343 63 352 64 c 0,528,529
 371 66 371 66 375 68 c 2,530,-1
 384 74 l 2,531,532
 386 75 386 75 392.5 78 c 128,-1,533
 399 81 399 81 401 82 c 0,534,535
 414 89 414 89 419 95 c 1,536,537
 428 102 428 102 428 107 c 0,538,539
 428 113 428 113 432 117 c 1,540,-1
 439 128 l 2,541,542
 439 129 439 129 442 133.5 c 128,-1,543
 445 138 445 138 446 139 c 0,544,545
 450 144 450 144 450 179 c 0,546,547
 450 215 450 215 447 222 c 0,548,549
 443 232 443 232 443 236 c 0,550,551
 443 243 443 243 440 249 c 128,-1,552
 437 255 437 255 429 263 c 2,553,-1
 418 274 l 1,554,555
 417 277 417 277 407 283 c 0,556,557
 401 286 401 286 398 289 c 2,558,-1
 391 296 l 1,559,560
 383 300 383 300 378 300 c 128,-1,561
 373 300 373 300 367 304 c 0,562,563
 363 307 363 307 355 307 c 0,564,565
 348 307 348 307 347 310 c 1,497,498
EndSplineSet
Validated: 1
EndChar

StartChar: uni0025
Encoding: 37 37 8
Width: 966
GlyphClass: 2
Flags: W
LayerCount: 2
Fore
SplineSet
666 725 m 0,0,1
 672 729 672 729 673 729 c 0,2,3
 677 729 677 729 687 726 c 1,4,5
 700 724 700 724 702 722 c 0,6,7
 703 721 703 721 703 719.5 c 128,-1,8
 703 718 703 718 702 717 c 0,9,10
 700 713 700 713 700 709 c 0,11,12
 700 703 700 703 695 700 c 0,13,14
 694 699 694 699 691 696.5 c 128,-1,15
 688 694 688 694 687 693 c 0,16,17
 684 687 684 687 684 684 c 0,18,19
 684 678 684 678 681 672 c 0,20,21
 677 664 677 664 674 661 c 0,22,23
 670 657 670 657 670 654 c 0,24,25
 670 648 670 648 667 644 c 0,26,27
 666 642 666 642 663.5 638 c 128,-1,28
 661 634 661 634 660 632 c 0,29,30
 654 626 654 626 652 620 c 1,31,32
 649 615 649 615 649 610 c 0,33,34
 649 607 649 607 644 602 c 0,35,36
 639 598 639 598 638 590 c 0,37,38
 636 579 636 579 634 576 c 0,39,40
 633 573 633 573 626 568 c 0,41,42
 623 567 623 567 618 562 c 1,43,44
 616 556 616 556 616 551 c 128,-1,45
 616 546 616 546 608 535 c 0,46,47
 600 525 600 525 598 525 c 128,-1,48
 596 525 596 525 596 521 c 0,49,50
 596 515 596 515 591 512 c 1,51,-1
 582 503 l 2,52,53
 579 500 579 500 577 493 c 0,54,55
 575 484 575 484 571 479 c 0,56,57
 569 475 569 475 564 464 c 1,58,59
 560 452 560 452 556 448 c 0,60,61
 551 443 551 443 551 437 c 0,62,63
 551 432 551 432 543 425 c 0,64,65
 536 418 536 418 536 414 c 2,66,-1
 535 409 l 2,67,68
 535 407 535 407 530 405 c 1,69,70
 524 401 524 401 525 394 c 1,71,72
 525 385 525 385 519 378 c 0,73,74
 516 374 516 374 507 365 c 1,75,76
 501 361 501 361 498 352 c 0,77,78
 496 344 496 344 493 341 c 0,79,80
 489 338 489 338 489 331 c 0,81,82
 489 322 489 322 487 320 c 0,83,84
 487 319 487 319 480 314 c 1,85,86
 476 313 476 313 474 309 c 0,87,88
 474 308 474 308 471 302 c 0,89,90
 468 297 468 297 468 290 c 0,91,92
 468 282 468 282 464 279 c 1,93,94
 461 274 461 274 455 272 c 1,95,96
 452 269 452 269 444 257 c 1,97,98
 438 244 438 244 439 237 c 0,99,100
 440 228 440 228 435 223 c 0,101,102
 430 219 430 219 426 212 c 0,103,104
 424 210 424 210 421 205 c 128,-1,105
 418 200 418 200 417 199 c 0,106,107
 413 192 413 192 410 190 c 128,-1,108
 407 188 407 188 407 183.5 c 128,-1,109
 407 179 407 179 402 176 c 0,110,111
 396 172 396 172 395 164 c 1,112,113
 392 156 392 156 389 155 c 0,114,115
 387 155 387 155 380 148 c 0,116,117
 375 142 375 142 375 134 c 0,118,119
 375 127 375 127 368 121 c 128,-1,120
 361 115 361 115 361 110.5 c 128,-1,121
 361 106 361 106 358 105 c 1,122,123
 356 103 356 103 356 100 c 0,124,125
 356 98 356 98 350 88 c 1,126,127
 345 83 345 83 342 74 c 1,128,129
 342 68 342 68 336 62 c 1,130,131
 331 54 331 54 325 44 c 0,132,133
 324 42 324 42 321 33.5 c 128,-1,134
 318 25 318 25 317 23 c 0,135,136
 316 19 316 19 316 13 c 1,137,138
 318 11 318 11 312 7 c 1,139,140
 306 1 306 1 305 -1 c 0,141,142
 304 -5 304 -5 296 -7 c 0,143,144
 293 -8 293 -8 275 -8 c 0,145,146
 261 -8 261 -8 257 -6 c 0,147,148
 256 -6 256 -6 256 -1 c 0,149,150
 256 5 256 5 260 12 c 0,151,152
 263 18 263 18 271 28 c 1,153,154
 276 32 276 32 284 45 c 0,155,156
 289 53 289 53 289 58 c 0,157,158
 289 61 289 61 292 64 c 1,159,160
 294 68 294 68 294 71 c 128,-1,161
 294 74 294 74 303 83 c 1,162,163
 313 91 313 91 314 93 c 1,164,165
 317 94 317 94 317 101 c 128,-1,166
 317 108 317 108 319 114 c 2,167,-1
 326 128 l 2,168,169
 327 129 327 129 329 132 c 0,170,171
 334 139 334 139 335 140 c 0,172,173
 338 143 338 143 340 153 c 0,174,175
 341 161 341 161 348 168 c 128,-1,176
 355 175 355 175 356 178 c 0,177,178
 358 181 358 181 361 190 c 0,179,180
 362 196 362 196 368 202 c 1,181,182
 373 205 373 205 373 210 c 128,-1,183
 373 215 373 215 380 222 c 1,184,185
 388 232 388 232 388 237 c 1,186,187
 390 244 390 244 395 251 c 1,188,189
 401 257 401 257 401 261 c 0,190,191
 401 263 401 263 408 270 c 0,192,193
 413 276 413 276 413 281 c 1,194,195
 411 284 411 284 416 289 c 1,196,197
 421 292 421 292 421 295 c 0,198,199
 421 296 421 296 425 302 c 1,200,201
 429 306 429 306 433 316 c 0,202,203
 435 323 435 323 436.5 324.5 c 128,-1,204
 438 326 438 326 443 327 c 0,205,206
 450 329 450 329 451 332 c 1,207,-1
 451 334 l 1,208,209
 452 342 452 342 452 347 c 0,210,211
 452 359 452 359 456 362 c 0,212,213
 459 365 459 365 465 365 c 0,214,215
 469 365 469 365 471 367 c 128,-1,216
 473 369 473 369 473 373 c 128,-1,217
 473 377 473 377 476 380 c 1,218,219
 479 385 479 385 480 391 c 0,220,221
 480 397 480 397 488 407 c 0,222,223
 494 415 494 415 494 418 c 0,224,225
 494 422 494 422 501 431 c 1,226,227
 507 443 507 443 507 444 c 0,228,229
 507 448 507 448 510 451 c 0,230,231
 515 458 515 458 516 462 c 0,232,233
 519 468 519 468 525 471 c 1,234,235
 532 476 532 476 533 479 c 0,236,237
 535 483 535 483 535 485 c 128,-1,238
 535 487 535 487 538 492 c 1,239,240
 541 495 541 495 543 507 c 0,241,242
 544 517 544 517 549 522 c 1,243,244
 554 525 554 525 554 530 c 0,245,246
 554 533 554 533 562 541 c 0,247,248
 569 548 569 548 571 555 c 2,249,-1
 572 559 l 2,250,251
 573 563 573 563 574 564 c 0,252,253
 577 566 577 566 579 573 c 1,254,255
 582 579 582 579 582 584 c 0,256,257
 582 588 582 588 586 592 c 1,258,259
 590 594 590 594 593 601 c 0,260,261
 594 602 594 602 596.5 607 c 128,-1,262
 599 612 599 612 601 614 c 0,263,264
 606 624 606 624 608 626 c 0,265,266
 612 632 612 632 612 633 c 0,267,268
 612 635 612 635 619 642 c 128,-1,269
 626 649 626 649 626 652 c 0,270,271
 626 656 626 656 630 660 c 0,272,273
 633 664 633 664 633 667 c 0,274,275
 633 668 633 668 641 678 c 1,276,277
 649 686 649 686 649 694 c 0,278,279
 649 703 649 703 652 709 c 2,280,-1
 657 719 l 1,281,282
 662 723 662 723 666 725 c 0,0,1
258 706 m 0,283,284
 263 708 263 708 267 708 c 0,285,286
 268 708 268 708 269 708 c 128,-1,287
 270 708 270 708 275.5 707 c 128,-1,288
 281 706 281 706 285 705 c 0,289,290
 297 701 297 701 306 703 c 1,291,-1
 317 703 l 2,292,293
 320 703 320 703 325 696 c 1,294,295
 332 691 332 691 337 689 c 0,296,297
 339 689 339 689 348 686 c 1,298,299
 352 683 352 683 359 681 c 0,300,301
 365 679 365 679 373 668 c 0,302,303
 382 655 382 655 382 653 c 128,-1,304
 382 651 382 651 386 647 c 1,305,306
 389 641 389 641 389 639 c 0,307,308
 389 635 389 635 393 631 c 0,309,310
 395 629 395 629 399 619 c 1,311,312
 401 610 401 610 403 608 c 0,313,314
 406 605 406 605 406 596 c 0,315,316
 406 586 406 586 409 583 c 128,-1,317
 412 580 412 580 412 578 c 1,318,319
 414 576 414 576 412 567 c 0,320,321
 410 559 410 559 414 552 c 0,322,323
 418 544 418 544 418 527 c 1,324,325
 416 507 416 507 415 505 c 0,326,327
 412 501 412 501 412 494 c 128,-1,328
 412 487 412 487 408 484 c 0,329,330
 405 482 405 482 403 475 c 0,331,332
 400 463 400 463 400 460 c 0,333,334
 399 451 399 451 394 448 c 1,335,336
 388 442 388 442 384 434 c 0,337,338
 378 422 378 422 376 422 c 0,339,340
 374 421 374 421 370 415 c 0,341,342
 369 413 369 413 362 403 c 1,343,344
 356 397 356 397 354 397 c 0,345,346
 351 397 351 397 346 394 c 1,347,348
 340 392 340 392 339 392 c 128,-1,349
 338 392 338 392 332 386 c 0,350,351
 327 381 327 381 319 379 c 0,352,353
 313 377 313 377 297 379 c 0,354,355
 281 380 281 380 276 376 c 1,356,357
 270 373 270 373 254 373 c 128,-1,358
 238 373 238 373 232 375 c 0,359,360
 227 376 227 376 226 372 c 0,361,362
 226 369 226 369 224 369 c 128,-1,363
 222 369 222 369 222 372 c 128,-1,364
 222 375 222 375 215 380 c 0,365,366
 211 384 211 384 206 384 c 1,367,368
 204 383 204 383 197 385 c 1,369,370
 190 390 190 390 189 394 c 1,371,372
 186 399 186 399 177 399 c 0,373,374
 171 399 171 399 165 402 c 1,375,376
 162 405 162 405 162 406 c 0,377,378
 162 409 162 409 155 418 c 0,379,380
 152 421 152 421 148 426 c 2,381,-1
 145 431 l 1,382,-1
 142 433 l 2,383,384
 140 435 140 435 139 436 c 0,385,386
 134 441 134 441 134 447 c 0,387,388
 134 455 134 455 132 457 c 0,389,390
 129 462 129 462 129 479 c 0,391,392
 129 497 129 497 125 501 c 0,393,394
 120 506 120 506 120 511 c 0,395,396
 120 518 120 518 117 523 c 0,397,398
 114 530 114 530 114 542 c 0,399,400
 114 552 114 552 118 562 c 0,401,402
 122 570 122 570 122 574 c 128,-1,403
 122 578 122 578 126 584 c 0,404,405
 129 590 129 590 129 595 c 1,406,407
 128 598 128 598 130 607 c 1,408,409
 133 612 133 612 135 622 c 0,410,411
 136 631 136 631 142 634 c 0,412,413
 146 636 146 636 152 648 c 0,414,415
 159 660 159 660 163 660 c 0,416,417
 165 660 165 660 173 666 c 0,418,419
 178 671 178 671 178 675 c 0,420,421
 178 678 178 678 183 680 c 0,422,423
 186 681 186 681 198 689 c 0,424,425
 206 695 206 695 215 695 c 0,426,427
 221 695 221 695 227 699 c 0,428,429
 232 702 232 702 241 702 c 128,-1,430
 250 702 250 702 258 706 c 0,283,284
291 660 m 0,431,432
 284 667 284 667 280 667 c 0,433,434
 275 667 275 667 271 663 c 1,435,436
 264 659 264 659 254 660 c 1,437,438
 241 660 241 660 237 656 c 0,439,440
 230 651 230 651 224 651 c 0,441,442
 219 651 219 651 217.5 650 c 128,-1,443
 216 649 216 649 214 644 c 0,444,445
 210 636 210 636 206 635 c 1,446,447
 201 630 201 630 200 628 c 0,448,449
 194 616 194 616 192 613 c 0,450,451
 185 602 185 602 186 591 c 0,452,453
 186 588 186 588 185.5 579 c 128,-1,454
 185 570 185 570 185 565 c 0,455,456
 185 552 185 552 182 547 c 1,457,458
 178 543 178 543 178 534 c 0,459,460
 178 529 178 529 179 514 c 1,461,462
 179 492 179 492 180 487 c 128,-1,463
 181 482 181 482 186 471 c 0,464,465
 192 460 192 460 195 452 c 1,466,467
 195 448 195 448 200 443 c 1,468,469
 201 440 201 440 209 435 c 1,470,471
 214 434 214 434 220 428 c 0,472,473
 224 423 224 423 234 421 c 0,474,475
 251 416 251 416 253 415 c 0,476,477
 261 413 261 413 270 414 c 0,478,479
 272 415 272 415 276 416 c 128,-1,480
 280 417 280 417 281 418 c 128,-1,481
 282 419 282 419 286 421 c 0,482,483
 289 423 289 423 291 424 c 0,484,485
 301 428 301 428 305 428 c 0,486,487
 310 428 310 428 316 432 c 0,488,489
 321 436 321 436 325 443 c 0,490,491
 329 449 329 449 333 449 c 128,-1,492
 337 449 337 449 338 452 c 1,493,494
 340 454 340 454 340 457 c 0,495,496
 340 461 340 461 344 465 c 0,497,498
 347 468 347 468 346 488 c 128,-1,499
 345 508 345 508 349 514 c 0,500,501
 353 522 353 522 353 531 c 0,502,503
 354 543 354 543 351 548 c 0,504,505
 347 554 347 554 350 562 c 0,506,507
 353 569 353 569 353 571 c 128,-1,508
 353 573 353 573 350 578 c 0,509,510
 347 582 347 582 347 592 c 0,511,512
 347 601 347 601 344 604 c 0,513,514
 340 609 340 609 339 615 c 0,515,516
 336 624 336 624 333 629 c 0,517,518
 329 637 329 637 324 639 c 0,519,520
 319 640 319 640 313 646 c 128,-1,521
 307 652 307 652 302 652 c 1,522,523
 294 656 294 656 291 660 c 0,431,432
698 351 m 0,524,525
 702 352 702 352 718 352 c 0,526,527
 731 352 731 352 734 349 c 0,528,529
 735 347 735 347 744 345 c 0,530,531
 746 345 746 345 751 343.5 c 128,-1,532
 756 342 756 342 758 341 c 0,533,534
 766 337 766 337 768 337 c 0,535,536
 772 337 772 337 776 339 c 128,-1,537
 780 341 780 341 782 337 c 0,538,539
 783 336 783 336 786.5 332 c 128,-1,540
 790 328 790 328 792 326 c 0,541,542
 798 320 798 320 804 317 c 0,543,544
 810 315 810 315 819 306 c 0,545,546
 829 296 829 296 833 289 c 0,547,548
 839 280 839 280 838 273 c 1,549,-1
 838 260 l 1,550,551
 839 254 839 254 845 251 c 0,552,553
 848 250 848 250 852 246 c 1,554,555
 854 242 854 242 854 186 c 0,556,557
 853 128 853 128 850 123 c 0,558,559
 849 121 849 121 847 117.5 c 128,-1,560
 845 114 845 114 844 112 c 0,561,562
 841 109 841 109 839 101 c 0,563,564
 837 94 837 94 831 86 c 128,-1,565
 825 78 825 78 820 75 c 0,566,567
 817 74 817 74 815 67 c 0,568,569
 815 66 815 66 814.5 62.5 c 128,-1,570
 814 59 814 59 813 58 c 1,571,572
 813 56 813 56 805 54 c 0,573,574
 798 53 798 53 798 49 c 0,575,576
 798 46 798 46 794 40 c 1,577,578
 789 35 789 35 786 35 c 128,-1,579
 783 35 783 35 779 33 c 128,-1,580
 775 31 775 31 775 28 c 0,581,582
 775 26 775 26 773 22 c 1,583,584
 767 20 767 20 739 20 c 0,585,586
 730 20 730 20 713 19.5 c 128,-1,587
 696 19 696 19 692 19 c 2,588,-1
 670 19 l 2,589,590
 664 19 664 19 662 22 c 0,591,592
 658 26 658 26 655 28 c 0,593,594
 645 33 645 33 640 33 c 0,595,596
 630 34 630 34 626 40 c 0,597,598
 623 45 623 45 619 45 c 0,599,600
 617 45 617 45 613 49 c 128,-1,601
 609 53 609 53 606 53 c 1,602,603
 601 55 601 55 600 58 c 2,604,-1
 598 62 l 2,605,606
 596 66 596 66 596 67 c 0,607,608
 594 73 594 73 589 76 c 0,609,610
 584 78 584 78 577 91 c 0,611,612
 570 103 570 103 570 112 c 0,613,614
 570 120 570 120 564 133 c 1,615,616
 558 142 558 142 558 148 c 0,617,618
 558 152 558 152 561 157 c 0,619,620
 565 164 565 164 564 171 c 0,621,622
 562 180 562 180 560 182 c 0,623,624
 558 186 558 186 558 196 c 0,625,626
 558 210 558 210 561 220 c 0,627,628
 565 234 565 234 565 237 c 0,629,630
 565 241 565 241 567 245 c 1,631,632
 570 248 570 248 570 252 c 0,633,634
 570 253 570 253 571.5 256 c 128,-1,635
 573 259 573 259 573 260 c 0,636,637
 577 264 577 264 577 266 c 0,638,639
 579 270 579 270 581 273 c 0,640,641
 586 278 586 278 585 284 c 0,642,643
 584 288 584 288 589 296 c 0,644,645
 595 304 595 304 597 305 c 0,646,647
 603 311 603 311 609 316 c 0,648,649
 618 325 618 325 621 325 c 128,-1,650
 624 325 624 325 627 328 c 1,651,652
 630 333 630 333 634 331 c 0,653,654
 638 330 638 330 642 332 c 128,-1,655
 646 334 646 334 648 339 c 0,656,657
 650 343 650 343 652 343.5 c 128,-1,658
 654 344 654 344 664 344 c 0,659,660
 679 344 679 344 685 347 c 0,661,662
 689 348 689 348 698 351 c 0,524,525
728 311 m 0,663,664
 724 313 724 313 713 313 c 0,665,666
 710 313 710 313 707 313 c 0,667,668
 702 313 702 313 694 310 c 1,669,670
 686 305 686 305 682 305 c 0,671,672
 680 305 680 305 676 301 c 0,673,674
 673 297 673 297 665 295 c 1,675,676
 660 295 660 295 654 292 c 1,677,678
 651 289 651 289 651 287 c 0,679,680
 651 284 651 284 640 273 c 1,681,682
 630 261 630 261 630 253 c 0,683,684
 630 246 630 246 625 238 c 0,685,686
 621 233 621 233 621 227 c 2,687,-1
 621 195 l 1,688,-1
 621 156 l 2,689,690
 621 145 621 145 625 136 c 0,691,692
 626 134 626 134 628.5 128 c 128,-1,693
 631 122 631 122 632 120 c 0,694,695
 635 114 635 114 635 106 c 0,696,697
 635 99 635 99 643 90 c 0,698,699
 652 80 652 80 658 78 c 1,700,701
 663 74 663 74 672 71 c 1,702,-1
 684 65 l 1,703,704
 689 61 689 61 695 60 c 0,705,706
 704 57 704 57 708 57 c 0,707,708
 712 56 712 56 713 56 c 0,709,710
 717 56 717 56 722 61 c 0,711,712
 728 67 728 67 732 67 c 0,713,714
 739 67 739 67 744 71 c 1,715,716
 753 76 753 76 755 82 c 1,717,718
 759 89 759 89 764 92 c 1,719,720
 772 95 772 95 774 98 c 1,721,722
 779 101 779 101 779 104 c 0,723,724
 779 108 779 108 784 111 c 1,725,726
 790 117 790 117 789 127 c 1,727,728
 789 139 789 139 793 143 c 1,729,730
 797 149 797 149 797 153 c 128,-1,731
 797 157 797 157 793 169 c 0,732,733
 789 180 789 180 792 187 c 0,734,735
 795 192 795 192 795 204 c 0,736,737
 795 213 795 213 791 219 c 1,738,739
 787 223 787 223 788 238 c 1,740,741
 788 254 788 254 784 259 c 0,742,743
 783 261 783 261 781.5 264 c 128,-1,744
 780 267 780 267 780 269 c 0,745,746
 780 272 780 272 774 276 c 0,747,748
 769 279 769 279 767 284 c 1,749,750
 767 290 767 290 763 292 c 0,751,752
 761 294 761 294 754 294 c 1,753,754
 750 293 750 293 746 300 c 128,-1,755
 742 307 742 307 737 308 c 0,756,757
 736 308 736 308 732.5 309 c 128,-1,758
 729 310 729 310 728 311 c 0,663,664
EndSplineSet
Validated: 1
EndChar

StartChar: uni0026
Encoding: 38 38 9
Width: 747
GlyphClass: 2
Flags: W
LayerCount: 2
Fore
SplineSet
272 752 m 0,0,1
 275 754 275 754 282 754 c 1,2,3
 283 753 283 753 333 753 c 1,4,5
 382 752 382 752 386 749 c 0,6,7
 392 746 392 746 393 746 c 0,8,9
 396 746 396 746 402 742 c 1,10,11
 406 738 406 738 410 738 c 0,12,13
 411 738 411 738 419 734 c 0,14,15
 425 731 425 731 429 731 c 128,-1,16
 433 731 433 731 438 726 c 0,17,18
 441 724 441 724 455 718 c 0,19,20
 466 714 466 714 470 710 c 128,-1,21
 474 706 474 706 474 702 c 0,22,23
 474 699 474 699 475 698 c 1,24,25
 477 698 477 698 481 688 c 0,26,27
 483 685 483 685 486 678.5 c 128,-1,28
 489 672 489 672 490 670 c 0,29,30
 493 662 493 662 493 652 c 0,31,32
 493 644 493 644 497 637 c 0,33,34
 501 632 501 632 502 616 c 1,35,-1
 502 597 l 2,36,37
 502 589 502 589 501 586 c 0,38,39
 499 578 499 578 498 577 c 2,40,-1
 496 570 l 2,41,42
 494 564 494 564 491 559 c 2,43,-1
 484 542 l 2,44,45
 484 541 484 541 479 534 c 0,46,47
 477 532 477 532 469 516 c 0,48,49
 464 504 464 504 449 494 c 1,50,51
 438 488 438 488 429 479 c 1,52,53
 425 473 425 473 425 470 c 128,-1,54
 425 467 425 467 419 461 c 0,55,56
 412 454 412 454 404 450 c 0,57,58
 398 448 398 448 390 444 c 0,59,60
 384 440 384 440 383 436 c 0,61,62
 381 429 381 429 379 428 c 1,63,64
 377 423 377 423 378 417 c 0,65,66
 378 413 378 413 381 404 c 0,67,68
 384 398 384 398 392 388 c 1,69,70
 400 380 400 380 410 366 c 1,71,-1
 435 338 l 1,72,73
 451 322 451 322 455 312 c 0,74,75
 457 309 457 309 460 303 c 128,-1,76
 463 297 463 297 464 295 c 0,77,78
 468 288 468 288 474 289 c 0,79,80
 479 290 479 290 485 286 c 0,81,82
 490 283 490 283 494 283 c 0,83,84
 496 283 496 283 506 271 c 1,85,86
 518 259 518 259 521 257 c 0,87,88
 530 254 530 254 545 254 c 1,89,90
 565 252 565 252 567 254 c 1,91,92
 571 254 571 254 573 261 c 1,93,94
 575 264 575 264 577 274 c 0,95,96
 577 278 577 278 581 284 c 0,97,98
 584 288 584 288 584 304 c 0,99,100
 584 321 584 321 589 328 c 1,101,102
 593 336 593 336 592 337 c 1,103,104
 592 340 592 340 594 346 c 1,105,106
 598 353 598 353 598 384 c 0,107,108
 598 416 598 416 600 419 c 0,109,110
 602 423 602 423 604 436 c 0,111,112
 606 452 606 452 609 458 c 1,113,-1
 615 466 l 2,114,115
 616 466 616 466 628 470 c 0,116,117
 642 475 642 475 644 476 c 0,118,119
 647 479 647 479 653 479 c 1,120,121
 660 477 660 477 665 480 c 1,122,123
 672 482 672 482 678 480 c 1,124,125
 683 480 683 480 691 474 c 1,126,127
 697 468 697 468 697 454 c 0,128,129
 697 448 697 448 697 430 c 0,130,131
 697 392 697 392 693 380 c 0,132,133
 690 371 690 371 691 356 c 0,134,135
 692 344 692 344 687 337 c 0,136,137
 683 331 683 331 683 329 c 128,-1,138
 683 327 683 327 679 319 c 0,139,140
 674 310 674 310 673 309 c 0,141,142
 671 307 671 307 671 300 c 0,143,144
 671 299 671 299 670.5 293.5 c 128,-1,145
 670 288 670 288 670 286 c 0,146,147
 669 281 669 281 664 269 c 0,148,149
 660 259 660 259 658 259 c 1,150,151
 657 258 657 258 657 252 c 0,152,153
 657 247 657 247 650 237 c 0,154,155
 647 233 647 233 636 214 c 0,156,157
 630 204 630 204 629 199.5 c 128,-1,158
 628 195 628 195 627 176 c 0,159,160
 627 166 627 166 627 162 c 0,161,162
 627 151 627 151 636 143 c 1,163,164
 646 136 646 136 646 133 c 128,-1,165
 646 130 646 130 651 127 c 2,166,-1
 655 124 l 2,167,168
 659 121 659 121 660 119 c 0,169,170
 665 114 665 114 665 111 c 128,-1,171
 665 108 665 108 669 108 c 1,172,173
 671 107 671 107 694 86 c 1,174,175
 717 63 717 63 724 59 c 0,176,177
 735 52 735 52 736 51 c 0,178,179
 739 48 739 48 742 39 c 0,180,181
 745 33 745 33 745 29 c 0,182,183
 745 28 745 28 744 26 c 2,184,-1
 735 17 l 2,185,186
 729 12 729 12 718 12 c 2,187,-1
 700 12 l 2,188,189
 685 12 685 12 675 13 c 1,190,191
 658 13 658 13 652 16 c 0,192,193
 648 19 648 19 643 19 c 0,194,195
 642 19 642 19 632 24 c 1,196,197
 625 30 625 30 625 34 c 0,198,199
 625 40 625 40 620 45 c 1,200,201
 616 51 616 51 614 51 c 128,-1,202
 612 51 612 51 606 57 c 128,-1,203
 600 63 600 63 597 63 c 0,204,205
 595 63 595 63 579 77 c 0,206,207
 565 90 565 90 558 90 c 0,208,209
 557 90 557 90 552 90 c 0,210,211
 540 88 540 88 536 86 c 1,212,213
 532 82 532 82 528 82 c 0,214,215
 523 82 523 82 519 76 c 0,216,217
 512 67 512 67 507 63 c 0,218,219
 503 59 503 59 493 54 c 0,220,221
 483 50 483 50 480 45 c 1,222,223
 475 40 475 40 468 38 c 0,224,225
 464 36 464 36 455 33 c 0,226,227
 451 32 451 32 444 27 c 0,228,229
 438 23 438 23 434 21 c 0,230,231
 433 21 433 21 426.5 18 c 128,-1,232
 420 15 420 15 415 13 c 0,233,234
 402 7 402 7 392 7 c 0,235,236
 385 7 385 7 375 3 c 0,237,238
 368 0 368 0 359 0 c 0,239,240
 354 0 354 0 347 -5 c 0,241,242
 342 -8 342 -8 338 -8 c 0,243,244
 337 -8 337 -8 335 -8 c 0,245,246
 334 -8 334 -8 328.5 -7.5 c 128,-1,247
 323 -7 323 -7 321 -7 c 0,248,249
 320 -7 320 -7 311 -7.5 c 128,-1,250
 302 -8 302 -8 296 -8 c 0,251,252
 287 -9 287 -9 284 -9 c 0,253,254
 278 -9 278 -9 273 -5 c 1,255,256
 264 0 264 0 241 0 c 0,257,258
 222 0 222 0 217.5 1 c 128,-1,259
 213 2 213 2 202 7 c 0,260,261
 190 13 190 13 180 13 c 1,262,263
 172 12 172 12 166 19 c 0,264,265
 161 26 161 26 156 26 c 1,266,267
 152 25 152 25 149 29 c 0,268,269
 149 30 149 30 138 38 c 1,270,271
 128 42 128 42 120 50 c 0,272,273
 117 53 117 53 112 57 c 128,-1,274
 107 61 107 61 106 62 c 0,275,276
 105 62 105 62 95 69 c 0,277,278
 90 72 90 72 88 77 c 0,279,280
 85 86 85 86 83 91 c 0,281,282
 79 98 79 98 74 110 c 0,283,284
 73 112 73 112 70 116.5 c 128,-1,285
 67 121 67 121 66 122 c 0,286,287
 63 125 63 125 63 130 c 0,288,289
 63 132 63 132 60 141 c 1,290,291
 57 146 57 146 56 169 c 1,292,-1
 56 194 l 2,293,294
 56 203 56 203 57 211 c 0,295,296
 57 218 57 218 58 226 c 1,297,-1
 58 228 l 1,298,299
 59 228 59 228 57 232 c 0,300,301
 56 236 56 236 60 242 c 0,302,303
 65 249 65 249 65 252 c 128,-1,304
 65 255 65 255 67 259 c 1,305,306
 70 262 70 262 70 270 c 128,-1,307
 70 278 70 278 73 281 c 0,308,309
 77 285 77 285 77 290 c 1,310,311
 78 293 78 293 86 303 c 0,312,313
 93 312 93 312 93 316 c 128,-1,314
 93 320 93 320 98 327 c 0,315,316
 102 333 102 333 106 333 c 1,317,318
 108 332 108 332 120 342 c 0,319,320
 126 347 126 347 141 362 c 0,321,322
 151 372 151 372 151 374 c 1,323,324
 154 377 154 377 159 380 c 2,325,-1
 174 389 l 1,326,327
 178 393 178 393 185 393 c 0,328,329
 190 393 190 393 190 395 c 1,330,331
 192 397 192 397 194 410 c 0,332,333
 196 424 196 424 196 435 c 0,334,335
 196 448 196 448 190 457 c 0,336,337
 182 469 182 469 178 470 c 1,338,339
 175 472 175 472 167 482 c 1,340,341
 164 489 164 489 159 497 c 1,342,343
 155 500 155 500 153 508 c 0,344,345
 153 512 153 512 150 515 c 0,346,347
 146 518 146 518 145 523 c 1,348,349
 142 527 142 527 142 532 c 0,350,351
 142 538 142 538 139 544 c 1,352,353
 138 551 138 551 134 555 c 0,354,355
 133 556 133 556 130 562 c 0,356,357
 130 564 130 564 128 568 c 1,358,-1
 128 572 l 2,359,360
 128 576 128 576 127.5 581 c 128,-1,361
 127 586 127 586 127 591 c 0,362,363
 126 602 126 602 126 619 c 0,364,365
 126 624 126 624 128 636 c 2,366,-1
 131 651 l 2,367,368
 131 656 131 656 137 660 c 0,369,370
 141 662 141 662 143 667 c 1,371,372
 146 670 146 670 144 675 c 1,373,374
 144 680 144 680 147 681 c 0,375,376
 153 685 153 685 159 691 c 0,377,378
 167 699 167 699 170 705 c 0,379,380
 174 714 174 714 177 715 c 0,381,382
 182 718 182 718 184 718 c 128,-1,383
 186 718 186 718 196 728 c 0,384,385
 203 735 203 735 206.5 736.5 c 128,-1,386
 210 738 210 738 227 739 c 1,387,388
 249 739 249 739 257 744 c 0,389,390
 269 751 269 751 272 752 c 0,0,1
361 684 m 2,391,-1
 341 688 l 1,392,-1
 331 689 l 1,393,394
 322 688 322 688 311 688 c 0,395,396
 292 688 292 688 287 685 c 1,397,398
 284 682 284 682 278 680 c 2,399,-1
 266 677 l 1,400,401
 258 672 258 672 248 663 c 0,402,403
 238 653 238 653 232 645 c 128,-1,404
 226 637 226 637 224 636 c 128,-1,405
 222 635 222 635 220 627 c 0,406,407
 218 620 218 620 215 616 c 0,408,409
 212 611 212 611 212 599 c 0,410,411
 212 585 212 585 217 573 c 0,412,413
 220 565 220 565 225 555 c 0,414,415
 228 551 228 551 227 547 c 0,416,417
 226 544 226 544 229 536 c 0,418,419
 232 530 232 530 238 526 c 128,-1,420
 244 522 244 522 247 519 c 1,421,422
 250 514 250 514 254 514 c 1,423,424
 257 513 257 513 269 503 c 1,425,426
 277 495 277 495 281 494 c 128,-1,427
 285 493 285 493 304 492 c 0,428,429
 322 492 322 492 326 492.5 c 128,-1,430
 330 493 330 493 336 498 c 1,431,432
 346 504 346 504 347 504 c 0,433,434
 350 504 350 504 353 509 c 1,435,436
 358 514 358 514 361 514 c 1,437,-1
 375 526 l 1,438,439
 386 537 386 537 386 541 c 128,-1,440
 386 545 386 545 391 550 c 0,441,442
 393 551 393 551 402 565 c 1,443,444
 408 579 408 579 408 584 c 1,445,446
 410 592 410 592 411 594 c 0,447,448
 412 595 412 595 415 608 c 1,449,450
 415 622 415 622 413 629 c 0,451,452
 412 636 412 636 407 643 c 0,453,454
 407 644 407 644 404 648 c 128,-1,455
 401 652 401 652 400 654 c 0,456,457
 396 661 396 661 390 666 c 0,458,459
 384 670 384 670 382 674 c 0,460,461
 378 680 378 680 376 680 c 1,462,463
 371 683 371 683 361 684 c 2,391,-1
290 352 m 2,464,465
 285 356 285 356 282 357 c 128,-1,466
 279 358 279 358 266 358 c 0,467,468
 261 358 261 358 254 358 c 2,469,-1
 247 357 l 1,470,471
 245 354 245 354 240 353 c 1,472,473
 236 349 236 349 233 349 c 0,474,475
 229 349 229 349 211 331 c 0,476,477
 194 314 194 314 192 307 c 128,-1,478
 190 300 190 300 183 295 c 0,479,480
 174 288 174 288 169 280 c 0,481,482
 163 270 163 270 164 264 c 0,483,484
 165 256 165 256 162 253 c 0,485,486
 158 247 158 247 158 241 c 0,487,488
 158 217 158 217 157 198 c 1,489,490
 157 162 157 162 160 158 c 0,491,492
 163 155 163 155 163 151 c 0,493,494
 163 148 163 148 168 138 c 0,495,496
 173 127 173 127 177 125 c 1,497,498
 180 122 180 122 183 116 c 0,499,500
 186 109 186 109 191 107 c 0,501,502
 197 105 197 105 200 100 c 0,503,504
 204 92 204 92 204 87 c 0,505,506
 205 80 205 80 213 76 c 1,507,508
 220 71 220 71 232 71 c 0,509,510
 243 71 243 71 251 67 c 0,511,512
 256 64 256 64 272 64 c 1,513,514
 280 65 280 65 290 65 c 1,515,-1
 296 64 l 2,516,517
 302 64 302 64 307 64 c 0,518,519
 320 62 320 62 324 60 c 128,-1,520
 328 58 328 58 345 58 c 0,521,522
 362 59 362 59 371 64 c 0,523,524
 374 66 374 66 379.5 68.5 c 128,-1,525
 385 71 385 71 386 71 c 0,526,527
 391 71 391 71 395 75 c 0,528,529
 400 79 400 79 401 78 c 1,530,531
 405 78 405 78 411 81 c 128,-1,532
 417 84 417 84 422 84 c 128,-1,533
 427 84 427 84 433 92 c 128,-1,534
 439 100 439 100 445 100 c 0,535,536
 452 100 452 100 453 103 c 128,-1,537
 454 106 454 106 459 108 c 1,538,539
 463 108 463 108 463 112 c 0,540,541
 463 113 463 113 467 119 c 0,542,543
 470 122 470 122 470 126 c 0,544,545
 470 127 470 127 473 133 c 1,546,547
 476 136 476 136 478 143 c 0,548,549
 478 144 478 144 478 147.5 c 128,-1,550
 478 151 478 151 478 154 c 0,551,552
 478 158 478 158 478 162 c 0,553,554
 477 170 477 170 476.5 172.5 c 128,-1,555
 476 175 476 175 474 176.5 c 128,-1,556
 472 178 472 178 466 181 c 0,557,558
 455 186 455 186 454 190 c 0,559,560
 452 195 452 195 447 202 c 0,561,562
 445 204 445 204 441 210 c 128,-1,563
 437 216 437 216 435 218 c 0,564,565
 429 228 429 228 420 233 c 0,566,567
 417 234 417 234 412 237 c 2,568,-1
 408 240 l 2,569,570
 404 244 404 244 400 245 c 0,571,572
 396 245 396 245 392 251 c 0,573,574
 391 252 391 252 387.5 256.5 c 128,-1,575
 384 261 384 261 382 263 c 0,576,577
 377 270 377 270 374 270 c 0,578,579
 373 270 373 270 366 279 c 1,580,-1
 360 289 l 1,581,582
 360 291 360 291 347 302 c 0,583,584
 339 308 339 308 328 319 c 0,585,586
 325 323 325 323 316 329 c 0,587,588
 310 332 310 332 303 339 c 2,589,-1
 290 352 l 2,464,465
EndSplineSet
Validated: 1
EndChar

StartChar: uni0027
Encoding: 39 39 10
Width: 362
GlyphClass: 2
Flags: W
LayerCount: 2
Fore
SplineSet
208 722 m 0,0,1
 211 726 211 726 221 726 c 0,2,3
 226 726 226 726 243 725 c 0,4,5
 275 723 275 723 276 722 c 0,6,7
 278 720 278 720 278 708 c 0,8,9
 277 695 277 695 271 686 c 1,10,11
 265 674 265 674 265 673 c 0,12,13
 265 671 265 671 236 642 c 2,14,-1
 202 609 l 2,15,16
 200 607 200 607 197 601 c 0,17,18
 195 595 195 595 185 585 c 1,19,20
 175 573 175 573 171 571 c 0,21,22
 167 570 167 570 165 564 c 1,23,24
 165 559 165 559 161 555 c 0,25,26
 161 554 161 554 158 549 c 128,-1,27
 155 544 155 544 154 541 c 0,28,29
 148 532 148 532 145 530 c 0,30,31
 140 528 140 528 137 523 c 128,-1,32
 134 518 134 518 129 518 c 0,33,34
 127 518 127 518 121 516 c 1,35,36
 119 514 119 514 110 512 c 0,37,38
 108 512 108 512 106 512 c 0,39,40
 102 512 102 512 94 515 c 0,41,42
 88 518 88 518 79 524 c 0,43,44
 73 529 73 529 73 538 c 0,45,46
 73 548 73 548 77 551 c 0,47,48
 81 555 81 555 82 555 c 128,-1,49
 83 555 83 555 89 568 c 0,50,51
 97 584 97 584 103 590 c 0,52,53
 105 592 105 592 108.5 597 c 128,-1,54
 112 602 112 602 113 603 c 0,55,56
 116 608 116 608 117 614 c 1,57,58
 117 621 117 621 122 624 c 0,59,60
 124 625 124 625 127 628 c 1,61,-1
 128 630 l 2,62,63
 128 632 128 632 128 633 c 0,64,65
 128 638 128 638 131 639 c 128,-1,66
 134 640 134 640 134 645 c 0,67,68
 134 648 134 648 136 652 c 1,69,70
 136 655 136 655 142 659 c 1,71,72
 148 665 148 665 153 674 c 0,73,74
 157 680 157 680 161 688 c 1,75,76
 161 692 161 692 163 692 c 128,-1,77
 165 692 165 692 168 695 c 0,78,79
 172 701 172 701 172 705 c 0,80,81
 172 711 172 711 176 714 c 0,82,83
 178 715 178 715 192 717 c 0,84,85
 204 718 204 718 208 722 c 0,0,1
EndSplineSet
Validated: 1
EndChar

StartChar: uni0028
Encoding: 40 40 11
Width: 319
GlyphClass: 2
Flags: W
LayerCount: 2
Fore
SplineSet
241 807 m 1,0,-1
 254 807 l 1,1,2
 263 806 263 806 267 802 c 1,3,4
 269 798 269 798 269 795 c 0,5,6
 269 785 269 785 264 774 c 0,7,8
 260 765 260 765 255 756 c 0,9,10
 248 742 248 742 247 737 c 0,11,12
 244 722 244 722 243 715 c 0,13,14
 241 701 241 701 238 695 c 128,-1,15
 235 689 235 689 235 684 c 0,16,17
 235 678 235 678 231 674 c 1,18,19
 227 668 227 668 227 661 c 1,20,21
 225 653 225 653 222 650 c 0,22,23
 219 648 219 648 219 633 c 0,24,25
 219 619 219 619 216 616 c 0,26,27
 214 614 214 614 212 599 c 1,28,29
 212 585 212 585 208 577 c 128,-1,30
 204 569 204 569 205 553 c 0,31,32
 206 536 206 536 202 532 c 128,-1,33
 198 528 198 528 199 520 c 0,34,35
 200 514 200 514 192 508 c 0,36,37
 185 502 185 502 185 495 c 0,38,39
 185 491 185 491 188 485 c 1,40,41
 191 482 191 482 188 475 c 0,42,43
 185 470 185 470 185 415 c 0,44,45
 185 359 185 359 187 356 c 0,46,47
 190 347 190 347 190 342 c 1,48,49
 192 333 192 333 188 329 c 0,50,51
 184 324 184 324 184 297 c 0,52,53
 185 269 185 269 189 261 c 1,54,55
 193 249 193 249 193 243 c 0,56,57
 193 235 193 235 197 229 c 0,58,59
 200 223 200 223 199 214 c 0,60,61
 198 203 198 203 203 194 c 0,62,63
 209 185 209 185 206 183 c 0,64,65
 206 182 206 182 205.5 177 c 128,-1,66
 205 172 205 172 205 169 c 0,67,68
 205 159 205 159 208 153 c 1,69,70
 213 147 213 147 214 130 c 0,71,72
 215 127 215 127 216.5 118 c 128,-1,73
 218 109 218 109 219 107 c 0,74,75
 222 103 222 103 222 95 c 0,76,77
 222 89 222 89 226 83 c 0,78,79
 229 79 229 79 229 75 c 128,-1,80
 229 71 229 71 232 68 c 1,81,82
 235 62 235 62 235 59 c 0,83,84
 235 53 235 53 238 47 c 0,85,86
 242 39 242 39 242 34 c 0,87,88
 242 33 242 33 243 28 c 128,-1,89
 244 23 244 23 245 21 c 0,90,91
 248 13 248 13 247 2 c 0,92,93
 245 -10 245 -10 249 -14 c 0,94,95
 254 -19 254 -19 254 -24 c 1,96,97
 253 -27 253 -27 256 -33 c 1,98,99
 260 -37 260 -37 260 -43 c 1,100,101
 262 -51 262 -51 265 -57 c 0,102,103
 268 -62 268 -62 268 -73 c 0,104,105
 268 -86 268 -86 267 -88 c 0,106,107
 265 -91 265 -91 262 -93 c 0,108,109
 260 -94 260 -94 243 -94 c 1,110,111
 227 -93 227 -93 225 -89 c 1,112,113
 219 -86 219 -86 218 -86 c 0,114,115
 214 -86 214 -86 212 -84 c 0,116,117
 211 -83 211 -83 210 -78 c 1,118,119
 207 -72 207 -72 206 -69 c 2,120,-1
 200 -51 l 1,121,-1
 194 -42 l 2,122,123
 191 -39 191 -39 191 -34 c 0,124,125
 191 -31 191 -31 187 -23 c 0,126,127
 187 -22 187 -22 183.5 -14 c 128,-1,128
 180 -6 180 -6 178 -2 c 0,129,130
 175 6 175 6 171 18 c 0,131,132
 169 24 169 24 164 34 c 0,133,134
 162 37 162 37 158.5 44 c 128,-1,135
 155 51 155 51 154 53 c 0,136,137
 149 61 149 61 149 67 c 1,138,-1
 148 72 l 2,139,140
 146 78 146 78 145 80 c 0,141,142
 141 90 141 90 141 94 c 0,143,144
 141 101 141 101 137 106 c 1,145,146
 133 114 133 114 133 119 c 2,147,-1
 130 134 l 2,148,149
 129 136 129 136 127 142.5 c 128,-1,150
 125 149 125 149 124 151 c 0,151,152
 120 159 120 159 120 166 c 1,153,154
 118 175 118 175 116 177 c 0,155,156
 113 180 113 180 113 193 c 128,-1,157
 113 206 113 206 110 213 c 0,158,159
 106 220 106 220 107 233 c 0,160,161
 107 246 107 246 103 250 c 0,162,163
 99 255 99 255 99 272 c 0,164,165
 98 291 98 291 95 296 c 0,166,167
 92 300 92 300 91 326 c 0,168,169
 91 352 91 352 89 356 c 0,170,171
 88 360 88 360 88 363 c 0,172,173
 88 370 88 370 93 375 c 1,174,175
 98 378 98 378 98 384 c 0,176,177
 98 399 98 399 99 412 c 1,178,-1
 99 457 l 2,179,180
 99 478 99 478 105 491 c 0,181,182
 106 494 106 494 108 499 c 128,-1,183
 110 504 110 504 110 505 c 0,184,185
 110 509 110 509 115 517 c 1,186,187
 119 526 119 526 120 539 c 0,188,189
 120 549 120 549 123 555 c 0,190,191
 125 557 125 557 127 566 c 0,192,193
 128 571 128 571 131 577 c 0,194,195
 133 579 133 579 133 586 c 0,196,197
 133 596 133 596 138 603 c 0,198,199
 144 613 144 613 142 616 c 1,200,201
 142 622 142 622 144 624 c 1,202,203
 144 626 144 626 145.5 628 c 128,-1,204
 147 630 147 630 147 631 c 0,205,206
 147 634 147 634 151 644 c 0,207,208
 156 654 156 654 154 658 c 1,209,210
 154 663 154 663 156 665 c 2,211,-1
 159 670 l 2,212,213
 162 675 162 675 163 678 c 0,214,215
 168 688 168 688 168 695 c 128,-1,216
 168 702 168 702 171 707 c 1,217,218
 175 711 175 711 175 719 c 128,-1,219
 175 727 175 727 177 729 c 0,220,221
 180 731 180 731 184 740 c 0,222,223
 186 743 186 743 188 749 c 128,-1,224
 190 755 190 755 191 756 c 0,225,226
 193 764 193 764 195 766 c 0,227,228
 198 768 198 768 198 772 c 0,229,230
 198 777 198 777 210 789 c 1,231,232
 226 803 226 803 230 804 c 0,233,234
 240 806 240 806 241 807 c 1,0,-1
EndSplineSet
Validated: 1
EndChar

StartChar: uni0029
Encoding: 41 41 12
Width: 299
GlyphClass: 2
Flags: W
LayerCount: 2
Fore
SplineSet
65 812 m 1,0,1
 71 812 71 812 72 813 c 1,2,3
 76 813 76 813 86 808 c 0,4,5
 95 804 95 804 102 797 c 1,6,-1
 106 791 l 1,7,-1
 110 783 l 1,8,9
 114 779 114 779 114 775 c 1,10,11
 113 774 113 774 117 767 c 1,12,13
 121 763 121 763 121 754 c 0,14,15
 121 746 121 746 125 740 c 0,16,17
 128 734 128 734 128 729 c 128,-1,18
 128 724 128 724 133 717 c 1,19,20
 135 712 135 712 138 703 c 1,21,22
 138 697 138 697 144 689 c 0,23,24
 149 681 149 681 149 675 c 0,25,26
 149 670 149 670 153 664 c 0,27,28
 157 656 157 656 157 652 c 0,29,30
 157 647 157 647 159 643 c 1,31,32
 162 642 162 642 162 636 c 0,33,34
 162 632 162 632 165 629 c 0,35,36
 168 627 168 627 170 616 c 1,37,38
 173 606 173 606 171 602 c 1,39,40
 171 598 171 598 175 593 c 0,41,42
 179 589 179 589 179 582 c 1,43,44
 177 576 177 576 180 573 c 128,-1,45
 183 570 183 570 183 565 c 128,-1,46
 183 560 183 560 188 552 c 0,47,48
 193 545 193 545 192 535 c 0,49,50
 191 528 191 528 194 523 c 0,51,52
 196 521 196 521 198 509 c 1,53,54
 198 500 198 500 202 494 c 0,55,56
 205 491 205 491 205 485 c 0,57,58
 205 480 205 480 209 474 c 0,59,60
 212 468 212 468 211 450 c 1,61,62
 211 430 211 430 215 424 c 1,63,64
 218 417 218 417 216 414 c 0,65,66
 214 410 214 410 214 400 c 1,67,68
 213 393 213 393 215 386 c 1,69,70
 218 382 218 382 218 368 c 2,71,-1
 218 347 l 2,72,73
 218 338 218 338 215 334 c 0,74,75
 211 329 211 329 211 321 c 2,76,-1
 211 299 l 2,77,78
 211 284 211 284 208 270 c 0,79,80
 204 256 204 256 204 247 c 128,-1,81
 204 238 204 238 201 235 c 128,-1,82
 198 232 198 232 198 218 c 1,83,84
 196 203 196 203 195 199 c 0,85,86
 192 193 192 193 192 188 c 0,87,88
 192 184 192 184 188 176 c 0,89,90
 185 168 185 168 187 165 c 1,91,92
 187 160 187 160 186 158 c 0,93,94
 186 157 186 157 185.5 154 c 128,-1,95
 185 151 185 151 185 150 c 0,96,97
 185 146 185 146 181 132 c 128,-1,98
 177 118 177 118 172 113 c 1,99,100
 167 105 167 105 168 100 c 0,101,102
 169 93 169 93 164 87 c 0,103,104
 159 82 159 82 157 76 c 1,105,106
 154 72 154 72 156 61 c 0,107,108
 157 51 157 51 153 46 c 0,109,110
 149 40 149 40 149 37 c 0,111,112
 149 33 149 33 146 27 c 0,113,114
 142 21 142 21 142 16 c 0,115,116
 142 10 142 10 139 10 c 1,117,118
 135 8 135 8 134 3 c 0,119,120
 134 -1 134 -1 131 -4 c 0,121,122
 128 -6 128 -6 128 -10 c 128,-1,123
 128 -14 128 -14 124 -18 c 0,124,125
 120 -21 120 -21 120 -29 c 0,126,127
 120 -36 120 -36 117 -41 c 0,128,129
 114 -47 114 -47 114 -50 c 1,130,131
 112 -55 112 -55 108 -57 c 0,132,133
 101 -62 101 -62 93 -71 c 0,134,135
 83 -83 83 -83 74 -83 c 0,136,137
 66 -83 66 -83 58 -73 c 1,138,139
 49 -64 49 -64 49 -60 c 128,-1,140
 49 -56 49 -56 53 -52 c 0,141,142
 56 -49 56 -49 56 -43 c 0,143,144
 56 -36 56 -36 60 -32 c 0,145,146
 62 -29 62 -29 66 -21 c 2,147,-1
 72 -9 l 2,148,149
 76 -1 76 -1 76 5 c 0,150,151
 76 13 76 13 78 19 c 2,152,-1
 85 33 l 2,153,154
 86 36 86 36 88.5 42 c 128,-1,155
 91 48 91 48 91 49 c 0,156,157
 91 60 91 60 90 66 c 0,158,159
 88 78 88 78 92 81 c 0,160,161
 97 85 97 85 97 94 c 1,162,163
 99 108 99 108 101 111 c 0,164,165
 104 117 104 117 104 124 c 0,166,167
 104 129 104 129 108 139 c 0,168,169
 112 148 112 148 111 155 c 1,170,171
 111 163 111 163 113 165 c 0,172,173
 115 169 115 169 117 175 c 0,174,175
 118 179 118 179 118 194 c 0,176,177
 118 206 118 206 122 213 c 0,178,179
 126 222 126 222 126 265 c 0,180,181
 126 309 126 309 130 318 c 0,182,183
 133 327 133 327 132 346 c 1,184,-1
 132 372 l 2,185,186
 132 380 132 380 133 385 c 0,187,188
 134 394 134 394 130 400 c 0,189,190
 125 406 125 406 126 423 c 1,191,192
 126 443 126 443 125 445 c 0,193,194
 124 448 124 448 126 459 c 0,195,196
 127 468 127 468 123 476 c 1,197,198
 118 483 118 483 118 500 c 0,199,200
 118 516 118 516 115 522 c 0,201,202
 111 528 111 528 111 545 c 1,203,204
 110 550 110 550 107 578 c 1,205,206
 103 598 103 598 101 601 c 1,207,208
 98 613 98 613 98 615 c 0,209,210
 96 623 96 623 94 625 c 0,211,212
 91 629 91 629 90 640 c 1,213,214
 90 653 90 653 86 664 c 0,215,216
 81 676 81 676 81 679 c 128,-1,217
 81 682 81 682 78 685 c 128,-1,218
 75 688 75 688 76 698 c 0,219,220
 77 709 77 709 73 713 c 1,221,222
 67 716 67 716 67 724 c 1,223,224
 66 726 66 726 65 732 c 128,-1,225
 64 738 64 738 64 740 c 0,226,227
 62 751 62 751 58 756 c 1,228,229
 55 762 55 762 55 770 c 0,230,231
 55 775 55 775 51 779 c 0,232,233
 48 782 48 782 48 789 c 128,-1,234
 48 796 48 796 50 800 c 0,235,236
 54 807 54 807 57 808 c 2,237,-1
 65 812 l 1,0,1
EndSplineSet
Validated: 1
EndChar

StartChar: uni002A
Encoding: 42 42 13
Width: 585
GlyphClass: 2
Flags: W
LayerCount: 2
Fore
SplineSet
356 721 m 0,0,1
 360 723 360 723 363 723 c 0,2,3
 368 723 368 723 371 720 c 0,4,5
 377 716 377 716 381 716 c 0,6,7
 386 716 386 716 388 714 c 128,-1,8
 390 712 390 712 390 709 c 1,9,10
 392 706 392 706 397 702 c 0,11,12
 404 698 404 698 405 695 c 0,13,14
 408 690 408 690 406 684 c 1,15,16
 406 677 406 677 399 668 c 1,17,18
 394 659 394 659 387 654 c 0,19,20
 381 650 381 650 379 643 c 0,21,22
 377 639 377 639 368 630 c 0,23,24
 361 624 361 624 353 613 c 1,25,26
 346 600 346 600 344 592 c 0,27,28
 343 587 343 587 343 579 c 1,29,30
 345 574 345 574 348 572 c 0,31,32
 352 570 352 570 372 570 c 0,33,34
 393 570 393 570 397 568 c 1,35,36
 402 567 402 567 407 572 c 1,37,38
 413 576 413 576 438 577 c 128,-1,39
 463 578 463 578 468 574 c 0,40,41
 473 571 473 571 475 566 c 0,42,43
 477 560 477 560 477 544 c 0,44,45
 477 527 477 527 472 521 c 0,46,47
 467 514 467 514 462 514 c 1,48,49
 456 512 456 512 452 512 c 0,50,51
 447 511 447 511 435 515 c 0,52,53
 422 520 422 520 417 518 c 0,54,55
 410 516 410 516 409 517 c 128,-1,56
 408 518 408 518 408 521 c 0,57,58
 408 522 408 522 405 525 c 0,59,60
 403 526 403 526 380 526 c 1,61,62
 354 524 354 524 352 524 c 0,63,64
 345 523 345 523 344 517 c 0,65,66
 342 511 342 511 344 504 c 1,67,68
 344 497 344 497 348 491 c 0,69,70
 350 488 350 488 353 481 c 0,71,72
 355 476 355 476 363 471 c 1,73,74
 370 465 370 465 370 458 c 0,75,76
 370 450 370 450 372 448 c 0,77,78
 375 445 375 445 381 442 c 0,79,80
 389 438 389 438 391 433 c 128,-1,81
 393 428 393 428 398 421 c 0,82,83
 404 413 404 413 404 412 c 0,84,85
 404 409 404 409 401 406 c 1,86,87
 399 401 399 401 400 400 c 1,88,89
 400 397 400 397 399 395 c 0,90,91
 397 391 397 391 392 389 c 0,92,93
 388 387 388 387 382 387 c 0,94,95
 377 387 377 387 373 385 c 128,-1,96
 369 383 369 383 365 383 c 0,97,98
 360 383 360 383 355 391 c 2,99,-1
 350 399 l 2,100,101
 350 400 350 400 345 407 c 0,102,103
 341 413 341 413 341 416 c 0,104,105
 341 420 341 420 338 425 c 1,106,-1
 333 440 l 1,107,108
 327 452 327 452 325 454 c 0,109,110
 320 460 320 460 321 465 c 1,111,-1
 321 472 l 1,112,113
 318 477 318 477 312 482 c 0,114,115
 304 488 304 488 295 489 c 0,116,117
 286 491 286 491 282 488 c 0,118,119
 278 484 278 484 273 474 c 1,120,121
 269 463 269 463 264 454 c 1,122,123
 260 444 260 444 260 442 c 0,124,125
 260 441 260 441 256 433 c 0,126,127
 250 421 250 421 248 415 c 0,128,129
 244 402 244 402 240 397 c 0,130,131
 235 390 235 390 228 385 c 1,132,133
 222 379 222 379 220 379 c 0,134,135
 219 379 219 379 215 383 c 1,136,137
 214 386 214 386 207 386 c 0,138,139
 202 386 202 386 196 392 c 0,140,141
 192 395 192 395 187 400 c 1,142,143
 184 406 184 406 184 407 c 128,-1,144
 184 408 184 408 183.5 411 c 128,-1,145
 183 414 183 414 182 415 c 0,146,147
 180 417 180 417 195 433 c 1,148,149
 209 450 209 450 210 455 c 0,150,151
 212 461 212 461 219 465 c 1,152,153
 227 472 227 472 229 478 c 1,154,155
 230 486 230 486 233 488 c 0,156,157
 234 489 234 489 236.5 490.5 c 128,-1,158
 239 492 239 492 240 493 c 0,159,160
 243 494 243 494 243 508 c 128,-1,161
 243 522 243 522 242 523 c 0,162,163
 240 525 240 525 227 529 c 0,164,165
 215 532 215 532 210 530 c 128,-1,166
 205 528 205 528 187 526 c 1,167,168
 168 526 168 526 162 524 c 1,169,170
 156 524 156 524 152 522 c 128,-1,171
 148 520 148 520 141 520 c 128,-1,172
 134 520 134 520 128 522 c 128,-1,173
 122 524 122 524 119 533 c 0,174,175
 116 541 116 541 112 545 c 1,176,177
 110 549 110 549 110 555 c 0,178,179
 110 558 110 558 110 562 c 0,180,181
 112 576 112 576 114 578 c 0,182,183
 117 581 117 581 123 583 c 1,184,-1
 134 584 l 1,185,186
 146 584 146 584 154 584 c 0,187,188
 176 584 176 584 185 581 c 1,189,190
 192 577 192 577 212 578 c 0,191,192
 233 580 233 580 234 582 c 0,193,194
 235 583 235 583 235 592 c 0,195,196
 235 602 235 602 232 610 c 0,197,198
 228 620 228 620 225 624 c 0,199,200
 224 625 224 625 222 628 c 128,-1,201
 220 631 220 631 219 632 c 0,202,203
 219 633 219 633 217 637 c 128,-1,204
 215 641 215 641 214 643 c 0,205,206
 213 644 213 644 210 648.5 c 128,-1,207
 207 653 207 653 206 654 c 0,208,209
 202 662 202 662 201 665 c 0,210,211
 199 670 199 670 196 675 c 1,212,213
 193 678 193 678 187 686 c 1,214,215
 181 692 181 692 181 694 c 0,216,217
 181 695 181 695 189 703 c 128,-1,218
 197 711 197 711 206 714 c 1,219,220
 216 716 216 716 222 716 c 0,221,222
 229 716 229 716 230 712 c 0,223,224
 233 706 233 706 236 702 c 0,225,226
 241 697 241 697 241 694 c 0,227,228
 241 693 241 693 247 685 c 128,-1,229
 253 677 253 677 253 673 c 128,-1,230
 253 669 253 669 257 665 c 0,231,232
 262 658 262 658 263 652 c 1,233,234
 267 642 267 642 269 640 c 128,-1,235
 271 638 271 638 275 630 c 0,236,237
 279 623 279 623 282 621 c 0,238,239
 286 618 286 618 298 618 c 0,240,241
 310 619 310 619 311 623 c 0,242,243
 311 627 311 627 318 634 c 0,244,245
 324 640 324 640 326 646 c 1,246,247
 326 653 326 653 330 655 c 1,248,249
 333 661 333 661 333 665 c 0,250,251
 333 667 333 667 334 670 c 1,252,-1
 334 674 l 2,253,254
 334 675 334 675 338 681 c 1,255,256
 343 686 343 686 343 692 c 128,-1,257
 343 698 343 698 345 702 c 1,258,259
 348 705 348 705 348 708 c 128,-1,260
 348 711 348 711 350 715 c 0,261,262
 351 719 351 719 356 721 c 0,0,1
EndSplineSet
Validated: 1
EndChar

StartChar: uni002B
Encoding: 43 43 14
Width: 689
GlyphClass: 2
Flags: W
LayerCount: 2
Fore
SplineSet
341 570 m 2,0,-1
 354 570 l 2,1,2
 357 570 357 570 359 570 c 0,3,4
 365 570 365 570 368 566 c 1,5,6
 372 564 372 564 376 557 c 1,7,8
 380 553 380 553 382 543 c 0,9,10
 383 536 383 536 382 532 c 0,11,12
 380 528 380 528 380 523 c 128,-1,13
 380 518 380 518 382 512 c 0,14,15
 383 508 383 508 379 500 c 128,-1,16
 375 492 375 492 374 469 c 0,17,18
 374 452 374 452 374.5 448.5 c 128,-1,19
 375 445 375 445 378 443 c 0,20,21
 383 438 383 438 380 431 c 1,22,-1
 376 411 l 1,23,24
 375 398 375 398 377 394 c 1,25,26
 380 391 380 391 380 387 c 128,-1,27
 380 383 380 383 377 380 c 0,28,29
 374 376 374 376 375 369 c 0,30,31
 376 364 376 364 375 358 c 1,32,33
 373 353 373 353 376 345 c 0,34,35
 381 333 381 333 381 331 c 0,36,37
 384 325 384 325 388 325 c 1,38,39
 395 323 395 323 399 320 c 0,40,41
 403 316 403 316 405 316 c 2,42,-1
 411 319 l 1,43,44
 416 323 416 323 432 323 c 128,-1,45
 448 323 448 323 452 325 c 0,46,47
 456 328 456 328 466 325 c 1,48,49
 473 324 473 324 480 320 c 0,50,51
 484 318 484 318 501 316 c 1,52,53
 517 316 517 316 519 320 c 0,54,55
 521 323 521 323 526 323.5 c 128,-1,56
 531 324 531 324 558 324 c 1,57,58
 595 322 595 322 598 321 c 0,59,60
 603 319 603 319 605 314 c 1,61,62
 607 312 607 312 607 305 c 0,63,64
 607 301 607 301 606 294 c 0,65,66
 604 276 604 276 604 274 c 1,67,68
 602 271 602 271 599 269 c 0,69,70
 593 267 593 267 592 267 c 0,71,72
 590 267 590 267 584 263 c 128,-1,73
 578 259 578 259 535 259 c 0,74,75
 495 259 495 259 485 257 c 0,76,77
 479 255 479 255 472 257 c 0,78,79
 462 259 462 259 428 259 c 0,80,81
 390 259 390 259 386 257 c 0,82,83
 382 256 382 256 382 249 c 0,84,85
 382 243 382 243 380 239 c 128,-1,86
 378 235 378 235 380 230 c 0,87,88
 381 229 381 229 381 217 c 128,-1,89
 381 205 381 205 380 189 c 1,90,-1
 380 146 l 1,91,92
 381 144 381 144 381 110 c 1,93,94
 379 78 379 78 378 77 c 0,95,96
 376 73 376 73 376 70 c 0,97,98
 376 69 376 69 374 61 c 1,99,100
 374 53 374 53 375 50 c 1,101,-1
 375 37 l 2,102,103
 375 29 375 29 370 28 c 0,104,105
 365 26 365 26 360 23 c 1,106,107
 354 21 354 21 340 21 c 0,108,109
 335 21 335 21 332 21 c 0,110,111
 326 21 326 21 321 24 c 1,112,113
 316 31 316 31 315 36 c 0,114,115
 314 40 314 40 311 49 c 0,116,117
 309 55 309 55 309 70 c 1,118,119
 308 78 308 78 308 89 c 2,120,-1
 308 100 l 2,121,122
 308 111 308 111 308.5 129 c 128,-1,123
 309 147 309 147 309 164 c 0,124,125
 309 187 309 187 309 202 c 0,126,127
 309 234 309 234 307 240 c 0,128,129
 306 245 306 245 300 251 c 128,-1,130
 294 257 294 257 290 258 c 0,131,132
 288 259 288 259 284 261 c 2,133,-1
 281 263 l 2,134,135
 276 266 276 266 253 266 c 0,136,137
 245 266 245 266 231 265.5 c 128,-1,138
 217 265 217 265 213 265 c 2,139,-1
 180 265 l 1,140,141
 166 266 166 266 163 265.5 c 128,-1,142
 160 265 160 265 156 261 c 0,143,144
 150 256 150 256 140 258 c 0,145,146
 129 260 129 260 125 264 c 1,147,148
 118 267 118 267 111 266 c 0,149,150
 103 265 103 265 95 273 c 128,-1,151
 87 281 87 281 85 290 c 0,152,153
 84 296 84 296 84 297 c 0,154,155
 84 300 84 300 87 302 c 0,156,157
 89 304 89 304 92 310 c 1,158,159
 93 315 93 315 103 316 c 0,160,161
 113 318 113 318 119 320 c 0,162,163
 125 323 125 323 155 324 c 0,164,165
 182 324 182 324 186 326 c 1,166,167
 189 326 189 326 195 323 c 128,-1,168
 201 320 201 320 211 318 c 1,169,170
 223 318 223 318 225 319 c 0,171,172
 229 322 229 322 234 318 c 0,173,174
 237 316 237 316 262 316 c 1,175,176
 285 317 285 317 290 321 c 0,177,178
 294 325 294 325 296 325 c 128,-1,179
 298 325 298 325 304 329 c 0,180,181
 310 334 310 334 310 338 c 128,-1,182
 310 342 310 342 313 345 c 0,183,184
 317 349 317 349 317 428 c 2,185,-1
 317 514 l 1,186,-1
 316 522 l 1,187,188
 316 531 316 531 316 536 c 0,189,190
 315 551 315 551 317 558 c 1,191,192
 320 564 320 564 328 566 c 0,193,194
 331 567 331 567 335.5 568.5 c 128,-1,195
 340 570 340 570 341 570 c 2,0,-1
EndSplineSet
Validated: 1
EndChar

StartChar: uni002C
Encoding: 44 44 15
Width: 313
GlyphClass: 2
Flags: W
LayerCount: 2
Fore
SplineSet
164 115 m 0,0,1
 170 117 170 117 171 117 c 0,2,3
 175 116 175 116 180 115 c 0,4,5
 186 113 186 113 193 109 c 0,6,7
 199 105 199 105 202 105 c 128,-1,8
 205 105 205 105 205 103 c 0,9,10
 205 102 205 102 207 90 c 0,11,12
 207 85 207 85 207 84 c 0,13,14
 207 80 207 80 201 74 c 0,15,16
 194 67 194 67 193 59 c 0,17,18
 192 53 192 53 188 47 c 1,19,20
 183 44 183 44 183 41 c 0,21,22
 183 39 183 39 185 35 c 128,-1,23
 187 31 187 31 184 28 c 0,24,25
 180 22 180 22 175 9 c 0,26,27
 170 -2 170 -2 168 -11 c 1,28,29
 164 -19 164 -19 161 -20 c 1,30,31
 157 -24 157 -24 157 -32 c 128,-1,32
 157 -40 157 -40 153 -43 c 0,33,34
 150 -46 150 -46 150 -53 c 0,35,36
 150 -55 150 -55 147 -64 c 1,37,38
 144 -67 144 -67 142 -71 c 0,39,40
 142 -73 142 -73 136 -89 c 0,41,42
 131 -104 131 -104 122 -111 c 0,43,44
 120 -113 120 -113 115 -117.5 c 128,-1,45
 110 -122 110 -122 109 -123 c 0,46,47
 105 -127 105 -127 102 -127 c 0,48,49
 100 -127 100 -127 95 -126 c 1,50,51
 87 -126 87 -126 77 -121 c 128,-1,52
 67 -116 67 -116 67 -108 c 0,53,54
 67 -101 67 -101 69 -93 c 0,55,56
 72 -75 72 -75 72 -70 c 0,57,58
 74 -58 74 -58 76 -56 c 0,59,60
 79 -50 79 -50 79 -44 c 0,61,62
 79 -35 79 -35 83 -31 c 1,63,64
 85 -25 85 -25 89 -23 c 0,65,66
 93 -20 93 -20 93 12 c 0,67,68
 93 45 93 45 96 49 c 0,69,70
 99 52 99 52 99 60 c 0,71,72
 99 65 99 65 105 74 c 0,73,74
 108 78 108 78 114 87 c 0,75,76
 118 93 118 93 124 99 c 1,77,78
 133 105 133 105 142 106 c 0,79,80
 154 108 154 108 155 110 c 1,81,82
 161 113 161 113 164 115 c 0,0,1
EndSplineSet
Validated: 1
EndChar

StartChar: uni002D
Encoding: 45 45 16
Width: 210
GlyphClass: 2
Flags: W
LayerCount: 2
Fore
SplineSet
169 307 m 0,0,1
 171 307 171 307 172 307 c 0,2,3
 177 307 177 307 180 304 c 0,4,5
 186 300 186 300 188 300 c 0,6,7
 192 300 192 300 196 291 c 1,8,9
 201 283 201 283 201 271.5 c 128,-1,10
 201 260 201 260 197 251 c 0,11,12
 194 243 194 243 186 239 c 1,13,14
 179 234 179 234 171 234 c 0,15,16
 169 234 169 234 167 234 c 0,17,18
 163 234 163 234 160 235 c 0,19,20
 157 237 157 237 138 235 c 0,21,22
 130 234 130 234 113 234 c 0,23,24
 95 234 95 234 78 235 c 0,25,26
 68 235 68 235 57 235 c 0,27,28
 51 235 51 235 45 235 c 128,-1,29
 39 235 39 235 35.5 235 c 128,-1,30
 32 235 32 235 31 235 c 0,31,32
 28 234 28 234 26 234 c 0,33,34
 23 234 23 234 20 236 c 0,35,36
 15 239 15 239 13 244 c 0,37,38
 10 252 10 252 10 270 c 128,-1,39
 10 288 10 288 12 292 c 0,40,41
 15 296 15 296 23 298 c 0,42,43
 29 299 29 299 61 299 c 0,44,45
 75 299 75 299 90 299 c 0,46,47
 150 299 150 299 156 303 c 0,48,49
 164 307 164 307 169 307 c 0,0,1
EndSplineSet
Validated: 1
EndChar

StartChar: uni002E
Encoding: 46 46 17
Width: 399
GlyphClass: 2
Flags: W
LayerCount: 2
Fore
SplineSet
195 134 m 1,0,-1
 209 134 l 2,1,2
 216 134 216 134 220 130 c 0,3,4
 223 127 223 127 233 127 c 1,5,6
 236 126 236 126 241 126 c 2,7,-1
 246 126 l 1,8,9
 247 125 247 125 253 113 c 0,10,11
 258 103 258 103 258 69 c 128,-1,12
 258 35 258 35 255 30 c 0,13,14
 252 24 252 24 247 22 c 0,15,16
 246 22 246 22 240 19.5 c 128,-1,17
 234 17 234 17 231 16 c 0,18,19
 224 13 224 13 220 13 c 0,20,21
 218 13 218 13 211 14 c 0,22,23
 197 16 197 16 191 15 c 1,24,25
 180 15 180 15 176 17 c 0,26,27
 175 18 175 18 171 19 c 128,-1,28
 167 20 167 20 166 20 c 0,29,30
 160 22 160 22 156 26 c 0,31,32
 151 33 151 33 150 38 c 0,33,34
 148 45 148 45 145 48 c 0,35,36
 143 51 143 51 143 53 c 0,37,38
 143 54 143 54 144 57 c 0,39,40
 145 63 145 63 144 82 c 0,41,42
 143 92 143 92 143 97 c 0,43,44
 143 103 143 103 147 110 c 0,45,46
 150 117 150 117 156 123 c 0,47,48
 161 128 161 128 170 128 c 128,-1,49
 179 128 179 128 183 130 c 128,-1,50
 187 132 187 132 195 134 c 1,0,-1
EndSplineSet
Validated: 1
EndChar

StartChar: uni002F
Encoding: 47 47 18
Width: 273
GlyphClass: 2
Flags: W
LayerCount: 2
Fore
SplineSet
275 787 m 1,0,1
 277 790 277 790 278 790 c 128,-1,2
 279 790 279 790 285 788 c 0,3,4
 289 786 289 786 293 782 c 0,5,6
 297 779 297 779 297 767 c 0,7,8
 297 756 297 756 294 753 c 0,9,10
 291 751 291 751 289 741 c 0,11,12
 288 732 288 732 285 727 c 0,13,14
 282 723 282 723 282 717 c 0,15,16
 282 713 282 713 275 706 c 1,17,18
 269 698 269 698 269 697 c 0,19,20
 269 693 269 693 266 688 c 0,21,22
 262 680 262 680 262 675 c 0,23,24
 262 668 262 668 266 664 c 1,25,26
 269 659 269 659 266 656 c 0,27,28
 265 655 265 655 260 642 c 0,29,30
 258 636 258 636 258 629 c 1,31,32
 260 628 260 628 253 621 c 128,-1,33
 246 614 246 614 246 612 c 0,34,35
 246 611 246 611 242 603 c 0,36,37
 238 596 238 596 239 593 c 0,38,39
 241 589 241 589 241 587 c 0,40,41
 241 586 241 586 237 578 c 1,42,43
 232 573 232 573 232 561 c 0,44,45
 232 547 232 547 229 543 c 0,46,47
 225 536 225 536 226 528 c 128,-1,48
 227 520 227 520 224 515 c 0,49,50
 220 509 220 509 220 508 c 0,51,52
 220 506 220 506 216 502 c 1,53,54
 211 499 211 499 211 494 c 0,55,56
 211 491 211 491 208 485 c 0,57,58
 205 476 205 476 205 473 c 0,59,60
 205 465 205 465 201 461 c 0,61,62
 198 457 198 457 198 448 c 0,63,64
 199 439 199 439 197 437 c 1,65,66
 194 436 194 436 194 433 c 0,67,68
 194 432 194 432 190 426 c 1,69,70
 186 422 186 422 184 414 c 0,71,72
 183 407 183 407 180 402 c 0,73,74
 176 397 176 397 173 388 c 128,-1,75
 170 379 170 379 170 373 c 0,76,77
 171 367 171 367 165 358 c 2,78,-1
 159 348 l 2,79,80
 157 344 157 344 154 341 c 1,81,82
 150 333 150 333 150 322 c 0,83,84
 150 309 150 309 147 306 c 0,85,86
 147 305 147 305 145 300.5 c 128,-1,87
 143 296 143 296 142 294 c 0,88,89
 140 286 140 286 137 280 c 0,90,91
 136 276 136 276 131 269 c 0,92,93
 127 263 127 263 127 261 c 0,94,95
 127 258 127 258 123 250 c 0,96,97
 120 242 120 242 121 237 c 1,98,99
 121 230 121 230 118 227 c 128,-1,100
 115 224 115 224 115 216 c 0,101,102
 115 209 115 209 110 205 c 0,103,104
 106 201 106 201 106 194 c 0,105,106
 106 188 106 188 104 186 c 0,107,108
 102 185 102 185 100 176 c 0,109,110
 98 166 98 166 95 161 c 1,111,112
 90 156 90 156 90 153 c 0,113,114
 90 149 90 149 87 144 c 0,115,116
 84 138 84 138 81 135 c 1,117,118
 78 134 78 134 78 129 c 1,119,-1
 75 120 l 1,120,121
 71 115 71 115 71 103 c 0,122,123
 71 92 71 92 68 86 c 0,124,125
 65 82 65 82 63 75 c 0,126,127
 63 72 63 72 56 56 c 0,128,129
 50 44 50 44 50 36 c 1,130,131
 51 31 51 31 48 24 c 1,132,133
 44 18 44 18 44 13 c 0,134,135
 44 6 44 6 41 3 c 0,136,137
 37 -1 37 -1 37 -4 c 128,-1,138
 37 -7 37 -7 30 -16 c 1,139,140
 24 -22 24 -22 22 -30 c 1,141,142
 22 -36 22 -36 18 -44 c 0,143,144
 15 -50 15 -50 9 -56 c 0,145,146
 7 -57 7 -57 2.5 -59.5 c 128,-1,147
 -2 -62 -2 -62 -4 -63 c 0,148,149
 -8 -65 -8 -65 -9 -65 c 0,150,151
 -11 -65 -11 -65 -16 -61 c 1,152,153
 -22 -58 -22 -58 -23 -48 c 1,154,155
 -23 -35 -23 -35 -22 -28 c 0,156,157
 -21 -16 -21 -16 -15 -9 c 0,158,159
 -10 -2 -10 -2 -8 3 c 0,160,161
 -6 11 -6 11 -6 15 c 0,162,163
 -6 21 -6 21 -3 27 c 0,164,165
 1 34 1 34 0 40 c 0,166,167
 -1 47 -1 47 3 55 c 0,168,169
 8 63 8 63 8 69 c 128,-1,170
 8 75 8 75 15 91 c 0,171,172
 23 107 23 107 27 111 c 0,173,174
 32 116 32 116 34 124 c 0,175,176
 35 128 35 128 35 139 c 1,177,178
 34 148 34 148 37 151 c 128,-1,179
 40 154 40 154 42 163 c 0,180,181
 45 175 45 175 45 176 c 0,182,183
 46 180 46 180 52 186 c 1,184,185
 57 189 57 189 56 199 c 0,186,187
 55 208 55 208 59 218 c 0,188,189
 62 224 62 224 62 229 c 0,190,191
 62 230 62 230 65 236 c 1,192,193
 68 237 68 237 70 244 c 0,194,195
 72 250 72 250 77 260 c 0,196,197
 83 270 83 270 84 284 c 0,198,199
 86 300 86 300 89 304 c 0,200,201
 90 306 90 306 92.5 309 c 128,-1,202
 95 312 95 312 95 313 c 0,203,204
 99 314 99 314 99 325 c 128,-1,205
 99 336 99 336 102 342 c 0,206,207
 106 350 106 350 106 355 c 0,208,209
 106 357 106 357 109 366 c 1,210,211
 113 370 113 370 113 379 c 0,212,213
 113 387 113 387 115 389 c 1,214,215
 117 389 117 389 121 399 c 0,216,217
 125 411 125 411 124 413 c 0,218,219
 123 417 123 417 126 422 c 0,220,221
 127 423 127 423 129.5 428 c 128,-1,222
 132 433 132 433 134 435 c 0,223,224
 137 440 137 440 139 454 c 0,225,226
 140 464 140 464 147 471 c 0,227,228
 153 478 153 478 154 488 c 1,229,-1
 154 501 l 1,230,231
 153 503 153 503 157 516 c 0,232,233
 161 528 161 528 166 533 c 0,234,235
 170 537 170 537 173 543 c 0,236,237
 174 546 174 546 174 555 c 0,238,239
 174 562 174 562 178 566 c 1,240,241
 181 571 181 571 183 578 c 0,242,243
 184 582 184 582 187 591 c 0,244,245
 188 593 188 593 192 602 c 1,246,247
 196 606 196 606 196 609 c 0,248,249
 196 611 196 611 201 618 c 0,250,251
 206 624 206 624 205 632 c 0,252,253
 204 641 204 641 209 647 c 0,254,255
 214 654 214 654 216 661 c 0,256,257
 218 669 218 669 218 674 c 0,258,259
 218 681 218 681 222 685 c 0,260,261
 225 688 225 688 225 695 c 0,262,263
 225 698 225 698 228 707 c 128,-1,264
 231 716 231 716 232 720 c 1,265,266
 232 726 232 726 236 732 c 0,267,268
 239 738 239 738 239 751 c 0,269,270
 239 765 239 765 242 768 c 0,271,272
 244 771 244 771 247 771 c 128,-1,273
 250 771 250 771 257 778 c 128,-1,274
 264 785 264 785 268 785 c 0,275,276
 271 785 271 785 275 787 c 1,0,1
EndSplineSet
Validated: 1
EndChar

StartChar: uni0030
Encoding: 48 48 19
Width: 614
GlyphClass: 2
Flags: W
LayerCount: 2
Fore
SplineSet
315 752 m 0,0,1
 320 754 320 754 329 754 c 1,2,3
 331 753 331 753 337.5 752.5 c 128,-1,4
 344 752 344 752 347 752 c 0,5,6
 359 752 359 752 363 748 c 1,7,8
 368 745 368 745 372 746 c 1,9,10
 377 746 377 746 385 738 c 0,11,12
 392 732 392 732 395 731 c 128,-1,13
 398 730 398 730 408 731 c 0,14,15
 423 732 423 732 426 729 c 0,16,17
 430 725 430 725 436 723 c 0,18,19
 442 722 442 722 446 716 c 0,20,21
 448 713 448 713 462 701 c 0,22,23
 475 690 475 690 477 690 c 128,-1,24
 479 690 479 690 485 684 c 1,25,26
 490 677 490 677 492 672 c 0,27,28
 494 666 494 666 497 666 c 1,29,30
 500 664 500 664 502 654 c 1,31,32
 506 642 506 642 508 640 c 0,33,34
 511 637 511 637 511 623 c 0,35,36
 511 613 511 613 512.5 610 c 128,-1,37
 514 607 514 607 524 598 c 1,38,39
 536 589 536 589 540 580 c 1,40,41
 541 573 541 573 540 562 c 0,42,43
 538 548 538 548 539 542 c 1,44,45
 539 534 539 534 541 528 c 0,46,47
 542 526 542 526 542 520 c 1,48,49
 540 515 540 515 544 513 c 1,50,51
 546 509 546 509 546 503 c 0,52,53
 546 495 546 495 551 487 c 0,54,55
 555 480 555 480 555 469 c 2,56,-1
 555 455 l 1,57,-1
 555 441 l 2,58,59
 555 431 555 431 559 426 c 0,60,61
 562 423 562 423 562 419 c 0,62,63
 562 416 562 416 561 411 c 0,64,65
 561 410 561 410 561 402.5 c 128,-1,66
 561 395 561 395 561 389 c 0,67,68
 561 380 561 380 561 373 c 2,69,-1
 561 320 l 2,70,71
 561 297 561 297 557 289 c 0,72,73
 553 282 553 282 554 274 c 0,74,75
 555 270 555 270 555 259 c 0,76,77
 555 247 555 247 554 241 c 1,78,79
 554 232 554 232 550 226 c 1,80,81
 546 223 546 223 546 213 c 0,82,83
 546 204 546 204 544 196 c 0,84,85
 544 194 544 194 543 188.5 c 128,-1,86
 542 183 542 183 541 181 c 1,87,88
 541 176 541 176 536 169 c 0,89,90
 532 163 532 163 532 160 c 0,91,92
 532 156 532 156 531 155 c 1,93,94
 529 155 529 155 529 149 c 1,95,-1
 526 137 l 1,96,97
 520 128 520 128 517 125 c 0,98,99
 510 118 510 118 507 116 c 0,100,101
 502 113 502 113 500 106 c 0,102,103
 498 101 498 101 493 92 c 0,104,105
 491 88 491 88 476 71 c 0,106,107
 466 61 466 61 466 58 c 128,-1,108
 466 55 466 55 457 50 c 1,109,-1
 442 38 l 2,110,111
 436 32 436 32 434 34 c 0,112,113
 433 35 433 35 427 31 c 0,114,115
 423 28 423 28 412 26 c 1,116,117
 404 26 404 26 394 20 c 0,118,119
 385 15 385 15 380 13 c 0,120,121
 376 11 376 11 371 12 c 0,122,123
 364 14 364 14 359 13 c 0,124,125
 356 13 356 13 346 8 c 1,126,127
 342 4 342 4 338 4 c 0,128,129
 337 4 337 4 334 5 c 0,130,131
 324 8 324 8 310 6 c 1,132,133
 291 6 291 6 285 9 c 0,134,135
 278 13 278 13 259 13 c 0,136,137
 241 13 241 13 234 17 c 1,138,139
 230 21 230 21 224 21 c 0,140,141
 219 21 219 21 213 27 c 0,142,143
 206 34 206 34 202 34 c 0,144,145
 201 34 201 34 192 37 c 0,146,147
 188 38 188 38 182 41 c 0,148,149
 181 41 181 41 177 43 c 128,-1,150
 173 45 173 45 171 46 c 0,151,152
 170 46 170 46 165.5 49 c 128,-1,153
 161 52 161 52 160 53 c 0,154,155
 157 56 157 56 153 56 c 128,-1,156
 149 56 149 56 144 61 c 1,157,158
 138 65 138 65 136 72 c 1,159,160
 132 80 132 80 127 85 c 0,161,162
 121 91 121 91 117 91 c 1,163,164
 114 92 114 92 114 95 c 0,165,166
 114 99 114 99 115 100 c 0,167,168
 116 102 116 102 113 107 c 1,169,-1
 105 115 l 1,170,171
 99 123 99 123 98 131 c 1,172,173
 94 142 94 142 89 151 c 0,174,175
 82 163 82 163 82 168 c 1,176,177
 79 177 79 177 78 178 c 0,178,179
 78 179 78 179 75 189 c 2,180,-1
 72 204 l 2,181,182
 72 206 72 206 71 211 c 128,-1,183
 70 216 70 216 69 218 c 0,184,185
 67 222 67 222 67 233 c 2,186,-1
 67 247 l 1,187,-1
 67 266 l 2,188,189
 67 276 67 276 63 282 c 0,190,191
 60 286 60 286 60 327 c 0,192,193
 60 365 60 365 58 377 c 0,194,195
 56 391 56 391 55 393 c 0,196,197
 53 399 53 399 53 422 c 0,198,199
 53 430 53 430 53.5 441.5 c 128,-1,200
 54 453 54 453 54 454 c 0,201,202
 54 456 54 456 56 460.5 c 128,-1,203
 58 465 58 465 58 467 c 0,204,205
 60 473 60 473 57 480 c 0,206,207
 53 489 53 489 57 497 c 0,208,209
 62 507 62 507 61 518 c 1,210,211
 61 531 61 531 65 538 c 1,212,213
 69 548 69 548 69 555 c 0,214,215
 69 564 69 564 71 568 c 1,216,217
 74 571 74 571 74 582 c 0,218,219
 74 594 74 594 78 599 c 0,220,221
 83 604 83 604 83 607 c 128,-1,222
 83 610 83 610 86 617 c 0,223,224
 90 625 90 625 92 627 c 0,225,226
 94 628 94 628 98 639 c 0,227,228
 101 648 101 648 106 653 c 1,229,230
 111 656 111 656 111 659 c 128,-1,231
 111 662 111 662 116 667 c 1,232,233
 121 674 121 674 121 675 c 0,234,235
 121 678 121 678 132 687 c 1,236,-1
 153 707 l 1,237,238
 164 716 164 716 167 716 c 0,239,240
 171 716 171 716 174 721 c 1,241,242
 178 725 178 725 180 725 c 0,243,244
 184 725 184 725 187 730 c 0,245,246
 190 734 190 734 196 734 c 0,247,248
 201 734 201 734 203 736 c 0,249,250
 207 738 207 738 213 738 c 0,251,252
 221 738 221 738 228 742 c 0,253,254
 235 747 235 747 237 745 c 1,255,256
 240 745 240 745 247 748 c 0,257,258
 255 752 255 752 262 752 c 2,259,-1
 289 752 l 1,260,261
 306 750 306 750 315 752 c 0,0,1
307 687 m 0,262,263
 303 685 303 685 289 686 c 128,-1,264
 275 687 275 687 268 685 c 0,265,266
 253 682 253 682 250 682 c 0,267,268
 240 680 240 680 238 678 c 0,269,270
 234 674 234 674 232 674 c 0,271,272
 229 674 229 674 225 672 c 0,273,274
 222 671 222 671 217 664 c 0,275,276
 214 660 214 660 206 652 c 1,277,278
 200 649 200 649 197 643 c 1,279,280
 196 638 196 638 188 631 c 0,281,282
 181 626 181 626 177 618 c 0,283,284
 176 617 176 617 173.5 613.5 c 128,-1,285
 171 610 171 610 170 609 c 0,286,287
 167 607 167 607 168 598 c 128,-1,288
 169 589 169 589 165 581 c 1,289,290
 162 572 162 572 162 560 c 0,291,292
 161 547 161 547 157 542 c 128,-1,293
 153 537 153 537 154 518 c 0,294,295
 155 498 155 498 151 493 c 0,296,297
 148 488 148 488 148 481 c 0,298,299
 148 473 148 473 144 469 c 0,300,301
 140 466 140 466 139 440 c 0,302,303
 139 414 139 414 142 406 c 0,304,305
 146 398 146 398 146 377 c 0,306,307
 146 361 146 361 148 353 c 1,308,309
 151 347 151 347 150 343 c 0,310,311
 148 339 148 339 148 326 c 1,312,313
 150 314 150 314 147 309 c 0,314,315
 145 305 145 305 145 298 c 0,316,317
 145 288 145 288 148 276 c 1,318,319
 150 261 150 261 153 258 c 1,320,321
 157 251 157 251 159 245 c 0,322,323
 162 237 162 237 161 226 c 0,324,325
 160 214 160 214 163 208 c 0,326,327
 163 207 163 207 165 202 c 128,-1,328
 167 197 167 197 168 195 c 0,329,330
 169 190 169 190 169 183 c 1,331,332
 168 180 168 180 174 163 c 1,333,334
 182 145 182 145 185 142 c 1,335,-1
 189 134 l 2,336,337
 190 130 190 130 197 123 c 0,338,339
 201 118 201 118 212 109 c 1,340,341
 220 101 220 101 220 97 c 0,342,343
 220 94 220 94 226 89 c 0,344,345
 231 85 231 85 239 85 c 1,346,347
 246 86 246 86 249 82 c 0,348,349
 253 78 253 78 275 78 c 0,350,351
 295 78 295 78 303 80 c 0,352,353
 310 81 310 81 314 79 c 128,-1,354
 318 77 318 77 325 77 c 0,355,356
 329 77 329 77 334 77 c 0,357,358
 350 78 350 78 355 81 c 128,-1,359
 360 84 360 84 371 86 c 0,360,361
 382 87 382 87 388 94 c 2,362,-1
 402 108 l 1,363,364
 410 114 410 114 410 118 c 1,365,366
 413 124 413 124 422 133 c 1,367,368
 433 149 433 149 435 153 c 0,369,370
 440 162 440 162 441 168 c 0,371,372
 444 183 444 183 444 184 c 0,373,374
 445 192 445 192 450 197 c 128,-1,375
 455 202 455 202 455 211 c 128,-1,376
 455 220 455 220 458 225 c 128,-1,377
 461 230 461 230 461 249 c 2,378,-1
 461 274 l 1,379,380
 459 278 459 278 461 285 c 1,381,382
 461 293 461 293 465 299 c 1,383,384
 469 308 469 308 469 338 c 2,385,-1
 469 375 l 2,386,387
 469 387 469 387 468 396 c 1,388,389
 468 406 468 406 465 418 c 0,390,391
 463 423 463 423 461 458 c 0,392,393
 461 470 461 470 460 484 c 1,394,-1
 460 498 l 2,395,396
 460 506 460 506 457 510 c 0,397,398
 453 517 453 517 454 537 c 1,399,400
 454 560 454 560 450 570 c 0,401,402
 445 580 445 580 441 584 c 0,403,404
 438 587 438 587 439 592 c 0,405,406
 439 597 439 597 430 615 c 1,407,408
 417 637 417 637 411 644 c 0,409,410
 403 654 403 654 392 659 c 1,411,412
 384 664 384 664 370 665 c 0,413,414
 357 665 357 665 353 669 c 128,-1,415
 349 673 349 673 345 673 c 0,416,417
 339 673 339 673 330 679 c 0,418,419
 321 686 321 686 316 688 c 1,420,421
 309 688 309 688 307 687 c 0,262,263
EndSplineSet
Validated: 1
EndChar

StartChar: uni0031
Encoding: 49 49 20
Width: 588
GlyphClass: 2
Flags: W
LayerCount: 2
Fore
SplineSet
315 724 m 1,0,1
 321 728 321 728 323 728 c 0,2,3
 324 728 324 728 325 728 c 0,4,5
 331 725 331 725 334 724 c 0,6,7
 339 722 339 722 339 719 c 1,8,9
 342 713 342 713 345 711 c 1,10,11
 349 706 349 706 350 669 c 0,12,13
 350 657 350 657 350.5 638 c 128,-1,14
 351 619 351 619 351 617 c 0,15,16
 350 603 350 603 353 598 c 0,17,18
 356 594 356 594 357 568 c 1,19,20
 357 541 357 541 353 534 c 128,-1,21
 349 527 349 527 350 522 c 0,22,23
 353 512 353 512 354 511 c 0,24,25
 357 504 357 504 357 485 c 0,26,27
 357 481 357 481 357 475 c 0,28,29
 357 462 357 462 356 448 c 0,30,31
 354 428 354 428 351 425 c 1,32,33
 349 419 349 419 349 416 c 128,-1,34
 349 413 349 413 353 409 c 0,35,36
 357 406 357 406 356 386 c 1,37,38
 356 365 356 365 352 357 c 1,39,40
 349 346 349 346 349 319 c 2,41,-1
 349 287 l 1,42,-1
 349 262 l 1,43,44
 350 239 350 239 353 236 c 128,-1,45
 356 233 356 233 356 226 c 2,46,-1
 356 121 l 2,47,48
 356 78 356 78 356 64 c 0,49,50
 356 34 356 34 354.5 26.5 c 128,-1,51
 353 19 353 19 348 14 c 0,52,53
 341 8 341 8 336 8 c 0,54,55
 334 8 334 8 330 8 c 0,56,57
 323 8 323 8 311 10 c 0,58,59
 293 13 293 13 290 13 c 0,60,61
 278 15 278 15 277 16 c 0,62,63
 275 18 275 18 275 24 c 128,-1,64
 275 30 275 30 273 34 c 0,65,66
 271 40 271 40 271 67 c 1,67,68
 270 83 270 83 270 105 c 0,69,70
 270 115 270 115 267 118 c 128,-1,71
 264 121 264 121 264 132 c 1,72,73
 263 138 263 138 263 148 c 2,74,-1
 263 261 l 1,75,76
 264 368 264 368 267 372 c 0,77,78
 270 375 270 375 271 400 c 0,79,80
 271 424 271 424 268 430 c 0,81,82
 264 436 264 436 264 503 c 1,83,-1
 262 574 l 2,84,85
 261 577 261 577 263 586 c 0,86,87
 264 594 264 594 262 601 c 0,88,89
 261 606 261 606 256 611 c 1,90,91
 253 612 253 612 240 612 c 1,92,93
 229 611 229 611 225 607 c 0,94,95
 219 601 219 601 216 599 c 0,96,97
 210 595 210 595 208 595 c 0,98,99
 207 595 207 595 197 587 c 1,100,101
 188 578 188 578 183 576 c 0,102,103
 177 574 177 574 172 569 c 0,104,105
 170 568 170 568 166 565 c 128,-1,106
 162 562 162 562 161 561 c 0,107,108
 151 556 151 556 146 554 c 0,109,110
 144 554 144 554 139 552.5 c 128,-1,111
 134 551 134 551 133 551 c 0,112,113
 129 551 129 551 126 555 c 128,-1,114
 123 559 123 559 123 581 c 1,115,116
 124 598 124 598 125.5 602 c 128,-1,117
 127 606 127 606 136 614 c 0,118,119
 146 624 146 624 152 626 c 1,120,121
 157 626 157 626 159 631 c 128,-1,122
 161 636 161 636 165 638 c 0,123,124
 169 639 169 639 173 645 c 0,125,126
 176 651 176 651 187 656 c 0,127,128
 199 661 199 661 205 669 c 1,129,130
 212 676 212 676 215 676 c 0,131,132
 216 676 216 676 222 680 c 0,133,134
 224 682 224 682 234 684 c 1,135,136
 240 684 240 684 244 691 c 2,137,-1
 252 703 l 1,138,139
 257 708 257 708 268 709 c 0,140,141
 281 711 281 711 285 715 c 1,142,143
 290 718 290 718 299 718 c 0,144,145
 309 718 309 718 315 724 c 1,0,1
EndSplineSet
Validated: 1
EndChar

StartChar: uni0032
Encoding: 50 50 21
Width: 590
GlyphClass: 2
Flags: W
LayerCount: 2
Fore
SplineSet
287 746 m 0,0,1
 291 747 291 747 301 747 c 1,2,3
 307 745 307 745 315 745 c 1,4,5
 324 743 324 743 331 740 c 1,6,7
 339 738 339 738 345 738 c 0,8,9
 354 738 354 738 358 741 c 0,10,11
 364 745 364 745 367 745 c 0,12,13
 372 745 372 745 383 738 c 1,14,15
 399 732 399 732 402 733 c 1,16,17
 408 733 408 733 411 730 c 128,-1,18
 414 727 414 727 416 727 c 1,19,20
 421 723 421 723 427 717 c 0,21,22
 435 709 435 709 445 705 c 0,23,24
 454 701 454 701 458 696 c 0,25,26
 459 695 459 695 461 692 c 0,27,28
 463 690 463 690 463 689 c 128,-1,29
 463 688 463 688 469 682 c 1,30,31
 476 677 476 677 479 672 c 1,32,33
 482 663 482 663 483 659 c 0,34,35
 487 651 487 651 489 650 c 0,36,37
 490 649 490 649 497 638 c 1,38,39
 501 628 501 628 501 626 c 128,-1,40
 501 624 501 624 505 620 c 0,41,42
 508 617 508 617 508 614 c 2,43,-1
 508 599 l 2,44,45
 508 586 508 586 512 581 c 1,46,47
 516 578 516 578 516 553 c 0,48,49
 516 529 516 529 512 522 c 1,50,-1
 508 510 l 1,51,52
 508 504 508 504 506 500 c 0,53,54
 504 498 504 498 502 485 c 0,55,56
 499 471 499 471 498 469 c 128,-1,57
 497 467 497 467 494 460 c 128,-1,58
 491 453 491 453 490 451 c 0,59,60
 485 441 485 441 481 435 c 0,61,62
 479 433 479 433 474 423 c 0,63,64
 471 415 471 415 469 413 c 0,65,66
 466 410 466 410 466 407 c 0,67,68
 466 402 466 402 461 397 c 0,69,70
 455 389 455 389 452 383 c 0,71,72
 448 376 448 376 446 376 c 128,-1,73
 444 376 444 376 439 369 c 1,74,75
 433 363 433 363 429 355 c 0,76,77
 421 342 421 342 413 335 c 1,78,79
 401 321 401 321 397 317 c 0,80,81
 391 311 391 311 391 308 c 1,82,-1
 377 292 l 2,83,84
 365 279 365 279 360 279 c 0,85,86
 354 279 354 279 353 276 c 1,87,88
 349 274 349 274 349 268 c 1,89,90
 348 264 348 264 342 258 c 1,91,92
 336 250 336 250 325 239 c 0,93,94
 316 229 316 229 306 221 c 0,95,96
 299 216 299 216 296 216 c 0,97,98
 294 216 294 216 290 210 c 1,99,100
 284 204 284 204 279 202 c 128,-1,101
 274 200 274 200 269 192 c 0,102,103
 264 183 264 183 260 177 c 0,104,105
 254 169 254 169 247 167 c 1,106,107
 239 163 239 163 239 161 c 0,108,109
 239 160 239 160 235 160 c 128,-1,110
 231 160 231 160 220 149 c 1,111,112
 208 139 208 139 205 139 c 0,113,114
 203 139 203 139 191 127 c 0,115,116
 188 123 188 123 182.5 116 c 128,-1,117
 177 109 177 109 176 108 c 0,118,119
 171 100 171 100 172 96 c 1,120,121
 172 90 172 90 176 86 c 0,122,123
 179 82 179 82 185 80 c 2,124,-1
 200 74 l 1,125,126
 210 72 210 72 215 72 c 1,127,128
 217 73 217 73 223.5 74 c 128,-1,129
 230 75 230 75 231 75 c 0,130,131
 239 76 239 76 253 81 c 0,132,133
 262 84 262 84 298 84 c 2,134,-1
 337 84 l 2,135,136
 355 84 355 84 374 85 c 128,-1,137
 393 86 393 86 422 86 c 0,138,139
 437 86 437 86 444 82 c 0,140,141
 448 79 448 79 455 79 c 0,142,143
 459 79 459 79 465 83 c 0,144,145
 470 87 470 87 475 84 c 0,146,147
 476 84 476 84 479.5 83 c 128,-1,148
 483 82 483 82 485 81 c 0,149,150
 494 78 494 78 497 78 c 0,151,152
 504 76 504 76 507 69 c 128,-1,153
 510 62 510 62 506 55 c 128,-1,154
 502 48 502 48 502 36 c 128,-1,155
 502 24 502 24 499 23 c 1,156,157
 497 21 497 21 493 21 c 128,-1,158
 489 21 489 21 487 17 c 1,159,160
 483 13 483 13 457 13 c 1,161,162
 442 12 442 12 426 12 c 2,163,-1
 370 12 l 1,164,-1
 315 12 l 1,165,-1
 253 12 l 1,166,-1
 174 12 l 2,167,168
 169 12 169 12 152 12.5 c 128,-1,169
 135 13 135 13 127 13 c 0,170,171
 102 13 102 13 94 16 c 2,172,-1
 82 22 l 2,173,174
 77 24 77 24 71 35 c 0,175,176
 66 46 66 46 69 50 c 0,177,178
 72 55 72 55 71 61 c 0,179,180
 69 69 69 69 67 71 c 128,-1,181
 65 73 65 73 65 88 c 128,-1,182
 65 103 65 103 69 107 c 0,183,184
 72 110 72 110 78 112 c 1,185,186
 82 112 82 112 87 117 c 0,187,188
 88 119 88 119 92 123 c 128,-1,189
 96 127 96 127 97 129 c 0,190,191
 105 137 105 137 109 137 c 128,-1,192
 113 137 113 137 113 140 c 128,-1,193
 113 143 113 143 115 145 c 128,-1,194
 117 147 117 147 120 147 c 0,195,196
 122 147 122 147 129 152 c 0,197,198
 131 153 131 153 137 159 c 1,199,200
 137 162 137 162 157 182 c 0,201,202
 177 203 177 203 183 203 c 0,203,204
 189 204 189 204 193 213 c 0,205,206
 196 220 196 220 201 222 c 0,207,208
 207 225 207 225 211 229 c 0,209,210
 218 236 218 236 220 241 c 0,211,212
 222 245 222 245 228 249 c 0,213,214
 230 250 230 250 241 258 c 1,215,-1
 254 271 l 1,216,217
 257 278 257 278 264 281 c 128,-1,218
 271 284 271 284 271 286 c 0,219,220
 271 289 271 289 281 299 c 0,221,222
 286 305 286 305 294 313 c 1,223,224
 295 316 295 316 302 320 c 1,225,226
 307 325 307 325 310 331 c 0,227,228
 316 341 316 341 329 354 c 0,229,230
 343 368 343 368 343 372 c 128,-1,231
 343 376 343 376 347 378 c 1,232,233
 350 381 350 381 355 381 c 0,234,235
 358 381 358 381 360 384 c 0,236,237
 360 385 360 385 367 397 c 0,238,239
 373 407 373 407 373 408 c 0,240,241
 373 413 373 413 381 419 c 1,242,243
 389 427 389 427 389 430 c 0,244,245
 389 434 389 434 391 436 c 0,246,247
 394 439 394 439 394 443 c 0,248,249
 394 444 394 444 397 450 c 1,250,251
 400 452 400 452 402 460 c 0,252,253
 402 462 402 462 404 466.5 c 128,-1,254
 406 471 406 471 406 473 c 0,255,256
 410 482 410 482 409 489 c 0,257,258
 408 497 408 497 412 503 c 0,259,260
 416 511 416 511 416 530 c 1,261,262
 415 541 415 541 415 561 c 1,263,264
 413 573 413 573 412 575 c 0,265,266
 409 579 409 579 411 583 c 0,267,268
 414 589 414 589 415 593 c 128,-1,269
 416 597 416 597 416 604 c 1,270,271
 414 608 414 608 405 615 c 128,-1,272
 396 622 396 622 396 624 c 0,273,274
 396 625 396 625 390 633 c 0,275,276
 385 638 385 638 379 646 c 0,277,278
 378 647 378 647 370 659 c 1,279,280
 368 666 368 666 365 666 c 1,281,282
 363 667 363 667 359 667 c 0,283,284
 356 667 356 667 350 671 c 0,285,286
 342 675 342 675 333 678 c 0,287,288
 322 681 322 681 314 680 c 0,289,290
 307 679 307 679 300 683 c 0,291,292
 293 688 293 688 286 689 c 0,293,294
 277 690 277 690 272 685 c 0,295,296
 266 680 266 680 260 682 c 0,297,298
 255 683 255 683 248 682 c 1,299,300
 245 680 245 680 238 680 c 0,301,302
 234 680 234 680 228 676 c 0,303,304
 222 673 222 673 218 673 c 0,305,306
 215 673 215 673 209 667 c 1,307,308
 202 662 202 662 200 662 c 128,-1,309
 198 662 198 662 191 655 c 0,310,311
 189 653 189 653 182.5 646 c 128,-1,312
 176 639 176 639 173 636 c 0,313,314
 163 622 163 622 162 617 c 0,315,316
 158 606 158 606 157 604 c 0,317,318
 155 601 155 601 152 592 c 0,319,320
 151 589 151 589 151 579 c 1,321,322
 152 572 152 572 144 566 c 1,323,324
 138 560 138 560 130 556 c 0,325,326
 128 556 128 556 123 554 c 128,-1,327
 118 552 118 552 116 552 c 0,328,329
 107 549 107 549 103 549 c 0,330,331
 96 548 96 548 79 553 c 0,332,333
 61 559 61 559 58 565 c 1,334,335
 53 570 53 570 53 573 c 0,336,337
 53 575 53 575 55 577 c 128,-1,338
 57 579 57 579 57 592 c 0,339,340
 57 606 57 606 63 618 c 0,341,342
 69 632 69 632 69 633 c 0,343,344
 69 636 69 636 74 638 c 1,345,346
 80 642 80 642 80 644 c 0,347,348
 80 648 80 648 85 656 c 128,-1,349
 90 664 90 664 93 672 c 0,350,351
 96 678 96 678 102 681 c 0,352,353
 110 685 110 685 113 690 c 0,354,355
 117 695 117 695 126 701 c 0,356,357
 136 709 136 709 139 712 c 0,358,359
 143 716 143 716 148 716 c 0,360,361
 152 716 152 716 157 721 c 0,362,363
 161 725 161 725 165 725 c 128,-1,364
 169 725 169 725 171 729 c 0,365,366
 172 732 172 732 180 732 c 0,367,368
 186 732 186 732 192 736 c 0,369,370
 196 739 196 739 216 738 c 128,-1,371
 236 737 236 737 240 741 c 128,-1,372
 244 745 244 745 261 745 c 0,373,374
 282 745 282 745 287 746 c 0,0,1
EndSplineSet
Validated: 1
EndChar

StartChar: uni0033
Encoding: 51 51 22
Width: 585
GlyphClass: 2
Flags: W
LayerCount: 2
Fore
SplineSet
235 757 m 0,0,1
 242 760 242 760 256 760 c 0,2,3
 272 759 272 759 279 755 c 1,4,5
 287 752 287 752 298 752 c 0,6,7
 303 752 303 752 311 752 c 0,8,9
 336 752 336 752 340 749 c 128,-1,10
 344 746 344 746 357 746 c 128,-1,11
 370 746 370 746 374 743 c 0,12,13
 377 740 377 740 387 738 c 0,14,15
 396 737 396 737 401 731 c 0,16,17
 407 725 407 725 409 725 c 0,18,19
 410 725 410 725 422 719 c 0,20,21
 432 713 432 713 440 707 c 0,22,23
 445 703 445 703 457 696 c 0,24,25
 462 694 462 694 467 689 c 1,26,27
 467 686 467 686 471 682 c 128,-1,28
 475 678 475 678 475 675 c 128,-1,29
 475 672 475 672 477 668 c 1,30,31
 480 665 480 665 480 661 c 128,-1,32
 480 657 480 657 484 653 c 1,33,34
 489 650 489 650 489 646 c 128,-1,35
 489 642 489 642 492 641 c 1,36,37
 496 637 496 637 496 633 c 128,-1,38
 496 629 496 629 498 625 c 1,39,40
 500 624 500 624 502 609 c 128,-1,41
 504 594 504 594 505 592 c 0,42,43
 508 589 508 589 508 576 c 0,44,45
 508 565 508 565 504 561 c 0,46,47
 501 558 501 558 501 553 c 128,-1,48
 501 548 501 548 504 543 c 128,-1,49
 507 538 507 538 504 531 c 0,50,51
 501 526 501 526 501 521 c 128,-1,52
 501 516 501 516 496 508 c 1,53,54
 492 498 492 498 490 495 c 0,55,56
 490 494 490 494 489 491 c 128,-1,57
 488 488 488 488 488 486 c 0,58,59
 486 479 486 479 481 474 c 1,60,61
 473 469 473 469 472 469 c 0,62,63
 469 467 469 467 467 462 c 0,64,65
 465 456 465 456 455 450 c 0,66,67
 451 448 451 448 439 440 c 1,68,69
 432 433 432 433 420 428 c 1,70,71
 404 419 404 419 402 416 c 0,72,73
 397 411 397 411 396 400 c 1,74,75
 396 387 396 387 397 385 c 0,76,77
 399 381 399 381 402 381 c 0,78,79
 404 381 404 381 410 377 c 1,80,81
 413 372 413 372 417 372 c 0,82,83
 422 372 422 372 424 369 c 1,84,85
 428 367 428 367 431 367 c 0,86,87
 436 367 436 367 439 364 c 1,88,89
 445 362 445 362 445 359 c 1,90,91
 447 355 447 355 459 349 c 0,92,93
 472 343 472 343 484 331 c 128,-1,94
 496 319 496 319 496 316 c 0,95,96
 496 312 496 312 502 304 c 128,-1,97
 508 296 508 296 508 294 c 0,98,99
 508 293 508 293 512 287 c 128,-1,100
 516 281 516 281 516 272 c 1,101,102
 518 259 518 259 519 258 c 0,103,104
 521 257 521 257 523 243 c 0,105,106
 523 239 523 239 523.5 232.5 c 128,-1,107
 524 226 524 226 524 225 c 0,108,109
 524 221 524 221 522 197 c 1,110,111
 522 177 522 177 519 171 c 0,112,113
 517 167 517 167 517 164 c 0,114,115
 517 160 517 160 513 156 c 0,116,117
 510 152 510 152 510 146 c 128,-1,118
 510 140 510 140 506 134 c 0,119,120
 502 126 502 126 499 117 c 1,121,122
 493 107 493 107 487 101 c 0,123,124
 480 94 480 94 480 90 c 0,125,126
 480 89 480 89 479.5 86.5 c 128,-1,127
 479 84 479 84 479 83 c 0,128,129
 475 79 475 79 471 77 c 0,130,131
 464 74 464 74 464 71 c 1,132,-1
 456 61 l 1,133,134
 448 53 448 53 445 53 c 0,135,136
 444 53 444 53 425 40 c 0,137,138
 412 31 412 31 402 26 c 0,139,140
 396 23 396 23 394 21 c 0,141,142
 387 16 387 16 379 15 c 1,143,144
 370 12 370 12 362 12 c 0,145,146
 355 12 355 12 352 9 c 1,147,148
 346 6 346 6 330 6 c 0,149,150
 326 6 326 6 321 6 c 0,151,152
 311 6 311 6 305 7 c 1,153,154
 281 7 281 7 260 6 c 0,155,156
 234 5 234 5 231 5 c 0,157,158
 222 5 222 5 217 9 c 0,159,160
 211 14 211 14 202 13 c 0,161,162
 193 13 193 13 189 11 c 0,163,164
 185 10 185 10 182 13 c 0,165,166
 177 18 177 18 172 19 c 0,167,168
 163 21 163 21 159 20 c 0,169,170
 153 19 153 19 149 23 c 0,171,172
 144 28 144 28 142 28 c 0,173,174
 139 28 139 28 131 32 c 0,175,176
 121 38 121 38 120 40 c 0,177,178
 119 40 119 40 115.5 43 c 128,-1,179
 112 46 112 46 109 48 c 2,180,-1
 99 53 l 1,181,182
 96 53 96 53 94 57 c 128,-1,183
 92 61 92 61 92 64 c 1,184,-1
 86 70 l 1,185,186
 81 77 81 77 78 81 c 0,187,188
 64 95 64 95 64 98 c 128,-1,189
 64 101 64 101 59 106 c 0,190,191
 52 113 52 113 49 121 c 1,192,193
 44 129 44 129 44 132 c 128,-1,194
 44 135 44 135 39 140 c 1,195,196
 34 148 34 148 34 158 c 0,197,198
 34 162 34 162 34 164 c 0,199,200
 34 170 34 170 40 178 c 0,201,202
 44 183 44 183 50 192 c 1,203,204
 52 197 52 197 60 197 c 0,205,206
 67 197 67 197 73 200 c 0,207,208
 78 203 78 203 84 201 c 0,209,210
 90 198 90 198 96 198 c 0,211,212
 104 198 104 198 106 197 c 0,213,214
 112 191 112 191 116 186 c 0,215,216
 124 177 124 177 122 175 c 1,217,218
 122 172 122 172 126 169 c 128,-1,219
 130 166 130 166 130 159 c 0,220,221
 130 153 130 153 140 139 c 0,222,223
 142 137 142 137 156 118 c 0,224,225
 164 108 164 108 166 107 c 0,226,227
 170 105 170 105 176 99 c 128,-1,228
 182 93 182 93 186 93 c 0,229,230
 189 93 189 93 195 89 c 1,231,232
 204 85 204 85 206 86 c 1,233,234
 212 86 212 86 220 79 c 0,235,236
 228 73 228 73 236 71 c 0,237,238
 242 70 242 70 249 74 c 0,239,240
 257 78 257 78 279 78 c 1,241,242
 291 79 291 79 312 79 c 0,243,244
 321 79 321 79 323 81 c 0,245,246
 327 83 327 83 331 84 c 0,247,248
 338 86 338 86 338 89 c 128,-1,249
 338 92 338 92 340 94 c 0,250,251
 341 95 341 95 352 97 c 128,-1,252
 363 99 363 99 366 102 c 1,253,-1
 378 106 l 2,254,255
 384 108 384 108 396 118 c 1,256,257
 408 132 408 132 408 133 c 0,258,259
 408 137 408 137 411 140 c 0,260,261
 415 146 415 146 415 147 c 0,262,263
 415 151 415 151 418 154 c 0,264,265
 422 160 422 160 422 168 c 1,266,267
 424 180 424 180 424 184 c 1,268,269
 427 193 427 193 428 194 c 0,270,271
 430 198 430 198 430 209 c 0,272,273
 430 221 430 221 426 226 c 0,274,275
 423 231 423 231 421 236 c 0,276,277
 420 239 420 239 422 246 c 1,278,279
 425 251 425 251 420 258 c 0,280,281
 417 261 417 261 412 273 c 0,282,283
 407 286 407 286 406 289 c 0,284,285
 405 295 405 295 397 303 c 1,286,287
 392 306 392 306 386 315 c 0,288,289
 382 322 382 322 377 324 c 128,-1,290
 372 326 372 326 368 330 c 0,291,292
 367 332 367 332 359 335 c 1,293,294
 356 335 356 335 344 340 c 0,295,296
 336 344 336 344 332 343 c 1,297,298
 326 343 326 343 323 345 c 0,299,300
 314 351 314 351 313 352 c 0,301,302
 309 356 309 356 302 358 c 0,303,304
 296 360 296 360 284 358 c 0,305,306
 272 357 272 357 268 360 c 0,307,308
 262 364 262 364 258 364 c 1,309,310
 251 367 251 367 246 374 c 0,311,312
 239 383 239 383 239 394 c 0,313,314
 239 406 239 406 244 412 c 0,315,316
 248 418 248 418 248 422 c 0,317,318
 248 427 248 427 251 430 c 0,319,320
 254 432 254 432 261 435 c 1,321,322
 271 437 271 437 284 436 c 1,323,324
 300 436 300 436 304 439 c 1,325,326
 313 442 313 442 314 442 c 128,-1,327
 315 442 315 442 321 442.5 c 128,-1,328
 327 443 327 443 330 443 c 0,329,330
 342 443 342 443 346 447 c 1,331,332
 352 451 352 451 354 451 c 1,333,-1
 361 456 l 2,334,335
 363 458 363 458 372 464 c 0,336,337
 374 465 374 465 384 472 c 0,338,339
 385 473 385 473 397 488 c 1,340,341
 403 498 403 498 403 499 c 0,342,343
 403 501 403 501 407 507 c 128,-1,344
 411 513 411 513 410 523 c 0,345,346
 408 533 408 533 408 545 c 2,347,-1
 408 564 l 1,348,-1
 408 584 l 2,349,350
 408 598 408 598 405 604 c 0,351,352
 402 613 402 613 401 617 c 0,353,354
 401 619 401 619 399.5 624.5 c 128,-1,355
 398 630 398 630 397 632 c 0,356,357
 396 637 396 637 389 648 c 1,358,359
 382 657 382 657 378 658 c 0,360,361
 374 660 374 660 371 660 c 0,362,363
 369 660 369 660 359 666 c 1,364,365
 350 673 350 673 345 673 c 0,366,367
 341 673 341 673 337 675 c 1,368,369
 333 679 333 679 323 679 c 1,370,371
 311 681 311 681 310 682 c 0,372,373
 305 685 305 685 297 686 c 1,374,375
 287 689 287 689 262 689 c 1,376,377
 232 687 232 687 229 686 c 0,378,379
 220 683 220 683 212 681 c 1,380,381
 207 681 207 681 201 677 c 128,-1,382
 195 673 195 673 192 673 c 1,383,384
 187 671 187 671 175 658 c 0,385,386
 162 645 162 645 159 637 c 0,387,388
 158 635 158 635 155.5 631 c 128,-1,389
 153 627 153 627 153 626 c 0,390,391
 150 623 150 623 150 618 c 0,392,393
 150 611 150 611 151 608 c 0,394,395
 154 603 154 603 152 600 c 1,396,397
 152 598 152 598 148 596 c 1,398,399
 145 596 145 596 139 590 c 0,400,401
 134 585 134 585 134 582 c 128,-1,402
 134 579 134 579 128 577 c 1,403,-1
 119 571 l 2,404,405
 116 568 116 568 106 568 c 0,406,407
 103 568 103 568 97 568.5 c 128,-1,408
 91 569 91 569 90 569 c 2,409,-1
 79 569 l 2,410,411
 73 569 73 569 65 571 c 0,412,413
 56 574 56 574 54 580 c 0,414,415
 51 586 51 586 51 600 c 0,416,417
 51 613 51 613 55 618 c 1,418,419
 58 624 58 624 58 631 c 0,420,421
 58 640 58 640 61 641 c 1,422,423
 64 644 64 644 64 646 c 0,424,425
 64 649 64 649 71 656 c 1,426,427
 78 665 78 665 80 671 c 1,428,429
 81 679 81 679 89 682 c 1,430,431
 96 686 96 686 101 695 c 1,432,433
 105 706 105 706 110 709 c 0,434,435
 120 716 120 716 122 717 c 0,436,437
 123 718 123 718 128.5 720.5 c 128,-1,438
 134 723 134 723 136 725 c 0,439,440
 144 730 144 730 148 730 c 0,441,442
 151 730 151 730 155 734 c 0,443,444
 160 738 160 738 166 739 c 0,445,446
 168 739 168 739 177 742 c 0,447,448
 180 744 180 744 195 746 c 1,449,450
 208 746 208 746 211 749 c 0,451,452
 213 751 213 751 221 753 c 1,453,454
 227 753 227 753 235 757 c 0,0,1
EndSplineSet
Validated: 1
EndChar

StartChar: uni0034
Encoding: 52 52 23
Width: 564
GlyphClass: 2
Flags: W
LayerCount: 2
Fore
SplineSet
371 715 m 128,-1,1
 372 716 372 716 376 716 c 0,2,3
 382 716 382 716 383 713 c 1,4,5
 387 709 387 709 401 710 c 128,-1,6
 415 711 415 711 417 709 c 0,7,8
 418 708 418 708 418 686 c 128,-1,9
 418 664 418 664 422 660 c 1,10,11
 425 654 425 654 426 613 c 0,12,13
 426 605 426 605 426 591 c 128,-1,14
 426 577 426 577 426 574 c 0,15,16
 426 566 426 566 426 565 c 2,17,-1
 426 549 l 1,18,-1
 426 531 l 1,19,-1
 426 511 l 2,20,21
 426 500 426 500 422 497 c 1,22,23
 420 493 420 493 420 492 c 2,24,-1
 418 481 l 1,25,26
 413 468 413 468 413 462 c 0,27,28
 412 454 412 454 416 445 c 0,29,30
 419 437 419 437 418 419 c 0,31,32
 417 403 417 403 421 391 c 0,33,34
 425 382 425 382 425 332 c 1,35,36
 424 305 424 305 424 278 c 1,37,38
 426 273 426 273 424 264 c 0,39,40
 424 261 424 261 424.5 256.5 c 128,-1,41
 425 252 425 252 425 251 c 0,42,43
 427 246 427 246 437 243 c 1,44,45
 447 238 447 238 455 236 c 0,46,47
 460 235 460 235 466 237 c 1,48,49
 471 240 471 240 486 240 c 128,-1,50
 501 240 501 240 506 236 c 0,51,52
 510 232 510 232 515 232 c 128,-1,53
 520 232 520 232 521 229 c 0,54,55
 522 228 522 228 522 224 c 1,56,57
 521 221 521 221 526 212 c 2,58,-1
 532 202 l 1,59,60
 532 200 532 200 528 198 c 1,61,62
 525 195 525 195 525 190 c 128,-1,63
 525 185 525 185 519 180 c 128,-1,64
 513 175 513 175 508 176 c 1,65,66
 502 179 502 179 498 183 c 0,67,68
 491 188 491 188 490 188 c 0,69,70
 486 188 486 188 480 182 c 1,71,72
 471 176 471 176 468 175 c 0,73,74
 462 172 462 172 451 172 c 0,75,76
 441 172 441 172 433 164 c 0,77,78
 428 158 428 158 427 155 c 128,-1,79
 426 152 426 152 426 141 c 0,80,81
 425 126 425 126 428 118 c 0,82,83
 431 112 431 112 433 99 c 1,84,-1
 433 85 l 2,85,86
 433 77 433 77 432 68 c 1,87,-1
 432 52 l 2,88,89
 432 45 432 45 433 40 c 1,90,-1
 433 15 l 1,91,92
 431 0 431 0 425 -7 c 0,93,94
 418 -15 418 -15 408 -15 c 1,95,96
 404 -16 404 -16 402 -16 c 0,97,98
 397 -16 397 -16 392 -12 c 0,99,100
 387 -7 387 -7 378 -7 c 128,-1,101
 369 -7 369 -7 364 -4 c 0,102,103
 358 0 358 0 354 0 c 0,104,105
 349 0 349 0 345 4 c 0,106,107
 340 9 340 9 340 19 c 1,108,109
 338 31 338 31 338 69 c 2,110,-1
 338 113 l 2,111,112
 338 114 338 114 338.5 119 c 128,-1,113
 339 124 339 124 339 127 c 0,114,115
 340 137 340 137 335 148 c 128,-1,116
 330 159 330 159 325 162 c 0,117,118
 323 163 323 163 319 165 c 0,119,120
 318 166 318 166 317 166 c 0,121,122
 315 168 315 168 298 168 c 0,123,124
 287 168 287 168 252 167 c 1,125,-1
 179 167 l 2,126,127
 176 167 176 167 164.5 167.5 c 128,-1,128
 153 168 153 168 147 168 c 0,129,130
 129 168 129 168 109 166 c 1,131,132
 90 166 90 166 90 167 c 0,133,134
 89 168 89 168 81 168 c 1,135,136
 73 166 73 166 59 166 c 0,137,138
 43 166 43 166 40 170 c 0,139,140
 36 174 36 174 36 176 c 0,141,142
 36 179 36 179 31 186 c 0,143,144
 26 194 26 194 26 199 c 1,145,146
 28 205 28 205 28 212 c 0,147,148
 29 219 29 219 26 226 c 0,149,150
 22 233 22 233 22 249 c 128,-1,151
 22 265 22 265 28 272 c 0,152,153
 33 279 33 279 39 281 c 1,154,155
 46 285 46 285 48 289 c 1,156,157
 52 293 52 293 52 297 c 0,158,159
 52 299 52 299 56 303 c 0,160,161
 59 306 59 306 59 308 c 0,162,163
 59 311 59 311 63 313 c 1,164,165
 66 316 66 316 66 323 c 0,166,167
 66 326 66 326 71 339 c 1,168,169
 78 353 78 353 85 360 c 1,170,171
 93 370 93 370 93 372 c 128,-1,172
 93 374 93 374 104 387 c 1,173,174
 115 398 115 398 115 400 c 0,175,176
 115 401 115 401 117 404 c 128,-1,177
 119 407 119 407 120 409 c 0,178,179
 125 416 125 416 130 422 c 1,180,181
 135 425 135 425 135 430 c 0,182,183
 135 433 135 433 139 439 c 1,184,185
 143 443 143 443 143 447 c 0,186,187
 143 448 143 448 148 455 c 0,188,189
 152 459 152 459 158 463 c 1,190,191
 162 464 162 464 164 470 c 0,192,193
 165 471 165 471 166.5 474.5 c 128,-1,194
 168 478 168 478 168 480 c 1,195,196
 172 484 172 484 172 486 c 128,-1,197
 172 488 172 488 175 494 c 128,-1,198
 178 500 178 500 180 506 c 0,199,200
 181 510 181 510 189 513 c 1,201,202
 195 514 195 514 199 523 c 1,203,204
 201 525 201 525 204.5 533 c 128,-1,205
 208 541 208 541 210 544 c 0,206,207
 219 560 219 560 220 561 c 0,208,209
 225 568 225 568 226 572 c 0,210,211
 228 580 228 580 233 585 c 1,212,213
 237 593 237 593 241 594 c 1,214,215
 244 597 244 597 248 605 c 128,-1,216
 252 613 252 613 255 616 c 0,217,218
 258 618 258 618 264 627 c 1,219,220
 267 635 267 635 272 640 c 1,221,222
 276 642 276 642 284 657 c 0,223,224
 291 672 291 672 290 674 c 1,225,226
 290 677 290 677 307 694 c 0,227,228
 320 707 320 707 323 708.5 c 128,-1,229
 326 710 326 710 330 709 c 1,230,-1
 337 704 l 2,231,232
 339 702 339 702 345 702 c 0,233,234
 350 702 350 702 355 707 c 0,235,236
 358 710 358 710 364 712 c 128,-1,0
 370 714 370 714 371 715 c 128,-1,1
336 588 m 128,-1,238
 334 590 334 590 326 590 c 0,239,240
 319 590 319 590 313 588 c 128,-1,241
 307 586 307 586 301 578 c 0,242,243
 294 569 294 569 293 565 c 0,244,245
 292 563 292 563 288.5 556.5 c 128,-1,246
 285 550 285 550 283 547 c 2,247,-1
 275 535 l 2,248,249
 275 534 275 534 270 527 c 1,250,251
 265 522 265 522 265 518 c 128,-1,252
 265 514 265 514 262 513 c 1,253,254
 259 510 259 510 258 508 c 0,255,256
 256 504 256 504 256 501 c 0,257,258
 256 496 256 496 246 490 c 1,259,260
 235 482 235 482 230 472 c 0,261,262
 223 460 223 460 223 456 c 0,263,264
 223 451 223 451 219 449 c 0,265,266
 217 447 217 447 211 437 c 1,267,-1
 206 424 l 2,268,269
 205 421 205 421 200 416 c 1,270,271
 194 413 194 413 194 408 c 128,-1,272
 194 403 194 403 184 392 c 0,273,274
 181 389 181 389 176.5 384 c 128,-1,275
 172 379 172 379 171 378 c 0,276,277
 171 377 171 377 168 372.5 c 128,-1,278
 165 368 165 368 164 366 c 2,279,-1
 158 351 l 1,280,281
 158 345 158 345 152 339 c 0,282,283
 147 334 147 334 147 330 c 0,284,285
 147 328 147 328 139 320 c 0,286,287
 131 313 131 313 131 309 c 128,-1,288
 131 305 131 305 121 294 c 0,289,290
 110 283 110 283 110 281 c 0,291,292
 110 278 110 278 106 274 c 1,293,294
 101 271 101 271 101 267 c 0,295,296
 101 262 101 262 98 257 c 128,-1,297
 95 252 95 252 95 249 c 0,298,299
 95 248 95 248 96 246 c 0,300,301
 98 242 98 242 101 238 c 128,-1,302
 104 234 104 234 114 232 c 0,303,304
 119 230 119 230 124 230 c 0,305,306
 128 230 128 230 131 231 c 0,307,308
 135 232 135 232 161 232 c 0,309,310
 172 232 172 232 182 232 c 2,311,-1
 254 232 l 2,312,313
 282 232 282 232 285 234 c 0,314,315
 291 237 291 237 294 238 c 1,316,317
 299 238 299 238 307 240 c 0,318,319
 308 240 308 240 313.5 240.5 c 128,-1,320
 319 241 319 241 322 241 c 0,321,322
 330 242 330 242 335 246 c 1,323,324
 339 251 339 251 339 326 c 0,325,326
 339 402 339 402 343 406 c 0,327,328
 346 409 346 409 346 437 c 0,329,330
 346 442 346 442 346.5 455.5 c 128,-1,331
 347 469 347 469 348 471 c 0,332,333
 349 474 349 474 349 475 c 0,334,335
 349 479 349 479 344 484 c 0,336,337
 338 491 338 491 339 497 c 0,338,339
 341 506 341 506 343 508 c 0,340,341
 346 511 346 511 345 521 c 0,342,343
 343 533 343 533 342 534 c 0,344,345
 340 536 340 536 340 561 c 1,346,237
 338 586 338 586 336 588 c 128,-1,238
EndSplineSet
Validated: 1
EndChar

StartChar: uni0035
Encoding: 53 53 24
Width: 589
GlyphClass: 2
Flags: W
LayerCount: 2
Fore
SplineSet
251 736 m 1,0,1
 260 740 260 740 262 740 c 0,2,3
 263 740 263 740 264 740 c 0,4,5
 268 738 268 738 285 738 c 0,6,7
 290 738 290 738 297.5 737.5 c 128,-1,8
 305 737 305 737 306 737 c 0,9,10
 314 737 314 737 317 738 c 1,11,12
 324 738 324 738 326 736 c 0,13,14
 329 733 329 733 334 733 c 0,15,16
 338 733 338 733 350 731 c 0,17,18
 359 730 359 730 367 733 c 1,19,20
 372 736 372 736 378 734 c 0,21,22
 384 731 384 731 415 731 c 1,23,24
 432 730 432 730 438 730 c 0,25,26
 450 730 450 730 457 734 c 0,27,28
 462 736 462 736 472 739 c 1,29,30
 480 740 480 740 485 737 c 0,31,32
 491 733 491 733 491 731 c 0,33,34
 493 727 493 727 495 725 c 0,35,36
 496 724 496 724 498 712 c 0,37,38
 499 700 499 700 494 696 c 0,39,40
 488 690 488 690 488 685 c 0,41,42
 488 678 488 678 484 675 c 0,43,44
 480 673 480 673 477 673 c 128,-1,45
 474 673 474 673 466 669 c 0,46,47
 461 666 461 666 455 666 c 128,-1,48
 449 666 449 666 445 669 c 0,49,50
 440 672 440 672 425 674 c 1,51,52
 411 674 411 674 407 671 c 0,53,54
 403 667 403 667 401 667 c 1,55,56
 399 669 399 669 397 670 c 0,57,58
 393 673 393 673 358 674 c 1,59,60
 322 674 322 674 309 670 c 1,61,62
 291 666 291 666 284 666 c 0,63,64
 276 666 276 666 264 671 c 0,65,66
 253 676 253 676 247 674 c 0,67,68
 246 674 246 674 235.5 673.5 c 128,-1,69
 225 673 225 673 218 673 c 0,70,71
 208 673 208 673 205 673 c 0,72,73
 195 673 195 673 186 666 c 0,74,75
 180 662 180 662 172 654 c 0,76,77
 169 650 169 650 167 643 c 0,78,79
 166 640 166 640 166 624 c 1,80,81
 167 611 167 611 163 605 c 0,82,83
 159 597 159 597 159 578 c 0,84,85
 159 560 159 560 162 555 c 128,-1,86
 165 550 165 550 165 540 c 128,-1,87
 165 530 165 530 161 523 c 0,88,89
 158 517 158 517 158 505 c 0,90,91
 158 498 158 498 159 473 c 1,92,93
 159 430 159 430 161 428 c 0,94,95
 163 424 163 424 166 424 c 1,96,97
 168 423 168 423 173 423 c 1,98,99
 176 425 176 425 180 432 c 0,100,101
 184 440 184 440 189 442 c 0,102,103
 190 442 190 442 193 442.5 c 128,-1,104
 196 443 196 443 198 443 c 0,105,106
 200 444 200 444 210 451 c 1,107,108
 217 458 217 458 221 458 c 0,109,110
 224 458 224 458 229 461 c 128,-1,111
 234 464 234 464 248 464 c 0,112,113
 264 464 264 464 268 467 c 0,114,115
 276 471 276 471 287 471 c 0,116,117
 299 472 299 472 304 476 c 0,118,119
 309 479 309 479 343 479 c 0,120,121
 378 478 378 478 386 474 c 0,122,123
 396 470 396 470 398 469 c 0,124,125
 400 467 400 467 402 467 c 0,126,127
 406 467 406 467 415 460 c 1,128,129
 426 453 426 453 430 453 c 0,130,131
 436 453 436 453 440 450 c 0,132,133
 441 449 441 449 446 446.5 c 128,-1,134
 451 444 451 444 453 442 c 0,135,136
 460 438 460 438 462 433 c 1,137,138
 472 423 472 423 479 415 c 0,139,140
 492 402 492 402 496 396 c 0,141,142
 498 392 498 392 501 388 c 1,143,144
 504 386 504 386 504 381 c 0,145,146
 504 375 504 375 510 369 c 128,-1,147
 516 363 516 363 516 356 c 0,148,149
 516 352 516 352 519 343 c 0,150,151
 522 336 522 336 524 328 c 0,152,153
 526 321 526 321 529 316 c 0,154,155
 532 312 532 312 532 302 c 128,-1,156
 532 292 532 292 536 288 c 0,157,158
 539 284 539 284 539 277 c 0,159,160
 539 274 539 274 539 269 c 0,161,162
 538 256 538 256 534 247 c 0,163,164
 530 240 530 240 531 231 c 0,165,166
 532 220 532 220 530 217 c 0,167,168
 527 214 527 214 525 201 c 0,169,170
 524 194 524 194 524 181 c 1,171,172
 525 172 525 172 522 168 c 0,173,174
 518 163 518 163 518 154 c 0,175,176
 518 144 518 144 513 137 c 0,177,178
 508 129 508 129 508 127 c 128,-1,179
 508 125 508 125 504 117 c 0,180,181
 500 111 500 111 496 107 c 1,182,183
 490 105 490 105 490 103 c 1,184,185
 488 101 488 101 488 98 c 0,186,187
 488 94 488 94 483 87 c 0,188,189
 478 79 478 79 475 79 c 0,190,191
 471 79 471 79 461 67 c 1,192,193
 450 56 450 56 448 56 c 0,194,195
 447 56 447 56 437 48 c 1,196,-1
 425 36 l 1,197,198
 422 31 422 31 417 31 c 0,199,200
 414 31 414 31 410 29 c 0,201,202
 408 28 408 28 405.5 26 c 128,-1,203
 403 24 403 24 402 24 c 0,204,205
 400 21 400 21 393 17 c 0,206,207
 387 14 387 14 381 14 c 0,208,209
 377 14 377 14 369 10 c 0,210,211
 361 5 361 5 342 6 c 128,-1,212
 323 7 323 7 315 2 c 0,213,214
 305 -4 305 -4 304 -4 c 2,215,-1
 296 1 l 1,216,217
 291 6 291 6 279 6 c 1,218,219
 266 4 266 4 263 3 c 0,220,221
 258 0 258 0 253 0 c 128,-1,222
 248 0 248 0 244 3 c 0,223,224
 240 7 240 7 232 7 c 128,-1,225
 224 7 224 7 220 9 c 1,226,227
 218 12 218 12 210 12 c 0,228,229
 203 12 203 12 199 16 c 0,230,231
 197 19 197 19 186 18 c 0,232,233
 176 17 176 17 173 21 c 2,234,-1
 165 29 l 2,235,236
 161 33 161 33 158 33 c 0,237,238
 156 33 156 33 147 42 c 1,239,240
 134 53 134 53 131 54 c 0,241,242
 125 57 125 57 119 59 c 0,243,244
 115 60 115 60 113 66 c 0,245,246
 112 72 112 72 105 76 c 0,247,248
 97 80 97 80 96 81 c 1,249,-1
 96 85 l 1,250,251
 95 89 95 89 95 91 c 0,252,253
 95 100 95 100 91 105 c 0,254,255
 86 110 86 110 86 113 c 0,256,257
 86 117 86 117 83 120 c 1,258,259
 81 124 81 124 81 126 c 0,260,261
 81 129 81 129 76 134 c 0,262,263
 72 138 72 138 72 141 c 128,-1,264
 72 144 72 144 69 146 c 0,265,266
 66 149 66 149 66 161 c 0,267,268
 66 172 66 172 68 174 c 0,269,270
 69 175 69 175 90 177 c 0,271,272
 110 179 110 179 119 177 c 0,273,274
 124 176 124 176 138 176 c 1,275,276
 146 178 146 178 148 176.5 c 128,-1,277
 150 175 150 175 156 168 c 0,278,279
 165 159 165 159 165 151 c 128,-1,280
 165 143 165 143 167 139 c 0,281,282
 168 138 168 138 170.5 134 c 128,-1,283
 173 130 173 130 174 128 c 0,284,285
 179 118 179 118 184 114 c 0,286,287
 194 104 194 104 199 98 c 0,288,289
 207 90 207 90 215 86 c 128,-1,290
 223 82 223 82 224 81 c 0,291,292
 226 79 226 79 234 79 c 0,293,294
 243 79 243 79 250 75 c 128,-1,295
 257 71 257 71 282 71 c 0,296,297
 306 71 306 71 311 74 c 0,298,299
 315 76 315 76 324 85 c 0,300,301
 332 93 332 93 347 92 c 128,-1,302
 362 91 362 91 368 95 c 1,303,304
 373 100 373 100 375 100 c 128,-1,305
 377 100 377 100 387 110 c 1,306,307
 398 119 398 119 399 119 c 0,308,309
 401 122 401 122 403 126 c 0,310,311
 407 134 407 134 409 134 c 0,312,313
 413 136 413 136 416 142 c 0,314,315
 420 149 420 149 424 151 c 0,316,317
 428 152 428 152 431 155 c 0,318,319
 432 156 432 156 432 162 c 128,-1,320
 432 168 432 168 435 170 c 0,321,322
 438 173 438 173 438 192 c 0,323,324
 438 210 438 210 442 214 c 0,325,326
 445 218 445 218 445 250 c 128,-1,327
 445 282 445 282 442 287 c 128,-1,328
 439 292 439 292 439 303 c 1,329,330
 437 318 437 318 434 323 c 2,331,-1
 427 337 l 2,332,333
 423 345 423 345 423 353 c 0,334,335
 423 362 423 362 417 365 c 1,336,337
 410 367 410 367 408 373 c 0,338,339
 406 376 406 376 396 384 c 0,340,341
 389 389 389 389 386 391 c 0,342,343
 382 395 382 395 381 397 c 0,344,345
 378 400 378 400 372 400 c 0,346,347
 366 399 366 399 357 403 c 0,348,349
 348 408 348 408 341 406 c 0,350,351
 339 406 339 406 334 405.5 c 128,-1,352
 329 405 329 405 328 405 c 0,353,354
 324 405 324 405 310 407 c 0,355,356
 297 409 297 409 293 411 c 0,357,358
 288 414 288 414 274 413 c 0,359,360
 264 412 264 412 259 409 c 0,361,362
 257 407 257 407 248 407 c 1,363,364
 236 404 236 404 232 402 c 0,365,366
 226 399 226 399 221 399 c 0,367,368
 217 399 217 399 214 396 c 0,369,370
 213 394 213 394 208 389 c 0,371,372
 207 388 207 388 204 385.5 c 128,-1,373
 201 383 201 383 199 381 c 0,374,375
 193 378 193 378 193 373 c 128,-1,376
 193 368 193 368 184 359 c 0,377,378
 174 349 174 349 174 345 c 128,-1,379
 174 341 174 341 170 337 c 0,380,381
 165 333 165 333 165 327 c 0,382,383
 165 320 165 320 164 319 c 1,384,385
 164 316 164 316 159 316 c 0,386,387
 156 316 156 316 150 312 c 0,388,389
 144 309 144 309 121 308 c 0,390,391
 98 308 98 308 92 315 c 0,392,393
 84 323 84 323 83 330 c 1,394,395
 80 338 80 338 80 363 c 0,396,397
 80 387 80 387 83 393 c 0,398,399
 83 394 83 394 84.5 399.5 c 128,-1,400
 86 405 86 405 87 408 c 0,401,402
 88 414 88 414 84 421 c 1,403,404
 79 426 79 426 79 436 c 128,-1,405
 79 446 79 446 83 450 c 1,406,407
 88 453 88 453 87 461 c 0,408,409
 87 467 87 467 83 473 c 128,-1,410
 79 479 79 479 79 482 c 0,411,412
 79 486 79 486 83 492 c 1,413,414
 88 497 88 497 88 527 c 0,415,416
 87 558 87 558 83 561 c 1,417,418
 79 567 79 567 79 577 c 1,419,420
 78 585 78 585 80 596 c 1,421,-1
 85 606 l 2,422,423
 87 610 87 610 87 637 c 0,424,425
 87 646 87 646 87 652 c 0,426,427
 87 664 87 664 90 669 c 0,428,429
 94 675 94 675 94 682 c 0,430,431
 95 691 95 691 92 694 c 0,432,433
 88 698 88 698 90 703 c 1,434,435
 92 705 92 705 94 715 c 0,436,437
 95 720 95 720 102 730 c 1,438,439
 108 736 108 736 111.5 737 c 128,-1,440
 115 738 115 738 131 738 c 0,441,442
 153 738 153 738 157 735 c 0,443,444
 162 732 162 732 170 732 c 0,445,446
 180 732 180 732 183 735 c 0,447,448
 184 735 184 735 187 736.5 c 128,-1,449
 190 738 190 738 191 738 c 0,450,451
 193 738 193 738 203 732 c 1,452,453
 210 725 210 725 218 725 c 1,454,455
 226 723 226 723 232 727 c 0,456,457
 240 731 240 731 241 731 c 0,458,459
 244 731 244 731 251 736 c 1,0,1
EndSplineSet
Validated: 1
EndChar

StartChar: uni0036
Encoding: 54 54 25
Width: 573
GlyphClass: 2
Flags: W
LayerCount: 2
Fore
SplineSet
260 749 m 128,-1,1
 263 752 263 752 294 752 c 0,2,3
 323 752 323 752 335 750 c 0,4,5
 345 748 345 748 351 746 c 128,-1,6
 357 744 357 744 363 747 c 0,7,8
 369 751 369 751 373 748 c 1,9,10
 376 747 376 747 380 747 c 1,11,12
 383 749 383 749 385 743 c 1,13,14
 388 738 388 738 391 737 c 0,15,16
 392 736 392 736 399 738 c 0,17,18
 404 739 404 739 411 733 c 0,19,20
 417 727 417 727 425 727 c 0,21,22
 432 727 432 727 434 724 c 0,23,24
 436 722 436 722 438 716 c 0,25,26
 440 711 440 711 442 711 c 0,27,28
 446 711 446 711 449 708 c 1,29,30
 451 704 451 704 458 702 c 0,31,32
 463 700 463 700 465 697 c 1,33,34
 465 694 465 694 473 686 c 0,35,36
 480 679 480 679 480 675 c 0,37,38
 480 669 480 669 487 662 c 0,39,40
 494 654 494 654 494 648 c 0,41,42
 494 641 494 641 496 639 c 0,43,44
 499 637 499 637 499 631 c 128,-1,45
 499 625 499 625 503 615 c 1,46,47
 508 608 508 608 508 600 c 0,48,49
 508 594 508 594 500 586 c 0,50,51
 493 579 493 579 486 577 c 0,52,53
 483 577 483 577 465 575 c 1,54,55
 449 575 449 575 444 579 c 0,56,57
 437 583 437 583 431 582 c 1,58,59
 424 582 424 582 418 589 c 0,60,61
 413 596 413 596 413 599 c 128,-1,62
 413 602 413 602 410 604 c 0,63,64
 408 606 408 606 408 609 c 0,65,66
 408 611 408 611 404 617 c 128,-1,67
 400 623 400 623 397 634 c 128,-1,68
 394 645 394 645 390 651 c 0,69,70
 386 656 386 656 377 662 c 0,71,72
 367 668 367 668 364 671 c 0,73,74
 360 675 360 675 354 678 c 0,75,76
 350 681 350 681 345 681 c 0,77,78
 342 681 342 681 338 685 c 0,79,80
 334 688 334 688 324 688 c 0,81,82
 313 688 313 688 311 687 c 0,83,84
 306 685 306 685 293 687 c 1,85,86
 279 688 279 688 264 685 c 0,87,88
 260 684 260 684 252 681 c 128,-1,89
 244 678 244 678 242 678 c 1,90,91
 239 676 239 676 229 671 c 0,92,93
 223 669 223 669 218 667 c 1,94,95
 211 662 211 662 205 655 c 2,96,-1
 197 645 l 1,97,98
 197 643 197 643 192 641 c 0,99,100
 188 639 188 639 181 624 c 0,101,102
 174 610 174 610 167 603 c 2,103,-1
 158 594 l 2,104,105
 155 592 155 592 155 587 c 0,106,107
 155 583 155 583 151 577 c 0,108,109
 147 570 147 570 148 561.5 c 128,-1,110
 149 553 149 553 146 547 c 0,111,112
 143 542 143 542 141 533 c 1,113,114
 141 525 141 525 137 519 c 1,115,116
 136 515 136 515 134 498 c 1,117,118
 134 480 134 480 131 473 c 0,119,120
 128 467 128 467 127 432 c 0,121,122
 127 400 127 400 129 398 c 0,123,124
 132 395 132 395 142 395 c 128,-1,125
 152 395 152 395 160 399.5 c 128,-1,126
 168 404 168 404 168 407 c 1,127,128
 171 413 171 413 174 415 c 1,129,130
 177 420 177 420 183 422 c 0,131,132
 187 423 187 423 191 429 c 0,133,134
 197 436 197 436 205 440 c 128,-1,135
 213 444 213 444 224 455 c 0,136,137
 226 457 226 457 230 460 c 0,138,139
 234 464 234 464 235 464 c 0,140,141
 238 464 238 464 241 467 c 1,142,143
 246 470 246 470 253 472 c 1,144,-1
 274 472 l 2,145,146
 286 472 286 472 291 475 c 1,147,148
 300 478 300 478 301 478 c 0,149,150
 304 478 304 478 316 482 c 1,151,152
 326 487 326 487 329 485 c 0,153,154
 332 482 332 482 338 480 c 0,155,156
 344 477 344 477 359 478 c 0,157,158
 374 480 374 480 379 475 c 0,159,160
 383 471 383 471 391 471 c 0,161,162
 398 471 398 471 400 469 c 0,163,164
 403 466 403 466 404 463 c 1,165,166
 407 459 407 459 414 457 c 128,-1,167
 421 455 421 455 424 452 c 1,168,169
 428 450 428 450 430 451 c 1,170,-1
 436 451 l 1,171,172
 442 449 442 449 447 444 c 0,173,174
 451 441 451 441 457 432 c 1,175,176
 460 425 460 425 463 425 c 128,-1,177
 466 425 466 425 470 421 c 0,178,179
 475 416 475 416 480 406 c 1,180,181
 487 397 487 397 487 393 c 0,182,183
 487 390 487 390 492 385 c 0,184,185
 498 379 498 379 498 374 c 1,186,-1
 502 366 l 1,187,188
 506 362 506 362 506 356 c 1,189,190
 507 351 507 351 514 340 c 0,191,192
 519 332 519 332 520 328.5 c 128,-1,193
 521 325 521 325 521 311 c 0,194,195
 520 292 520 292 524 285 c 0,196,197
 528 279 528 279 528 245 c 0,198,199
 527 210 527 210 523 204 c 0,200,201
 520 199 520 199 520 184 c 1,202,203
 521 170 521 170 518 168 c 0,204,205
 514 166 514 166 514 160 c 1,206,207
 512 151 512 151 510 149 c 1,208,209
 508 143 508 143 508 138 c 0,210,211
 508 131 508 131 504 127 c 1,212,213
 503 124 503 124 500 118 c 0,214,215
 498 113 498 113 494 111 c 1,216,217
 489 106 489 106 488 101 c 0,218,219
 487 98 487 98 478 87 c 1,220,221
 470 79 470 79 468 73 c 1,222,223
 468 69 468 69 463 67 c 0,224,225
 459 65 459 65 441 47 c 0,226,227
 424 30 424 30 414 25 c 0,228,229
 404 21 404 21 402 21 c 0,230,231
 398 21 398 21 393 16 c 0,232,233
 389 12 389 12 386 13 c 1,234,235
 380 13 380 13 375 11 c 0,236,237
 373 10 373 10 367 8 c 128,-1,238
 361 6 361 6 358 6 c 0,239,240
 354 5 354 5 343 5 c 1,241,242
 338 6 338 6 318 6 c 0,243,244
 301 6 301 6 297 2 c 1,245,246
 292 -1 292 -1 281.5 -1 c 128,-1,247
 271 -1 271 -1 265.5 3 c 128,-1,248
 260 7 260 7 251 7 c 1,249,250
 236 10 236 10 234 11 c 0,251,252
 224 15 224 15 223 17 c 1,253,254
 217 20 217 20 213 20 c 0,255,256
 207 20 207 20 199 24 c 0,257,258
 193 28 193 28 189 28 c 128,-1,259
 185 28 185 28 182 31 c 1,260,261
 178 33 178 33 175 33 c 0,262,263
 170 33 170 33 168 37 c 0,264,265
 166 39 166 39 156 45 c 0,266,267
 154 46 154 46 148.5 48.5 c 128,-1,268
 143 51 143 51 141 52 c 0,269,270
 134 56 134 56 132 61 c 0,271,272
 131 63 131 63 126 71 c 1,273,274
 121 76 121 76 118 85 c 0,275,276
 114 95 114 95 108 98 c 0,277,278
 104 99 104 99 97 106 c 0,279,280
 91 112 91 112 91 118 c 0,281,282
 91 122 91 122 87 134 c 0,283,284
 83 144 83 144 78 147 c 1,285,286
 74 153 74 153 74 156 c 0,287,288
 74 161 74 161 71 163 c 0,289,290
 69 165 69 165 65 173 c 0,291,292
 62 180 62 180 63 186 c 1,293,294
 65 190 65 190 63 201 c 0,295,296
 62 208 62 208 59 213 c 0,297,298
 58 215 58 215 56 233 c 0,299,300
 54 249 54 249 54 254 c 1,301,302
 56 261 56 261 54 284 c 1,303,304
 54 309 54 309 51 313 c 0,305,306
 49 317 49 317 48 353 c 0,307,308
 48 388 48 388 52 392 c 128,-1,309
 56 396 56 396 56 400 c 128,-1,310
 56 404 56 404 51 414 c 0,311,312
 46 422 46 422 46 427 c 0,313,314
 46 429 46 429 47 434 c 0,315,316
 48 444 48 444 53 449 c 0,317,318
 56 452 56 452 55 459 c 0,319,320
 54 463 54 463 54 471 c 128,-1,321
 54 479 54 479 55 490 c 1,322,323
 55 510 55 510 59 520 c 0,324,325
 62 526 62 526 62 539 c 0,326,327
 62 551 62 551 65 554 c 0,328,329
 66 555 66 555 71 565 c 0,330,331
 72 568 72 568 73 572 c 2,332,-1
 74 576 l 2,333,334
 74 579 74 579 78 583 c 0,335,336
 83 588 83 588 83 593 c 1,337,338
 85 600 85 600 88 605 c 0,339,340
 91 609 91 609 91 613 c 0,341,342
 91 614 91 614 95 620 c 0,343,344
 98 624 98 624 98 634 c 0,345,346
 98 642 98 642 103 646 c 1,347,348
 107 647 107 647 114 661 c 0,349,350
 118 669 118 669 120 671 c 128,-1,351
 122 673 122 673 127 674 c 0,352,353
 134 676 134 676 138 679 c 0,354,355
 143 682 143 682 145 688 c 128,-1,356
 147 694 147 694 153 700 c 0,357,358
 156 704 156 704 165 713 c 0,359,360
 167 714 167 714 172 718.5 c 128,-1,361
 177 723 177 723 179 725 c 0,362,363
 186 731 186 731 196 731 c 128,-1,364
 206 731 206 731 213 734 c 0,365,366
 219 737 219 737 227 737 c 1,367,368
 234 739 234 739 242 742 c 0,369,370
 252 746 252 746 254 746 c 0,371,0
 257 746 257 746 260 749 c 128,-1,1
290 415 m 1,372,373
 287 417 287 417 275 419 c 0,374,375
 272 419 272 419 269 419 c 0,376,377
 264 419 264 419 256 416 c 0,378,379
 250 413 250 413 234 407 c 0,380,381
 221 402 221 402 215 402 c 0,382,383
 210 402 210 402 201 392 c 2,384,-1
 191 380 l 1,385,386
 191 377 191 377 185 374 c 1,387,-1
 179 368 l 1,388,-1
 175 362 l 1,389,390
 171 358 171 358 167 352 c 0,391,392
 166 349 166 349 161 344 c 0,393,394
 157 340 157 340 156 327 c 1,395,396
 154 316 154 316 151 309 c 1,397,398
 148 306 148 306 148 301 c 0,399,400
 148 298 148 298 144 294 c 0,401,402
 141 291 141 291 141 288 c 128,-1,403
 141 285 141 285 144 279 c 0,404,405
 146 276 146 276 149 267 c 0,406,407
 151 260 151 260 149 251 c 128,-1,408
 147 242 147 242 149 235 c 1,409,410
 149 229 149 229 153 225 c 1,411,412
 156 220 156 220 155 204 c 0,413,414
 154 187 154 187 158 182 c 0,415,416
 162 178 162 178 162 174 c 0,417,418
 162 169 162 169 165 165 c 0,419,420
 169 158 169 158 171 149 c 0,421,422
 173 139 173 139 175 135 c 128,-1,423
 177 131 177 131 183 125 c 0,424,425
 188 121 188 121 191 113 c 1,426,427
 195 107 195 107 197 106 c 128,-1,428
 199 105 199 105 207 99 c 128,-1,429
 215 93 215 93 218 93 c 0,430,431
 222 93 222 93 229 86 c 0,432,433
 234 81 234 81 236 80 c 128,-1,434
 238 79 238 79 245 80 c 128,-1,435
 252 81 252 81 260 76 c 1,436,437
 264 72 264 72 269 71.5 c 128,-1,438
 274 71 274 71 299 70 c 1,439,440
 333 70 333 70 335 71 c 0,441,442
 337 71 337 71 346 78 c 0,443,444
 354 84 354 84 358 84 c 0,445,446
 361 84 361 84 365 88 c 0,447,448
 366 88 366 88 370 91 c 128,-1,449
 374 94 374 94 376 95 c 0,450,451
 382 97 382 97 390 107 c 0,452,453
 397 116 397 116 399 116 c 0,454,455
 400 116 400 116 406 120 c 1,456,457
 412 126 412 126 416 134 c 0,458,459
 422 144 422 144 422 147 c 0,460,461
 422 152 422 152 425 157 c 0,462,463
 428 163 428 163 428 178 c 1,464,465
 427 192 427 192 432 197 c 1,466,467
 436 203 436 203 435 222 c 0,468,469
 434 242 434 242 438 246 c 0,470,471
 442 249 442 249 442 252 c 0,472,473
 442 258 442 258 437 266 c 0,474,475
 434 272 434 272 435 281 c 1,476,477
 435 291 435 291 431 295 c 0,478,479
 428 298 428 298 428 314 c 0,480,481
 428 328 428 328 423 336 c 2,482,-1
 416 350 l 2,483,484
 416 351 416 351 414.5 355.5 c 128,-1,485
 413 360 413 360 413 361 c 0,486,487
 410 365 410 365 405 365 c 0,488,489
 399 365 399 365 396 368 c 1,490,491
 392 369 392 369 392 372 c 128,-1,492
 392 375 392 375 379 388 c 1,493,494
 367 402 367 402 359 406 c 0,495,496
 349 411 349 411 348 412 c 0,497,498
 344 414 344 414 319 414 c 1,499,500
 297 413 297 413 290 415 c 1,372,373
EndSplineSet
Validated: 1
EndChar

StartChar: uni0037
Encoding: 55 55 26
Width: 542
GlyphClass: 2
Flags: W
LayerCount: 2
Fore
SplineSet
83 738 m 1,0,-1
 90 738 l 2,1,2
 96 738 96 738 101 738 c 0,3,4
 109 738 109 738 115 738 c 0,5,6
 140 738 140 738 147 733 c 1,7,8
 155 729 155 729 156 729 c 128,-1,9
 157 729 157 729 161 731 c 0,10,11
 163 733 163 733 176 733 c 0,12,13
 185 733 185 733 209 732 c 0,14,15
 253 731 253 731 260 728 c 0,16,17
 268 725 268 725 293 725 c 0,18,19
 302 725 302 725 308 725 c 0,20,21
 319 725 319 725 324 727 c 1,22,23
 330 731 330 731 337 731 c 128,-1,24
 344 731 344 731 356 727 c 128,-1,25
 368 723 368 723 382 724 c 0,26,27
 398 726 398 726 401 726 c 128,-1,28
 404 726 404 726 414 724 c 0,29,30
 420 723 420 723 427 725 c 0,31,32
 433 727 433 727 436 723 c 0,33,34
 439 718 439 718 443 718 c 128,-1,35
 447 718 447 718 450 715 c 0,36,37
 456 711 456 711 457 711 c 0,38,39
 460 711 460 711 466 705 c 0,40,41
 469 701 469 701 475 695 c 0,42,43
 479 691 479 691 479 682 c 1,44,45
 481 674 481 674 478 666 c 0,46,47
 476 659 476 659 479 654 c 1,48,49
 480 648 480 648 480 642 c 0,50,51
 480 639 480 639 480 637 c 0,52,53
 480 629 480 629 477 626 c 0,54,55
 475 624 475 624 473 616 c 0,56,57
 472 609 472 609 469 604 c 1,58,59
 466 602 466 602 466 597 c 0,60,61
 466 593 466 593 462 589 c 1,62,63
 458 583 458 583 458 574 c 1,64,65
 456 561 456 561 454 558 c 0,66,67
 452 554 452 554 450 543 c 2,68,-1
 447 528 l 2,69,70
 447 525 447 525 442 520 c 1,71,72
 438 514 438 514 438 513 c 0,73,74
 438 511 438 511 434 505 c 1,75,76
 430 496 430 496 429 494 c 0,77,78
 427 486 427 486 422 481 c 0,79,80
 421 479 421 479 417.5 475 c 128,-1,81
 414 471 414 471 414 470 c 0,82,83
 410 463 410 463 408 454 c 0,84,85
 406 446 406 446 404 441 c 0,86,87
 403 439 403 439 403 434 c 0,88,89
 403 430 403 430 398 427 c 1,90,91
 394 422 394 422 395 417 c 1,92,93
 395 411 395 411 392 408 c 0,94,95
 388 404 388 404 386 397 c 0,96,97
 385 395 385 395 383.5 391.5 c 128,-1,98
 382 388 382 388 382 387 c 0,99,100
 382 384 382 384 377 379 c 0,101,102
 373 375 373 375 373 369 c 128,-1,103
 373 363 373 363 366 349 c 0,104,105
 365 346 365 346 361 338 c 128,-1,106
 357 330 357 330 356 327 c 0,107,108
 354 324 354 324 351.5 318 c 128,-1,109
 349 312 349 312 348 310 c 0,110,111
 345 306 345 306 345 301 c 0,112,113
 345 300 345 300 341 294 c 0,114,115
 338 291 338 291 338 284 c 0,116,117
 338 276 338 276 335 272 c 0,118,119
 332 266 332 266 332 261 c 1,120,121
 330 253 330 253 327 250 c 0,122,123
 324 246 324 246 324 240 c 0,124,125
 324 237 324 237 318 223 c 1,126,127
 316 215 316 215 309 205 c 1,128,129
 304 202 304 202 304 197 c 0,130,131
 304 193 304 193 302 191 c 1,132,133
 299 190 299 190 292 175 c 0,134,135
 284 160 284 160 283 159 c 0,136,137
 281 157 281 157 281 154 c 0,138,139
 281 149 281 149 279 147 c 0,140,141
 276 144 276 144 276 139 c 0,142,143
 276 135 276 135 272 131 c 0,144,145
 268 126 268 126 268 114 c 0,146,147
 268 103 268 103 266 99 c 0,148,149
 266 98 266 98 263 88 c 1,150,151
 263 83 263 83 260 77 c 0,152,153
 257 72 257 72 255 60 c 0,154,155
 254 54 254 54 250 42 c 1,156,157
 246 34 246 34 246 33 c 0,158,159
 246 30 246 30 242 24 c 1,160,161
 237 19 237 19 219 19 c 2,162,-1
 195 19 l 1,163,-1
 174 19 l 2,164,165
 160 19 160 19 156 21 c 1,166,167
 152 25 152 25 150 29 c 0,168,169
 146 34 146 34 147 46 c 0,170,171
 147 50 147 50 150 65 c 1,172,173
 155 75 155 75 158 77 c 1,174,175
 162 83 162 83 162 86 c 128,-1,176
 162 89 162 89 165 92 c 1,177,178
 167 96 167 96 167 103 c 0,179,180
 167 111 167 111 174 117 c 0,181,182
 181 124 181 124 181 131 c 128,-1,183
 181 138 181 138 184 140 c 0,184,185
 187 143 187 143 186 147 c 0,186,187
 186 151 186 151 190 155 c 1,188,189
 195 158 195 158 195 163 c 0,190,191
 195 167 195 167 199 173 c 0,192,193
 202 176 202 176 204 183 c 2,194,-1
 208 195 l 2,195,196
 211 204 211 204 213 207 c 0,197,198
 216 213 216 213 216 216 c 1,199,-1
 224 234 l 1,200,201
 232 248 232 248 234 259 c 0,202,203
 236 271 236 271 237 272 c 1,204,205
 237 276 237 276 242 281 c 0,206,207
 246 285 246 285 246 288 c 2,208,-1
 249 297 l 1,209,210
 253 303 253 303 253 309 c 1,211,-1
 258 324 l 2,212,213
 263 337 263 337 267 342 c 0,214,215
 273 352 273 352 273 353 c 0,216,217
 273 358 273 358 279 368 c 0,218,219
 284 378 284 378 287 382 c 0,220,221
 289 384 289 384 289 391 c 0,222,223
 289 397 289 397 291 401 c 1,224,225
 294 404 294 404 294 408 c 128,-1,226
 294 412 294 412 297 415 c 0,227,228
 301 419 301 419 301 423 c 1,229,230
 302 424 302 424 303.5 430.5 c 128,-1,231
 305 437 305 437 306 439 c 0,232,233
 307 442 307 442 309.5 448 c 128,-1,234
 312 454 312 454 312 455 c 0,235,236
 315 461 315 461 315 464 c 1,237,238
 319 475 319 475 321 479 c 0,239,240
 322 482 322 482 329 496 c 1,241,242
 334 503 334 503 336 510 c 0,243,244
 338 518 338 518 341 521 c 0,245,246
 343 524 343 524 347 534 c 0,247,248
 352 544 352 544 355 547 c 0,249,250
 361 552 361 552 361 557 c 0,251,252
 361 563 361 563 364 569 c 0,253,254
 365 570 365 570 368 576.5 c 128,-1,255
 371 583 371 583 373 586 c 0,256,257
 378 594 378 594 378 602 c 0,258,259
 378 607 378 607 382 610 c 1,260,261
 387 612 387 612 387 622 c 0,262,263
 387 631 387 631 384 637 c 0,264,265
 382 643 382 643 379 643 c 0,266,267
 375 643 375 643 367 648 c 0,268,269
 357 653 357 653 355 653 c 128,-1,270
 353 653 353 653 347 649 c 0,271,272
 340 645 340 645 334 646 c 1,273,274
 327 646 327 646 317 650 c 0,275,276
 309 653 309 653 298 653 c 0,277,278
 288 653 288 653 274 657 c 0,279,280
 263 660 263 660 256 660 c 0,281,282
 251 660 251 660 247 656 c 0,283,284
 243 651 243 651 237 652 c 0,285,286
 236 653 236 653 232 654.5 c 128,-1,287
 228 656 228 656 226 656 c 0,288,289
 220 659 220 659 186 659 c 1,290,-1
 148 661 l 2,291,292
 140 661 140 661 131 660 c 0,293,294
 115 659 115 659 108 662 c 0,295,296
 100 666 100 666 93 666 c 0,297,298
 88 666 88 666 80 668 c 1,299,300
 75 671 75 671 71 671 c 0,301,302
 68 671 68 671 64 675 c 1,303,304
 63 679 63 679 57 681 c 0,305,306
 55 681 55 681 52 684 c 1,307,308
 52 686 52 686 50 696 c 1,309,-1
 50 710 l 1,310,311
 52 716 52 716 58 722 c 0,312,313
 60 724 60 724 64.5 728 c 128,-1,314
 69 732 69 732 70 733 c 0,315,316
 77 736 77 736 83 738 c 1,0,-1
EndSplineSet
Validated: 1
EndChar

StartChar: uni0038
Encoding: 56 56 27
Width: 578
GlyphClass: 2
Flags: W
LayerCount: 2
Fore
SplineSet
324 761 m 2,0,1
 325 762 325 762 326.5 762 c 128,-1,2
 328 762 328 762 330 761 c 1,3,4
 335 761 335 761 345 759 c 128,-1,5
 355 757 355 757 362 754 c 0,6,7
 368 752 368 752 376 752 c 0,8,9
 380 752 380 752 398 744 c 0,10,11
 412 738 412 738 417 731 c 0,12,13
 421 725 421 725 426 725 c 128,-1,14
 431 725 431 725 434 722 c 0,15,16
 438 718 438 718 441 718 c 128,-1,17
 444 718 444 718 451 711 c 128,-1,18
 458 704 458 704 464 701 c 0,19,20
 470 699 470 699 478 691 c 128,-1,21
 486 683 486 683 486 681 c 0,22,23
 486 677 486 677 489 674 c 0,24,25
 493 670 493 670 495 660 c 1,26,27
 498 652 498 652 498 644 c 0,28,29
 498 637 498 637 502 632 c 1,30,31
 507 629 507 629 507 624 c 0,32,33
 507 622 507 622 513 608 c 0,34,35
 519 595 519 595 518 584 c 0,36,37
 518 580 518 580 517 574 c 1,38,-1
 517 572 l 1,39,40
 518 571 518 571 518 561 c 1,41,42
 519 553 519 553 516 548 c 1,43,44
 512 544 512 544 512 536 c 128,-1,45
 512 528 512 528 508 523 c 128,-1,46
 504 518 504 518 504 512 c 0,47,48
 504 511 504 511 502.5 506.5 c 128,-1,49
 501 502 501 502 501 501 c 0,50,51
 497 493 497 493 481 477 c 2,52,-1
 458 454 l 2,53,54
 448 444 448 444 443 440 c 0,55,56
 435 434 435 434 433 434 c 0,57,58
 430 434 430 434 418 420 c 1,59,60
 405 407 405 407 405 401 c 0,61,62
 405 397 405 397 409 389 c 0,63,64
 414 381 414 381 419 380 c 0,65,66
 425 378 425 378 428 375 c 128,-1,67
 431 372 431 372 433 372 c 0,68,69
 434 372 434 372 440 366 c 1,70,71
 443 360 443 360 448 360 c 128,-1,72
 453 360 453 360 458 355 c 1,73,74
 464 351 464 351 468 351 c 0,75,76
 471 351 471 351 473 349 c 128,-1,77
 475 347 475 347 475 345 c 0,78,79
 475 344 475 344 487 330 c 1,80,81
 499 318 499 318 501 311 c 0,82,83
 503 305 503 305 503 302 c 1,84,-1
 504 300 l 1,85,86
 509 294 509 294 512 291 c 0,87,88
 521 281 521 281 523 274 c 0,89,90
 524 269 524 269 530 260 c 1,91,92
 535 255 535 255 535 252 c 0,93,94
 535 250 535 250 534 246 c 128,-1,95
 533 242 533 242 533 218 c 1,96,97
 532 209 532 209 532 204 c 1,98,99
 534 199 534 199 534 195 c 2,100,-1
 534 191 l 2,101,102
 534 189 534 189 532 184 c 0,103,104
 529 179 529 179 526 161 c 1,105,106
 524 142 524 142 522 140 c 0,107,108
 519 138 519 138 519 133 c 128,-1,109
 519 128 519 128 516 125 c 1,110,111
 512 123 512 123 512 119 c 0,112,113
 512 114 512 114 506 105 c 1,114,115
 502 96 502 96 496 90 c 0,116,117
 493 87 493 87 493 83 c 128,-1,118
 493 79 493 79 488 76 c 0,119,120
 483 72 483 72 479 67 c 1,121,122
 477 61 477 61 466 54 c 1,123,124
 457 47 457 47 454 47 c 0,125,126
 452 47 452 47 444 39 c 128,-1,127
 436 31 436 31 434 31 c 0,128,129
 430 31 430 31 420 26 c 0,130,131
 408 21 408 21 402 21 c 0,132,133
 395 21 395 21 391 16 c 0,134,135
 387 12 387 12 376 12 c 0,136,137
 366 12 366 12 357 9 c 1,138,139
 350 5 350 5 333 5 c 1,140,141
 318 6 318 6 314 2 c 0,142,143
 311 -1 311 -1 276 -1 c 0,144,145
 240 -1 240 -1 236 3 c 128,-1,146
 232 7 232 7 221 7 c 0,147,148
 211 7 211 7 207 9 c 0,149,150
 202 12 202 12 190 12 c 128,-1,151
 178 12 178 12 174 16 c 0,152,153
 171 19 171 19 167 19 c 0,154,155
 162 19 162 19 157 24 c 1,156,157
 151 28 151 28 148 28 c 0,158,159
 146 28 146 28 134 32 c 1,160,161
 124 38 124 38 121 41 c 0,162,163
 117 47 117 47 117 49 c 0,164,165
 117 54 117 54 111 58 c 1,166,167
 106 63 106 63 98 69 c 0,168,169
 91 74 91 74 89 78 c 0,170,171
 88 79 88 79 87 82 c 128,-1,172
 86 85 86 85 86 86 c 0,173,174
 86 92 86 92 82 92 c 1,175,176
 77 94 77 94 73 104 c 0,177,178
 72 106 72 106 69 112.5 c 128,-1,179
 66 119 66 119 65 121 c 0,180,181
 62 125 62 125 58 136 c 1,182,183
 54 144 54 144 54 152 c 0,184,185
 54 158 54 158 50 168 c 0,186,187
 47 176 47 176 47 188 c 128,-1,188
 47 200 47 200 45 204 c 0,189,190
 44 206 44 206 44 209 c 128,-1,191
 44 212 44 212 45 217 c 0,192,193
 47 228 47 228 50 233 c 1,194,195
 53 241 53 241 53 252 c 1,196,197
 52 262 52 262 54 270 c 0,198,199
 56 276 56 276 63 281 c 0,200,201
 71 287 71 287 75 298 c 1,202,203
 81 310 81 310 81 315 c 1,204,-1
 84 327 l 2,205,206
 86 334 86 334 88 334 c 0,207,208
 92 336 92 336 95 339 c 0,209,210
 100 344 100 344 103 344 c 0,211,212
 104 344 104 344 115 353 c 1,213,214
 119 358 119 358 131 366 c 0,215,216
 137 369 137 369 148 380 c 1,217,218
 158 392 158 392 158 395 c 0,219,220
 158 396 158 396 157.5 400 c 128,-1,221
 157 404 157 404 157 405 c 0,222,223
 157 409 157 409 150 418 c 1,224,-1
 133 435 l 2,225,226
 125 443 125 443 115 448 c 128,-1,227
 105 453 105 453 97 464 c 0,228,229
 87 476 87 476 87 477 c 0,230,231
 87 480 87 480 80 487 c 1,232,233
 73 496 73 496 73 498 c 128,-1,234
 73 500 73 500 69 506 c 1,235,236
 64 511 64 511 66 518 c 128,-1,237
 68 525 68 525 64 538 c 0,238,239
 59 552 59 552 60 562 c 0,240,241
 60 565 60 565 60.5 569.5 c 128,-1,242
 61 574 61 574 61 575 c 0,243,244
 61 585 61 585 60 594 c 1,245,246
 60 607 60 607 62 611 c 0,247,248
 62 612 62 612 63 615.5 c 128,-1,249
 64 619 64 619 65 621 c 1,250,251
 65 629 65 629 71 641 c 0,252,253
 77 655 77 655 77 657 c 0,254,255
 77 662 77 662 82 670 c 0,256,257
 88 680 88 680 102 694 c 0,258,259
 119 711 119 711 122 713 c 0,260,261
 128 718 128 718 136 718 c 128,-1,262
 144 718 144 718 146 721 c 0,263,264
 149 725 149 725 152 725 c 0,265,266
 156 725 156 725 162 731 c 1,267,268
 173 739 173 739 183 743 c 1,269,270
 192 748 192 748 204 751 c 0,271,272
 208 752 208 752 227 752 c 1,273,274
 241 751 241 751 249 755 c 0,275,276
 256 759 256 759 290 759 c 1,277,-1
 324 761 l 2,0,1
297 700 m 0,278,279
 291 702 291 702 289 702 c 0,280,281
 286 702 286 702 285 701 c 0,282,283
 281 700 281 700 277 700 c 1,284,285
 275 699 275 699 268.5 698 c 128,-1,286
 262 697 262 697 261 697 c 0,287,288
 259 697 259 697 238 694 c 1,289,290
 226 694 226 694 214 689 c 128,-1,291
 202 684 202 684 194 679 c 1,292,-1
 176 664 l 1,293,294
 165 651 165 651 164 647 c 1,295,296
 160 641 160 641 158 639 c 0,297,298
 154 637 154 637 153 633 c 0,299,300
 152 631 152 631 146 617 c 0,301,302
 141 604 141 604 139 595 c 128,-1,303
 137 586 137 586 134 581 c 0,304,305
 131 577 131 577 132 567 c 1,306,307
 134 558 134 558 136 556 c 0,308,309
 140 552 140 552 139 545 c 128,-1,310
 138 538 138 538 143 528 c 0,311,312
 146 520 146 520 150 516 c 0,313,314
 152 514 152 514 152 508 c 0,315,316
 152 504 152 504 157 497 c 1,317,318
 159 496 159 496 162.5 492 c 128,-1,319
 166 488 166 488 167 486 c 0,320,321
 173 477 173 477 174 473 c 0,322,323
 176 465 176 465 177 464 c 0,324,325
 179 462 179 462 186 460 c 0,326,327
 194 458 194 458 197 455 c 128,-1,328
 200 452 200 452 202 448 c 0,329,330
 203 444 203 444 215 441 c 0,331,332
 229 437 229 437 230 437 c 0,333,334
 234 437 234 437 241 434 c 0,335,336
 247 432 247 432 272 428 c 1,337,338
 296 426 296 426 307 426 c 1,339,340
 320 424 320 424 324 428 c 1,341,342
 338 433 338 433 344 434 c 0,343,344
 360 439 360 439 364 443 c 0,345,346
 369 448 369 448 373 454 c 1,347,348
 375 460 375 460 381 464 c 1,349,350
 390 473 390 473 393 477 c 0,351,352
 398 484 398 484 403 493 c 1,353,354
 404 497 404 497 413 508 c 0,355,356
 419 514 419 514 419 519 c 0,357,358
 419 523 419 523 423 529 c 0,359,360
 426 533 426 533 426 567 c 1,361,362
 425 600 425 600 421 605 c 128,-1,363
 417 610 417 610 419 612 c 1,364,365
 419 614 419 614 410 634 c 1,366,367
 397 658 397 658 393 663 c 0,368,369
 384 672 384 672 381 674 c 0,370,371
 377 676 377 676 371 682 c 1,372,373
 367 688 367 688 362 688 c 0,374,375
 360 688 360 688 354 692 c 128,-1,376
 348 696 348 696 340 695 c 1,377,-1
 317 695 l 1,378,379
 303 697 303 697 297 700 c 0,278,279
286 357 m 1,380,381
 283 360 283 360 277 360 c 0,382,383
 275 360 275 360 273 360 c 0,384,385
 269 360 269 360 266 359 c 2,386,-1
 244 357 l 1,387,-1
 222 357 l 1,388,-1
 218 355 l 2,389,390
 214 353 214 353 212 351 c 0,391,392
 206 345 206 345 195 342 c 1,393,394
 186 341 186 341 179 334 c 1,395,396
 169 327 169 327 167 326 c 0,397,398
 164 324 164 324 160 320 c 1,399,-1
 160 314 l 1,400,401
 159 311 159 311 156 309 c 1,402,403
 152 303 152 303 149 300 c 1,404,405
 147 294 147 294 147 290 c 0,406,407
 147 285 147 285 140 273 c 0,408,409
 132 261 132 261 132 251 c 1,410,411
 130 240 130 240 127 238 c 1,412,413
 124 234 124 234 124 223 c 0,414,415
 124 211 124 211 128 204 c 0,416,417
 133 196 133 196 134 185 c 0,418,419
 134 174 134 174 138 168 c 1,420,421
 140 160 140 160 139 155 c 1,422,423
 139 146 139 146 142 141 c 128,-1,424
 145 136 145 136 145 129 c 0,425,426
 145 123 145 123 152 116 c 128,-1,427
 159 109 159 109 167 106 c 0,428,429
 173 103 173 103 184 95 c 1,430,431
 192 87 192 87 200 84 c 1,432,433
 207 79 207 79 211 79 c 0,434,435
 214 79 214 79 219 74 c 1,436,437
 227 70 227 70 231 70 c 0,438,439
 237 70 237 70 241 68 c 0,440,441
 247 65 247 65 280 65 c 1,442,443
 294 64 294 64 309 64 c 128,-1,444
 324 64 324 64 330 65 c 1,445,446
 346 65 346 65 350 69 c 1,447,448
 356 72 356 72 357 72 c 0,449,450
 361 72 361 72 364 75 c 0,451,452
 370 79 370 79 371 79 c 0,453,454
 374 79 374 79 378 83 c 1,455,-1
 389 90 l 1,456,457
 395 92 395 92 406 105 c 1,458,459
 418 116 418 116 423 125 c 0,460,461
 429 135 429 135 432 141 c 0,462,463
 434 146 434 146 437 156 c 0,464,465
 438 158 438 158 439 165 c 128,-1,466
 440 172 440 172 440 174 c 0,467,468
 440 184 440 184 444 190 c 1,469,470
 446 196 446 196 446 204 c 0,471,472
 446 208 446 208 446 214 c 0,473,474
 446 232 446 232 444 240 c 0,475,476
 443 243 443 243 440 255 c 1,477,478
 440 263 440 263 436 271 c 0,479,480
 433 277 433 277 431 283 c 1,481,482
 429 285 429 285 426 291 c 2,483,-1
 422 299 l 1,484,-1
 416 311 l 2,485,486
 411 320 411 320 408 321 c 1,487,488
 402 321 402 321 400 320 c 1,489,490
 396 320 396 320 394 323 c 2,491,-1
 386 331 l 1,492,493
 378 335 378 335 374 335 c 128,-1,494
 370 335 370 335 366 339 c 0,495,496
 363 343 363 343 351 344 c 1,497,498
 336 344 336 344 331 348 c 1,499,500
 325 351 325 351 320 351 c 128,-1,501
 315 351 315 351 309 354 c 0,502,503
 305 356 305 356 296 356 c 1,504,505
 291 355 291 355 286 357 c 1,380,381
EndSplineSet
Validated: 1
EndChar

StartChar: uni0039
Encoding: 57 57 28
Width: 581
GlyphClass: 2
Flags: W
LayerCount: 2
Fore
SplineSet
219 748 m 0,0,1
 228 753 228 753 238 753 c 0,2,3
 242 753 242 753 256 752 c 1,4,5
 278 752 278 752 290 749 c 1,6,7
 296 746 296 746 301 746 c 0,8,9
 305 746 305 746 309 750 c 0,10,11
 313 753 313 753 318 753 c 0,12,13
 322 753 322 753 328 749 c 0,14,15
 336 745 336 745 339 745 c 0,16,17
 345 745 345 745 353 740 c 1,18,19
 362 737 362 737 369 730 c 1,20,21
 374 723 374 723 377 723 c 0,22,23
 382 723 382 723 391 720 c 0,24,25
 403 717 403 717 414 711 c 1,26,-1
 426 706 l 2,27,28
 427 706 427 706 440 695 c 0,29,30
 454 683 454 683 456 682 c 1,31,32
 460 682 460 682 470 668 c 0,33,34
 481 653 481 653 482 653 c 0,35,36
 485 652 485 652 485 645 c 0,37,38
 485 637 485 637 490 629 c 2,39,-1
 498 613 l 2,40,41
 499 611 499 611 501 608 c 128,-1,42
 503 605 503 605 503 604 c 0,43,44
 505 602 505 602 507 594 c 1,45,46
 508 585 508 585 506 577 c 0,47,48
 504 567 504 567 504 565 c 0,49,50
 504 560 504 560 510 552 c 0,51,52
 511 550 511 550 514 544.5 c 128,-1,53
 517 539 517 539 518 537 c 0,54,55
 522 533 522 533 522 528 c 0,56,57
 522 521 522 521 523 521 c 0,58,59
 525 519 525 519 525 511 c 0,60,61
 525 502 525 502 529 498 c 1,62,63
 533 491 533 491 534 472 c 1,64,-1
 534 442 l 1,65,66
 532 433 532 433 535 429 c 1,67,68
 536 426 536 426 536 424 c 128,-1,69
 536 422 536 422 535 420 c 0,70,71
 533 414 533 414 533 372 c 0,72,73
 533 364 533 364 532.5 343 c 128,-1,74
 532 322 532 322 531 319 c 1,75,76
 531 310 531 310 529 304 c 0,77,78
 527 296 527 296 527 290 c 128,-1,79
 527 284 527 284 529 274 c 0,80,81
 530 265 530 265 528 260 c 1,82,83
 525 256 525 256 525 248 c 0,84,85
 525 241 525 241 520 233 c 1,86,87
 516 223 516 223 517 215 c 0,88,89
 518 208 518 208 515 202 c 128,-1,90
 512 196 512 196 512 191 c 0,91,92
 512 184 512 184 508 182 c 1,93,94
 504 178 504 178 504 175 c 0,95,96
 504 173 504 173 500 167 c 0,97,98
 497 164 497 164 497 157 c 0,99,100
 497 153 497 153 490 139 c 1,101,102
 483 129 483 129 483 124 c 0,103,104
 483 122 483 122 481 120 c 0,105,106
 478 117 478 117 475 110 c 2,107,-1
 470 95 l 2,108,109
 469 90 469 90 458 81 c 0,110,111
 452 77 452 77 439 64 c 0,112,113
 435 59 435 59 424 48 c 0,114,115
 416 40 416 40 410 40 c 0,116,117
 403 40 403 40 398 35 c 0,118,119
 397 35 397 35 380 22 c 1,120,121
 367 14 367 14 360 14 c 128,-1,122
 353 14 353 14 349 9 c 0,123,124
 346 5 346 5 343 4 c 128,-1,125
 340 3 340 3 326 4 c 0,126,127
 305 5 305 5 302 3 c 0,128,129
 299 0 299 0 294 0 c 0,130,131
 287 0 287 0 280 3 c 0,132,133
 268 7 268 7 259 6 c 0,134,135
 249 5 249 5 243 9 c 0,136,137
 238 13 238 13 218 13 c 1,138,139
 196 15 196 15 194 17 c 0,140,141
 190 19 190 19 187 19 c 0,142,143
 183 19 183 19 176 24 c 0,144,145
 175 25 175 25 170.5 28 c 128,-1,146
 166 31 166 31 165 32 c 0,147,148
 162 34 162 34 146 36 c 0,149,150
 135 37 135 37 131.5 38.5 c 128,-1,151
 128 40 128 40 121 47 c 0,152,153
 112 55 112 55 106 66 c 1,154,155
 102 76 102 76 102 79 c 0,156,157
 102 81 102 81 98 85 c 0,158,159
 95 88 95 88 95 92 c 0,160,161
 95 94 95 94 89 102 c 1,162,163
 83 108 83 108 81 116 c 0,164,165
 81 119 81 119 78 125 c 1,166,167
 75 127 75 127 75 131 c 0,168,169
 75 134 75 134 71 142 c 1,170,171
 67 147 67 147 67 162 c 1,172,173
 68 175 68 175 72 181 c 0,174,175
 75 187 75 187 79 189 c 1,176,177
 82 189 82 189 96 191 c 0,178,179
 108 193 108 193 113 191 c 0,180,181
 116 190 116 190 123 190 c 0,182,183
 127 190 127 190 133 187 c 128,-1,184
 139 184 139 184 142 184 c 0,185,186
 148 183 148 183 154 176 c 0,187,188
 159 170 159 170 161 163 c 2,189,-1
 164 154 l 1,190,191
 167 150 167 150 167 147 c 0,192,193
 167 146 167 146 171 140 c 1,194,195
 176 135 176 135 176 131 c 1,196,197
 177 128 177 128 182 118 c 0,198,199
 183 117 183 117 189.5 109.5 c 128,-1,200
 196 102 196 102 200 98 c 0,201,202
 214 84 214 84 218 84 c 128,-1,203
 222 84 222 84 228 81 c 0,204,205
 235 78 235 78 285 78 c 0,206,207
 323 78 323 78 330.5 79 c 128,-1,208
 338 80 338 80 345.5 84.5 c 128,-1,209
 353 89 353 89 360 95 c 0,210,211
 365 100 365 100 371 100 c 0,212,213
 377 101 377 101 378 108 c 1,214,215
 381 117 381 117 393 127 c 1,216,217
 406 140 406 140 406 142 c 0,218,219
 406 145 406 145 413 155 c 0,220,221
 414 158 414 158 417 162.5 c 128,-1,222
 420 167 420 167 420 168 c 0,223,224
 420 171 420 171 422 175 c 1,225,226
 425 178 425 178 425 185 c 128,-1,227
 425 192 425 192 428 196 c 0,228,229
 432 201 432 201 433 214 c 0,230,231
 433 226 433 226 437 230 c 0,232,233
 440 234 440 234 439 253 c 1,234,-1
 439 274 l 2,235,236
 439 288 439 288 440 303 c 0,237,238
 441 328 441 328 439 332 c 0,239,240
 437 334 437 334 427 336 c 0,241,242
 421 337 421 337 418 335 c 128,-1,243
 415 333 415 333 405 322 c 0,244,245
 392 307 392 307 386 306 c 0,246,247
 381 306 381 306 375 300 c 1,248,249
 368 295 368 295 363 293 c 0,250,251
 361 293 361 293 356.5 292 c 128,-1,252
 352 291 352 291 350 290 c 0,253,254
 343 288 343 288 339 285 c 0,255,256
 333 281 333 281 330 281 c 0,257,258
 326 281 326 281 318 277 c 128,-1,259
 310 273 310 273 298 273 c 128,-1,260
 286 273 286 273 281 269 c 0,261,262
 275 265 275 265 268 266 c 0,263,264
 256 269 256 269 254 270 c 0,265,266
 245 272 245 272 228 274 c 1,267,268
 209 275 209 275 205 278 c 0,269,270
 200 281 200 281 197 281 c 0,271,272
 192 281 192 281 182 286 c 0,273,274
 170 291 170 291 170 293 c 0,275,276
 170 294 170 294 166 298 c 128,-1,277
 162 302 162 302 160 302 c 2,278,-1
 153 302 l 2,279,280
 149 302 149 302 143 308 c 0,281,282
 137 313 137 313 130 315 c 1,283,284
 123 315 123 315 121 319 c 1,285,286
 118 322 118 322 116 328 c 1,287,288
 116 335 116 335 108 340 c 0,289,290
 100 346 100 346 98 352 c 2,291,-1
 89 370 l 1,292,-1
 79 385 l 1,293,294
 74 390 74 390 74 393 c 1,295,-1
 71 399 l 1,296,297
 68 402 68 402 68 410 c 128,-1,298
 68 418 68 418 65 424 c 0,299,300
 61 432 61 432 61 434 c 0,301,302
 61 438 61 438 57 442 c 0,303,304
 53 447 53 447 53 458 c 0,305,306
 53 475 53 475 52 482 c 0,307,308
 50 495 50 495 49 496 c 0,309,310
 47 498 47 498 47 509 c 2,311,-1
 47 528 l 2,312,313
 47 539 47 539 50 542 c 1,314,315
 53 551 53 551 53 559 c 1,316,317
 55 574 55 574 57 576 c 0,318,319
 57 577 57 577 58 579 c 0,320,321
 61 587 61 587 62 591 c 0,322,323
 63 593 63 593 66 606 c 1,324,325
 66 614 66 614 69 618 c 128,-1,326
 72 622 72 622 76 637 c 1,327,328
 81 651 81 651 84 653 c 0,329,330
 86 654 86 654 93 663 c 0,331,332
 98 671 98 671 98 674 c 128,-1,333
 98 677 98 677 105 686 c 0,334,335
 109 691 109 691 116 698 c 1,336,337
 119 703 119 703 124 703 c 1,338,-1
 136 707 l 1,339,340
 143 711 143 711 145 715 c 0,341,342
 146 719 146 719 157 725 c 0,343,344
 164 729 164 729 176 734 c 0,345,346
 188 738 188 738 194 738 c 0,347,348
 202 738 202 738 206 740 c 0,349,350
 207 741 207 741 212 744 c 128,-1,351
 217 747 217 747 219 748 c 0,0,1
314 678 m 1,352,353
 308 681 308 681 275 681 c 0,354,355
 249 681 249 681 242.5 680 c 128,-1,356
 236 679 236 679 223 672 c 1,357,358
 207 665 207 665 201 659 c 0,359,360
 194 653 194 653 190 651 c 0,361,362
 187 649 187 649 178 638 c 1,363,-1
 170 626 l 1,364,365
 170 624 170 624 166 620 c 0,366,367
 161 615 161 615 161 611 c 0,368,369
 161 606 161 606 158 603 c 0,370,371
 154 600 154 600 154 593 c 128,-1,372
 154 586 154 586 151 580 c 1,373,374
 147 576 147 576 147 568 c 128,-1,375
 147 560 147 560 142 554 c 1,376,377
 138 547 138 547 138 543 c 0,378,379
 138 541 138 541 138 538 c 0,380,381
 140 526 140 526 140 522 c 1,382,383
 142 516 142 516 140 505 c 1,384,385
 140 493 140 493 141 491 c 2,386,-1
 142 486 l 2,387,388
 142 482 142 482 142 479 c 0,389,390
 142 470 142 470 145 465 c 0,391,392
 148 461 148 461 147 454 c 1,393,394
 145 449 145 449 148 444 c 0,395,396
 149 443 149 443 152 438.5 c 128,-1,397
 155 434 155 434 156 433 c 0,398,399
 161 425 161 425 161 415 c 0,400,401
 162 404 162 404 176 390 c 1,402,403
 190 378 190 378 193 372 c 0,404,405
 196 368 196 368 201 365 c 0,406,407
 205 363 205 363 209 357 c 128,-1,408
 213 351 213 351 219 348 c 0,409,410
 225 346 225 346 235 346 c 128,-1,411
 245 346 245 346 250 341 c 0,412,413
 255 337 255 337 262 338 c 0,414,415
 268 339 268 339 276 336 c 1,416,417
 283 332 283 332 298 332 c 0,418,419
 303 332 303 332 306 332 c 0,420,421
 314 332 314 332 321 335 c 0,422,423
 331 339 331 339 333 339 c 0,424,425
 338 339 338 339 344 342 c 1,426,427
 353 344 353 344 356 349 c 1,428,429
 364 354 364 354 366 355 c 0,430,431
 372 358 372 358 381 367 c 0,432,433
 389 375 389 375 393 377 c 0,434,435
 396 379 396 379 404 392 c 0,436,437
 411 404 411 404 411 411 c 0,438,439
 411 417 411 417 414 420 c 0,440,441
 416 422 416 422 419 428 c 1,442,443
 419 432 419 432 423 436 c 1,444,445
 426 441 426 441 426 497 c 0,446,447
 426 554 426 554 423 559 c 128,-1,448
 420 564 420 564 420 568 c 0,449,450
 420 571 420 571 416 577 c 128,-1,451
 412 583 412 583 412 592 c 1,452,453
 410 603 410 603 407 606 c 0,454,455
 404 610 404 610 404 615 c 0,456,457
 404 619 404 619 399 626 c 0,458,459
 392 636 392 636 385 641 c 1,460,461
 375 651 375 651 372 655 c 0,462,463
 367 660 367 660 362 660 c 0,464,465
 358 660 358 660 349 667 c 0,466,467
 341 674 341 674 329 674 c 0,468,469
 318 674 318 674 314 678 c 1,352,353
EndSplineSet
Validated: 1
EndChar

StartChar: uni003A
Encoding: 58 58 29
Width: 375
GlyphClass: 2
Flags: W
LayerCount: 2
Fore
SplineSet
181 513 m 0,0,1
 188 513 188 513 195.5 513.5 c 128,-1,2
 203 514 203 514 208 514 c 2,3,-1
 213 514 l 2,4,5
 216 514 216 514 224 508 c 0,6,7
 234 501 234 501 234 493 c 0,8,9
 235 485 235 485 239 478 c 0,10,11
 242 474 242 474 242 472 c 128,-1,12
 242 470 242 470 241 466 c 0,13,14
 239 459 239 459 237 457 c 0,15,16
 234 454 234 454 235 443 c 0,17,18
 235 432 235 432 230 424 c 0,19,20
 225 417 225 417 218 416 c 1,21,22
 213 414 213 414 188 414 c 1,23,24
 166 415 166 415 162 419 c 0,25,26
 157 424 157 424 151 424 c 1,27,28
 145 426 145 426 143 428 c 0,29,30
 141 432 141 432 141 443 c 0,31,32
 141 455 141 455 138 461 c 0,33,34
 134 467 134 467 134 473 c 0,35,36
 134 480 134 480 138 484 c 128,-1,37
 142 488 142 488 142 492 c 0,38,39
 142 498 142 498 143 500 c 1,40,41
 143 504 143 504 147 508 c 0,42,43
 152 513 152 513 181 513 c 0,0,1
170 130 m 0,44,45
 173 133 173 133 185 133 c 128,-1,46
 197 133 197 133 201 131 c 0,47,48
 202 131 202 131 206 130 c 128,-1,49
 210 129 210 129 213 129 c 0,50,51
 225 127 225 127 227 125 c 0,52,53
 232 122 232 122 234 114 c 0,54,55
 237 104 237 104 239 100 c 128,-1,56
 241 96 241 96 241 77 c 0,57,58
 241 62 241 62 239 56 c 0,59,60
 238 55 238 55 236 52.5 c 128,-1,61
 234 50 234 50 233 49 c 0,62,63
 231 47 231 47 227 39 c 0,64,65
 223 32 223 32 220 30 c 0,66,67
 214 27 214 27 191 27 c 0,68,69
 164 27 164 27 158 30 c 1,70,71
 153 31 153 31 145 39 c 1,72,73
 140 46 140 46 140 49 c 0,74,75
 140 52 140 52 142 69 c 0,76,77
 143 83 143 83 141 90 c 0,78,79
 140 93 140 93 140 102 c 1,80,81
 142 109 142 109 149 116 c 0,82,83
 158 124 158 124 162 126 c 1,84,85
 166 126 166 126 170 130 c 0,44,45
EndSplineSet
Validated: 1
EndChar

StartChar: uni003B
Encoding: 59 59 30
Width: 344
GlyphClass: 2
Flags: W
LayerCount: 2
Fore
SplineSet
221 520 m 0,0,1
 225 527 225 527 230 527 c 0,2,3
 234 527 234 527 239 522 c 128,-1,4
 244 517 244 517 244 513 c 0,5,6
 244 512 244 512 247 506 c 0,7,8
 251 497 251 497 251 492 c 0,9,10
 251 488 251 488 247 481 c 128,-1,11
 243 474 243 474 244 464 c 0,12,13
 244 457 244 457 248 451 c 1,14,15
 250 446 250 446 248 438 c 0,16,17
 247 436 247 436 245 431 c 128,-1,18
 243 426 243 426 243 425 c 0,19,20
 240 420 240 420 229 413 c 128,-1,21
 218 406 218 406 212 406 c 0,22,23
 204 406 204 406 196 409 c 128,-1,24
 188 412 188 412 173 414 c 0,25,26
 162 415 162 415 160 416 c 128,-1,27
 158 417 158 417 154 423 c 0,28,29
 149 430 149 430 149 438 c 0,30,31
 149 441 149 441 150 452 c 0,32,33
 151 461 151 461 151 471 c 128,-1,34
 151 481 151 481 150 486 c 1,35,36
 150 500 150 500 151 502 c 0,37,38
 154 506 154 506 159 505 c 128,-1,39
 164 504 164 504 171 508 c 1,40,41
 177 513 177 513 187 513 c 2,42,-1
 206 513 l 2,43,44
 216 513 216 513 221 520 c 0,0,1
202 117 m 1,45,46
 211 120 211 120 224 120 c 0,47,48
 239 120 239 120 241 118 c 1,49,50
 243 118 243 118 243 111 c 128,-1,51
 243 104 243 104 239 96 c 1,52,53
 235 80 235 80 235 78 c 0,54,55
 234 68 234 68 228 61 c 2,56,-1
 222 53 l 1,57,58
 222 50 222 50 215 43 c 0,59,60
 208 35 208 35 208 22 c 128,-1,61
 208 9 208 9 201 2 c 128,-1,62
 194 -5 194 -5 194 -11 c 128,-1,63
 194 -17 194 -17 191 -20 c 1,64,65
 188 -26 188 -26 188 -28 c 0,66,67
 188 -34 188 -34 185 -37 c 0,68,69
 181 -41 181 -41 181 -44 c 0,70,71
 181 -46 181 -46 177 -50 c 0,72,73
 172 -55 172 -55 172 -60 c 128,-1,74
 172 -65 172 -65 170 -75 c 1,75,76
 167 -83 167 -83 160 -88 c 1,77,78
 153 -95 153 -95 153 -98 c 0,79,80
 153 -102 153 -102 150 -105 c 0,81,82
 145 -110 145 -110 143 -111 c 0,83,84
 139 -113 139 -113 130 -113 c 0,85,86
 120 -113 120 -113 117 -110 c 1,87,88
 111 -107 111 -107 110 -107 c 0,89,90
 106 -107 106 -107 101 -102 c 1,91,92
 97 -96 97 -96 97 -94 c 0,93,94
 97 -90 97 -90 100 -86 c 0,95,96
 102 -82 102 -82 102 -77 c 128,-1,97
 102 -72 102 -72 105 -68 c 1,98,99
 107 -62 107 -62 107 -58 c 0,100,101
 107 -55 107 -55 111 -41 c 0,102,103
 116 -20 116 -20 117 -15 c 0,104,105
 120 -5 120 -5 122 12 c 0,106,107
 124 27 124 27 131 34 c 128,-1,108
 138 41 138 41 137 48 c 0,109,110
 136 56 136 56 140 65 c 0,111,112
 144 72 144 72 144 81 c 0,113,114
 144 89 144 89 148 92 c 0,115,116
 151 94 151 94 151 99 c 0,117,118
 151 105 151 105 155 109 c 0,119,120
 158 113 158 113 176 113 c 128,-1,121
 194 113 194 113 202 117 c 1,45,46
EndSplineSet
Validated: 1
EndChar

StartChar: uni003C
Encoding: 60 60 31
Width: 753
GlyphClass: 2
Flags: W
LayerCount: 2
Fore
SplineSet
602 558 m 0,0,1
 613 561 613 561 620 561 c 0,2,3
 623 561 623 561 626 561 c 0,4,5
 634 561 634 561 637 558 c 0,6,7
 638 557 638 557 637.5 554.5 c 128,-1,8
 637 552 637 552 636 550 c 0,9,10
 634 544 634 544 634 539 c 0,11,12
 634 535 634 535 631 532 c 0,13,14
 628 530 628 530 626 523 c 1,15,16
 620 514 620 514 616 511 c 0,17,18
 610 505 610 505 602 503 c 0,19,20
 600 503 600 503 596 502.5 c 128,-1,21
 592 502 592 502 591 502 c 0,22,23
 584 502 584 502 576 497 c 128,-1,24
 568 492 568 492 560 484 c 0,25,26
 559 483 559 483 556 479.5 c 128,-1,27
 553 476 553 476 553 475 c 128,-1,28
 553 474 553 474 551.5 472.5 c 128,-1,29
 550 471 550 471 550 470 c 0,30,31
 547 467 547 467 539 467 c 128,-1,32
 531 467 531 467 526 462 c 1,33,34
 522 456 522 456 515 457 c 0,35,36
 507 459 507 459 503 459 c 0,37,38
 497 459 497 459 497 456 c 1,39,-1
 495 454 l 2,40,41
 493 452 493 452 492 450 c 0,42,43
 488 446 488 446 480 446 c 0,44,45
 473 446 473 446 467 439 c 0,46,47
 462 432 462 432 458 432 c 128,-1,48
 454 432 454 432 449 429 c 1,49,50
 440 426 440 426 438 426 c 0,51,52
 436 425 436 425 424 417 c 1,53,54
 414 409 414 409 413 409 c 0,55,56
 410 409 410 409 405 404 c 1,57,58
 398 399 398 399 395 399 c 0,59,60
 389 399 389 399 381 394 c 1,61,62
 371 390 371 390 366 390 c 128,-1,63
 361 390 361 390 355 383 c 0,64,65
 348 376 348 376 341 376 c 0,66,67
 339 376 339 376 335 376 c 2,68,-1
 331 375 l 2,69,70
 329 374 329 374 325 368 c 1,71,72
 323 363 323 363 316 361 c 1,73,74
 310 357 310 357 309 355 c 1,75,76
 309 352 309 352 301 348 c 1,77,78
 293 342 293 342 279 342 c 0,79,80
 264 342 264 342 259 337 c 0,81,82
 258 336 258 336 253.5 333 c 128,-1,83
 249 330 249 330 248 329 c 0,84,85
 244 328 244 328 231 319 c 0,86,87
 220 311 220 311 216 311 c 0,88,89
 215 311 215 311 210 306 c 0,90,91
 204 299 204 299 199 297.5 c 128,-1,92
 194 296 194 296 192 294 c 1,93,-1
 192 292 l 2,94,95
 192 290 192 290 191 288 c 1,96,97
 191 285 191 285 197 277 c 0,98,99
 202 269 202 269 204 269 c 0,100,101
 205 269 205 269 208.5 266 c 128,-1,102
 212 263 212 263 213 262 c 0,103,104
 220 255 220 255 227 255 c 0,105,106
 233 255 233 255 238 250 c 0,107,108
 242 246 242 246 248 246 c 128,-1,109
 254 246 254 246 258 242 c 0,110,111
 261 239 261 239 266 239 c 0,112,113
 268 239 268 239 273.5 237.5 c 128,-1,114
 279 236 279 236 280 236 c 0,115,116
 288 233 288 233 291 230 c 1,117,118
 293 226 293 226 304 219 c 1,119,120
 314 211 314 211 322 209 c 1,121,122
 328 209 328 209 330 204 c 1,123,124
 334 200 334 200 340 200 c 128,-1,125
 346 200 346 200 351 195 c 1,126,127
 354 190 354 190 358 190 c 128,-1,128
 362 190 362 190 365 185 c 1,129,130
 369 181 369 181 375 182 c 0,131,132
 380 183 380 183 386 179 c 128,-1,133
 392 175 392 175 393 175 c 128,-1,134
 394 175 394 175 396 173 c 128,-1,135
 398 171 398 171 404 167 c 0,136,137
 408 164 408 164 418 159 c 0,138,139
 420 158 420 158 424 157 c 2,140,-1
 427 156 l 2,141,142
 428 156 428 156 436 150 c 1,143,144
 442 144 442 144 448 144 c 0,145,146
 453 144 453 144 461 142 c 1,147,148
 470 137 470 137 471 136 c 1,149,150
 471 134 471 134 479 132 c 0,151,152
 487 129 487 129 495 123 c 0,153,154
 497 122 497 122 502.5 117.5 c 128,-1,155
 508 113 508 113 509 112 c 0,156,157
 512 108 512 108 524 102 c 0,158,159
 534 96 534 96 536 96 c 0,160,161
 540 96 540 96 546 90 c 1,162,163
 554 84 554 84 563 83 c 0,164,165
 572 83 572 83 577 80 c 0,166,167
 578 79 578 79 580 78 c 0,168,169
 586 73 586 73 589 72 c 128,-1,170
 592 71 592 71 599 68 c 0,171,172
 602 67 602 67 604 66 c 0,173,174
 611 64 611 64 616 61 c 1,175,176
 619 58 619 58 627 56 c 0,177,178
 633 55 633 55 635 53 c 128,-1,179
 637 51 637 51 642 42 c 0,180,181
 651 28 651 28 656 21 c 128,-1,182
 661 14 661 14 663 9 c 1,183,184
 663 2 663 2 662 -2 c 0,185,186
 660 -10 660 -10 655 -13 c 0,187,188
 650 -17 650 -17 643 -17 c 0,189,190
 640 -17 640 -17 635 -17 c 0,191,192
 619 -15 619 -15 617 -14 c 0,193,194
 614 -11 614 -11 611 -4 c 128,-1,195
 608 3 608 3 604 3 c 0,196,197
 602 3 602 3 596 9 c 0,198,199
 594 11 594 11 585 17 c 1,200,201
 579 19 579 19 574 19 c 128,-1,202
 569 19 569 19 556 27 c 0,203,204
 554 29 554 29 548.5 33 c 128,-1,205
 543 37 543 37 542 38 c 0,206,207
 540 40 540 40 531 40 c 128,-1,208
 522 40 522 40 518 44 c 0,209,210
 516 45 516 45 512.5 46.5 c 128,-1,211
 509 48 509 48 508 48 c 0,212,213
 502 50 502 50 497 56 c 0,214,215
 495 59 495 59 483 71 c 1,216,217
 471 81 471 81 467 81 c 0,218,219
 463 82 463 82 455 82 c 0,220,221
 449 82 449 82 442 87 c 0,222,223
 440 89 440 89 436 92 c 2,224,-1
 433 94 l 2,225,226
 430 96 430 96 426 101 c 1,227,228
 424 107 424 107 415 112 c 0,229,230
 406 118 406 118 398 118 c 0,231,232
 388 118 388 118 381 125 c 0,233,234
 373 132 373 132 366 131 c 0,235,236
 357 130 357 130 353 133 c 0,237,238
 347 137 347 137 344 137 c 128,-1,239
 341 137 341 137 332 144 c 1,240,241
 323 153 323 153 317 156 c 0,242,243
 312 159 312 159 308 159 c 1,244,245
 306 158 306 158 303 161 c 1,246,247
 300 166 300 166 295 168 c 0,248,249
 289 171 289 171 283 179 c 0,250,251
 279 185 279 185 277 186 c 128,-1,252
 275 187 275 187 266 186 c 1,253,254
 254 186 254 186 252 189 c 0,255,256
 251 192 251 192 244 196 c 1,257,258
 237 198 237 198 230 203 c 1,259,260
 220 207 220 207 215 207 c 0,261,262
 207 207 207 207 196 219 c 1,263,264
 183 230 183 230 182 230 c 0,265,266
 180 230 180 230 171 239 c 0,267,268
 164 246 164 246 158 249 c 1,269,270
 154 249 154 249 150 251 c 0,271,272
 142 255 142 255 137 258 c 0,273,274
 130 263 130 263 126 263 c 0,275,276
 124 263 124 263 116 271 c 0,277,278
 109 279 109 279 104 279 c 128,-1,279
 99 279 99 279 96 282 c 0,280,281
 92 286 92 286 92 293 c 0,282,283
 92 296 92 296 93 300 c 0,284,285
 94 301 94 301 96 303.5 c 128,-1,286
 98 306 98 306 99 307 c 0,287,288
 102 310 102 310 113 314 c 1,289,290
 122 316 122 316 134 327 c 1,291,292
 142 337 142 337 146 337 c 0,293,294
 148 337 148 337 152 339 c 0,295,296
 154 340 154 340 165 343 c 0,297,298
 174 345 174 345 179 348 c 2,299,-1
 184 350 l 2,300,301
 190 352 190 352 193 353 c 0,302,303
 201 357 201 357 207 357 c 1,304,305
 215 360 215 360 219 364 c 0,306,307
 225 370 225 370 233 374 c 0,308,309
 239 378 239 378 245 378 c 1,310,311
 251 380 251 380 252 381 c 0,312,313
 252 382 252 382 261 387 c 0,314,315
 269 392 269 392 273 392 c 0,316,317
 276 392 276 392 287 403 c 0,318,319
 299 414 299 414 306 414 c 0,320,321
 311 414 311 414 323 418 c 1,322,-1
 339 426 l 1,323,324
 346 431 346 431 346 434 c 1,325,326
 347 436 347 436 350 439 c 0,327,328
 352 441 352 441 364 445 c 0,329,330
 368 446 368 446 374.5 447.5 c 128,-1,331
 381 449 381 449 382 449 c 0,332,333
 390 451 390 451 396 454 c 0,334,335
 401 456 401 456 407 459 c 0,336,337
 408 460 408 460 411.5 461.5 c 128,-1,338
 415 463 415 463 418 465 c 2,339,-1
 428 469 l 2,340,341
 429 469 429 469 439 475 c 0,342,343
 443 478 443 478 448 483 c 1,344,-1
 454 487 l 1,345,346
 459 492 459 492 471 497 c 0,347,348
 485 503 485 503 489 503 c 1,349,350
 495 505 495 505 498 508 c 0,351,352
 499 509 499 509 509 514 c 1,353,354
 519 516 519 516 528 518 c 1,355,356
 538 518 538 518 543 525 c 1,357,358
 545 530 545 530 555 537 c 0,359,360
 564 544 564 544 565 548 c 0,361,362
 567 553 567 553 570 555 c 128,-1,363
 573 557 573 557 581 555 c 1,364,365
 591 554 591 554 602 558 c 0,0,1
EndSplineSet
Validated: 1
EndChar

StartChar: uni003D
Encoding: 61 61 32
Width: 801
GlyphClass: 2
Flags: W
LayerCount: 2
Fore
SplineSet
146 440 m 1,0,1
 152 441 152 441 161 441 c 1,2,3
 163 440 163 440 172.5 439.5 c 128,-1,4
 182 439 182 439 186 439 c 2,5,-1
 210 439 l 1,6,-1
 243 439 l 1,7,8
 259 438 259 438 278 438 c 2,9,-1
 290 438 l 2,10,11
 302 438 302 438 323 438.5 c 128,-1,12
 344 439 344 439 363 439 c 0,13,14
 406 440 406 440 445 440 c 2,15,-1
 565 440 l 1,16,17
 653 439 653 439 668 438.5 c 128,-1,18
 683 438 683 438 687 434 c 0,19,20
 692 429 692 429 692 424 c 0,21,22
 692 420 692 420 695 417 c 1,23,24
 697 413 697 413 697 410 c 0,25,26
 697 405 697 405 695 403 c 0,27,28
 692 400 692 400 692 396 c 0,29,30
 692 391 692 391 687 383 c 0,31,32
 682 374 682 374 676 374 c 1,33,34
 674 373 674 373 670 371 c 0,35,36
 669 370 669 370 668 370 c 0,37,38
 666 368 666 368 662 368 c 1,39,40
 661 369 661 369 658 370 c 128,-1,41
 655 371 655 371 654 371 c 0,42,43
 651 374 651 374 645 374 c 0,44,45
 640 374 640 374 630 372 c 0,46,47
 619 370 619 370 610 373 c 0,48,49
 600 376 600 376 594 373 c 0,50,51
 589 370 589 370 584 372 c 0,52,53
 581 374 581 374 566 374 c 0,54,55
 554 374 554 374 546 372 c 0,56,57
 536 370 536 370 534 372 c 1,58,-1
 530 372 l 2,59,60
 526 372 526 372 519 373 c 128,-1,61
 512 374 512 374 507 374 c 2,62,-1
 475 374 l 1,63,-1
 436 374 l 1,64,65
 419 375 419 375 399 375 c 1,66,67
 397 376 397 376 374 376 c 128,-1,68
 351 376 351 376 320 375 c 1,69,70
 246 375 246 375 241 372 c 0,71,72
 235 368 235 368 231 368 c 128,-1,73
 227 368 227 368 225 370 c 128,-1,74
 223 372 223 372 216 374 c 0,75,76
 208 377 208 377 205 375 c 0,77,78
 203 374 203 374 199 374 c 1,79,80
 197 375 197 375 188 371 c 0,81,82
 180 367 180 367 174 367 c 0,83,84
 167 367 167 367 163 370 c 0,85,86
 158 374 158 374 149 374 c 0,87,88
 139 374 139 374 136 371 c 1,89,90
 131 368 131 368 121 371 c 0,91,92
 111 375 111 375 109 375 c 1,93,94
 106 377 106 377 106 381 c 0,95,96
 106 386 106 386 103 389 c 1,97,-1
 99 401 l 2,98,99
 98 405 98 405 98 406 c 0,100,101
 98 409 98 409 103 414 c 0,102,103
 109 420 109 420 108 425 c 0,104,105
 106 430 106 430 112 435 c 1,106,107
 117 441 117 441 125 440 c 1,108,-1
 146 440 l 1,0,1
229 223 m 2,109,110
 230 224 230 224 233 224 c 0,111,112
 235 224 235 224 241 220 c 1,113,114
 245 216 245 216 253 214 c 1,115,116
 264 214 264 214 272 218 c 0,117,118
 281 222 281 222 297 222 c 1,119,120
 315 220 315 220 318 218 c 0,121,122
 324 215 324 215 337 215 c 128,-1,123
 350 215 350 215 353 218 c 128,-1,124
 356 221 356 221 447 222 c 0,125,126
 464 222 464 222 482.5 222 c 128,-1,127
 501 222 501 222 513 222.5 c 128,-1,128
 525 223 525 223 533.5 223 c 128,-1,129
 542 223 542 223 543 223 c 0,130,131
 569 223 569 223 595 222 c 0,132,133
 607 222 607 222 619.5 222.5 c 128,-1,134
 632 223 632 223 640 223 c 128,-1,135
 648 223 648 223 649 223 c 0,136,137
 655 225 655 225 660 222 c 0,138,139
 664 220 664 220 669 220 c 1,140,141
 673 221 673 221 676 218 c 0,142,143
 678 216 678 216 683 216 c 0,144,145
 687 216 687 216 695 212 c 1,146,-1
 704 206 l 2,147,148
 705 205 705 205 705 204 c 0,149,150
 705 202 705 202 703 200 c 0,151,152
 702 199 702 199 699 194 c 0,153,154
 698 192 698 192 697 191 c 0,155,156
 695 187 695 187 689 180 c 1,157,158
 684 172 684 172 684 167 c 0,159,160
 684 160 684 160 678 155 c 128,-1,161
 672 150 672 150 656 150 c 2,162,-1
 609 150 l 1,163,-1
 569 150 l 2,164,165
 554 150 554 150 548 151 c 1,166,-1
 503 151 l 1,167,168
 467 149 467 149 466 149 c 0,169,170
 464 148 464 148 463 148 c 0,171,172
 461 148 461 148 458 151 c 1,173,174
 453 154 453 154 447 155 c 128,-1,175
 441 156 441 156 436 153 c 0,176,177
 432 150 432 150 399 150 c 1,178,179
 381 151 381 151 363 151 c 2,180,-1
 361 151 l 1,181,182
 353 150 353 150 349 150 c 0,183,184
 336 149 336 149 333 152 c 128,-1,185
 330 155 330 155 319 157 c 0,186,187
 311 158 311 158 303 154 c 128,-1,188
 295 150 295 150 269 150 c 0,189,190
 262 150 262 150 255 150.5 c 128,-1,191
 248 151 248 151 244 151 c 2,192,-1
 240 151 l 1,193,194
 240 153 240 153 217 151 c 1,195,196
 196 148 196 148 190 151 c 1,197,198
 182 153 182 153 168 150 c 0,199,200
 159 148 159 148 153 148 c 0,201,202
 150 148 150 148 148 149 c 0,203,204
 144 151 144 151 133 151 c 128,-1,205
 122 151 122 151 115 154 c 0,206,207
 107 158 107 158 102 163 c 128,-1,208
 97 168 97 168 97 171 c 0,209,210
 97 172 97 172 98 175 c 0,211,212
 100 183 100 183 100 192 c 0,213,214
 100 202 100 202 105 208 c 0,215,216
 108 212 108 212 117 217 c 1,217,218
 132 220 132 220 134 220 c 0,219,220
 142 221 142 221 147 219 c 0,221,222
 153 216 153 216 162 216 c 1,223,224
 173 214 173 214 176 217 c 0,225,226
 180 221 180 221 204 221 c 1,227,-1
 229 223 l 2,109,110
EndSplineSet
Validated: 1
EndChar

StartChar: uni003E
Encoding: 62 62 33
Width: 745
GlyphClass: 2
Flags: W
LayerCount: 2
Fore
SplineSet
107 571 m 0,0,1
 111 573 111 573 125 573 c 1,2,3
 139 571 139 571 141 569 c 0,4,5
 145 567 145 567 148 567 c 0,6,7
 149 567 149 567 155 561 c 1,8,9
 158 556 158 556 167 554 c 0,10,11
 169 553 169 553 173.5 551 c 128,-1,12
 178 549 178 549 179 549 c 0,13,14
 185 547 185 547 191 543 c 0,15,16
 195 540 195 540 208 536 c 0,17,18
 216 534 216 534 231 522 c 1,19,20
 244 510 244 510 251 509 c 0,21,22
 256 509 256 509 262 506 c 128,-1,23
 268 503 268 503 273 503 c 0,24,25
 284 501 284 501 289 497 c 1,26,27
 296 494 296 494 298 489 c 0,28,29
 299 487 299 487 302 484 c 0,30,31
 303 483 303 483 311 481 c 0,32,33
 317 480 317 480 326 469 c 0,34,35
 333 460 333 460 337 460 c 0,36,37
 339 460 339 460 345 456 c 0,38,39
 350 452 350 452 363 453 c 128,-1,40
 376 454 376 454 386 445 c 1,41,42
 394 436 394 436 407 430 c 1,43,-1
 427 418 l 2,44,45
 437 412 437 412 441 412 c 0,46,47
 447 412 447 412 457 403 c 0,48,49
 467 393 467 393 469 393 c 0,50,51
 470 393 470 393 480 389 c 1,52,53
 490 383 490 383 491 382 c 0,54,55
 492 379 492 379 503 375 c 1,56,57
 511 370 511 370 515 370 c 0,58,59
 517 370 517 370 521 366 c 1,60,61
 524 361 524 361 527 361 c 128,-1,62
 530 361 530 361 533 358 c 0,63,64
 539 354 539 354 541 354 c 0,65,66
 546 354 546 354 548 352 c 0,67,68
 551 349 551 349 559 349 c 0,69,70
 566 349 566 349 569 344 c 128,-1,71
 572 339 572 339 579 340 c 128,-1,72
 586 341 586 341 592 336 c 0,73,74
 600 328 600 328 604 326 c 1,75,76
 607 323 607 323 616 320 c 0,77,78
 621 319 621 319 625 313 c 1,79,80
 627 308 627 308 638 307 c 0,81,82
 648 307 648 307 648 305 c 0,83,84
 648 304 648 304 652 296 c 1,85,86
 656 291 656 291 656 287 c 0,87,88
 656 286 656 286 646 282 c 0,89,90
 637 278 637 278 634 273 c 0,91,92
 630 267 630 267 629 266 c 2,93,-1
 621 263 l 2,94,95
 614 261 614 261 612 258 c 0,96,97
 611 256 611 256 601 248 c 128,-1,98
 591 240 591 240 588 240 c 0,99,100
 582 238 582 238 577 233 c 0,101,102
 570 226 570 226 562 223 c 0,103,104
 555 220 555 220 546 218 c 1,105,106
 537 218 537 218 532 213 c 0,107,108
 531 212 531 212 525.5 209 c 128,-1,109
 520 206 520 206 517 205 c 0,110,111
 509 200 509 200 506 200 c 0,112,113
 505 200 505 200 495 192 c 128,-1,114
 485 184 485 184 482 184 c 128,-1,115
 479 184 479 184 465 178 c 0,116,117
 453 172 453 172 447 170 c 128,-1,118
 441 168 441 168 439 165 c 0,119,120
 437 161 437 161 435 159 c 0,121,122
 433 156 433 156 425 157 c 0,123,124
 418 158 418 158 412 151 c 0,125,126
 407 145 407 145 394 139 c 1,127,128
 381 135 381 135 378 132 c 0,129,130
 376 130 376 130 370 127 c 0,131,132
 364 125 364 125 360 118 c 1,133,134
 353 110 353 110 348 110 c 1,135,136
 340 108 340 108 336 108 c 0,137,138
 331 108 331 108 328 104 c 0,139,140
 324 100 324 100 321 100 c 0,141,142
 317 100 317 100 312 93 c 0,143,144
 306 86 306 86 302 86 c 0,145,146
 299 86 299 86 291 80 c 1,147,148
 285 74 285 74 273 73 c 0,149,150
 260 72 260 72 258 67 c 1,151,-1
 254 61 l 2,152,153
 253 60 253 60 241 58 c 1,154,155
 234 58 234 58 225 55 c 1,156,-1
 220 51 l 2,157,158
 216 47 216 47 214 45 c 0,159,160
 206 38 206 38 200 38 c 0,161,162
 192 38 192 38 191 35 c 1,163,164
 189 34 189 34 179 30 c 1,165,166
 169 28 169 28 167 24 c 0,167,168
 165 22 165 22 159 20 c 0,169,170
 152 18 152 18 149 14 c 1,171,172
 143 10 143 10 140 10 c 0,173,174
 136 11 136 11 130 7 c 2,175,-1
 118 -2 l 2,176,177
 111 -7 111 -7 107 -7 c 0,178,179
 106 -7 106 -7 105 -7 c 0,180,181
 98 -7 98 -7 95 1 c 0,182,183
 93 5 93 5 90 18 c 1,184,185
 90 26 90 26 95 31 c 0,186,187
 99 35 99 35 101 41 c 0,188,189
 102 46 102 46 106 49 c 0,190,191
 109 52 109 52 116 52 c 1,192,193
 123 54 123 54 124 56 c 2,194,-1
 127 62 l 2,195,196
 129 66 129 66 133 66 c 0,197,198
 138 66 138 66 142 70 c 1,199,200
 148 74 148 74 153 74 c 0,201,202
 155 74 155 74 158 74 c 2,203,-1
 161 75 l 2,204,205
 163 75 163 75 171 81 c 1,206,207
 176 87 176 87 183 87 c 0,208,209
 188 87 188 87 194 91 c 1,210,211
 198 95 198 95 206 99 c 0,212,213
 213 102 213 102 221 104 c 0,214,215
 229 105 229 105 238 114 c 0,216,217
 248 123 248 123 254 123 c 0,218,219
 262 123 262 123 267 127 c 0,220,221
 268 128 268 128 285 138 c 1,222,223
 301 144 301 144 303 144 c 0,224,225
 308 144 308 144 316 150 c 128,-1,226
 324 156 324 156 326 156 c 128,-1,227
 328 156 328 156 335 163 c 1,228,229
 343 169 343 169 352 172 c 1,230,231
 359 173 359 173 369 180 c 1,232,233
 376 187 376 187 389 190 c 1,234,235
 401 194 401 194 406 199 c 0,236,237
 409 202 409 202 418 208 c 0,238,239
 424 211 424 211 432 217 c 128,-1,240
 440 223 440 223 442 223 c 128,-1,241
 444 223 444 223 449 226 c 1,242,243
 453 230 453 230 456 230 c 0,244,245
 461 230 461 230 467 233 c 0,246,247
 473 237 473 237 477 237 c 128,-1,248
 481 237 481 237 483 239 c 0,249,250
 486 242 486 242 489 242 c 128,-1,251
 492 242 492 242 499 247 c 1,252,253
 503 248 503 248 514 257 c 0,254,255
 522 263 522 263 524 263 c 0,256,257
 525 263 525 263 528 264.5 c 128,-1,258
 531 266 531 266 532 266 c 0,259,260
 535 269 535 269 544 271 c 0,261,262
 551 272 551 272 556 280 c 0,263,264
 561 287 561 287 561 290 c 0,265,266
 560 293 560 293 551 298 c 0,267,268
 547 301 547 301 539 305 c 0,269,270
 537 305 537 305 531 308 c 0,271,272
 526 310 526 310 520 312 c 0,273,274
 512 314 512 314 507 319 c 0,275,276
 501 325 501 325 497 325 c 128,-1,277
 493 325 493 325 490 328 c 0,278,279
 487 330 487 330 484 335 c 0,280,281
 482 338 482 338 477 341 c 1,282,283
 472 341 472 341 469 344 c 0,284,285
 467 346 467 346 452 350 c 0,286,287
 439 354 439 354 431 360 c 0,288,289
 422 367 422 367 419 367 c 1,290,291
 413 370 413 370 409 374 c 0,292,293
 407 375 407 375 403.5 378 c 128,-1,294
 400 381 400 381 399 382 c 0,295,296
 395 384 395 384 392 386 c 0,297,298
 391 386 391 386 387 388 c 128,-1,299
 383 390 383 390 381 391 c 0,300,301
 368 396 368 396 365 397 c 128,-1,302
 362 398 362 398 357 400 c 2,303,-1
 352 401 l 2,304,305
 348 401 348 401 343 406 c 1,306,307
 340 411 340 411 336 411 c 0,308,309
 335 411 335 411 332 410.5 c 128,-1,310
 329 410 329 410 328 410 c 0,311,312
 322 409 322 409 319 413 c 0,313,314
 316 416 316 416 314 423 c 0,315,316
 313 428 313 428 312.5 429 c 128,-1,317
 312 430 312 430 307 430 c 128,-1,318
 302 430 302 430 294 434 c 1,319,320
 287 439 287 439 282 439 c 0,321,322
 278 439 278 439 268 443 c 128,-1,323
 258 447 258 447 255 452 c 128,-1,324
 252 457 252 457 246 457 c 1,325,326
 239 459 239 459 238 461 c 0,327,328
 236 463 236 463 233 463 c 128,-1,329
 230 463 230 463 224 469 c 1,330,331
 217 474 217 474 215 474 c 0,332,333
 211 474 211 474 201 484 c 0,334,335
 190 494 190 494 181 494 c 0,336,337
 178 494 178 494 172.5 494.5 c 128,-1,338
 167 495 167 495 166 495 c 0,339,340
 162 495 162 495 153 504 c 0,341,342
 144 514 144 514 139 515 c 0,343,344
 137 515 137 515 132 517 c 2,345,-1
 128 519 l 1,346,347
 124 523 124 523 120 523 c 0,348,349
 117 523 117 523 111 525 c 0,350,351
 107 526 107 526 106 533 c 1,352,353
 103 543 103 543 100 549 c 0,354,355
 96 558 96 558 99 563 c 0,356,357
 104 570 104 570 107 571 c 0,0,1
EndSplineSet
Validated: 1
EndChar

StartChar: uni003F
Encoding: 63 63 34
Width: 551
GlyphClass: 2
Flags: W
LayerCount: 2
Fore
SplineSet
241 763 m 0,0,1
 243 764 243 764 245 765 c 2,2,-1
 247 766 l 2,3,4
 249 766 249 766 253 762 c 1,5,6
 258 759 258 759 271 759 c 0,7,8
 284 760 284 760 287 756 c 0,9,10
 290 753 290 753 304 753 c 1,11,12
 316 754 316 754 324 750 c 128,-1,13
 332 746 332 746 342 746 c 0,14,15
 353 746 353 746 357 743 c 0,16,17
 363 739 363 739 364 739 c 0,18,19
 366 739 366 739 374 733 c 0,20,21
 378 731 378 731 392 725 c 1,22,23
 399 724 399 724 409 714 c 0,24,25
 420 703 420 703 421 700 c 0,26,27
 424 694 424 694 430 690 c 0,28,29
 438 685 438 685 443 674 c 1,30,31
 450 663 450 663 450 656 c 0,32,33
 450 651 450 651 454 647 c 0,34,35
 457 644 457 644 457 640 c 1,36,37
 455 637 455 637 459 631 c 0,38,39
 462 628 462 628 464 617 c 1,40,41
 464 607 464 607 467 604 c 128,-1,42
 470 601 470 601 470 590 c 128,-1,43
 470 579 470 579 466 575 c 0,44,45
 463 573 463 573 463 561 c 0,46,47
 463 551 463 551 465 543 c 128,-1,48
 467 535 467 535 459 523 c 0,49,50
 455 516 455 516 449 504 c 1,51,52
 447 497 447 497 443 495 c 0,53,54
 442 494 442 494 438 490.5 c 128,-1,55
 434 487 434 487 431 484 c 0,56,57
 425 478 425 478 421 468 c 1,58,59
 419 460 419 460 415 458 c 0,60,61
 410 455 410 455 407 450 c 1,62,63
 400 443 400 443 398 442 c 0,64,65
 394 440 394 440 392 436 c 0,66,67
 391 434 391 434 385 428 c 0,68,69
 380 424 380 424 372 413 c 1,70,71
 366 403 366 403 361 398 c 0,72,73
 358 395 358 395 352 392 c 1,74,75
 349 392 349 392 337 382 c 1,76,77
 329 374 329 374 323 366 c 0,78,79
 318 359 318 359 314 359 c 1,80,-1
 305 356 l 2,81,82
 301 354 301 354 301 353 c 0,83,84
 301 350 301 350 296 345 c 2,85,-1
 284 330 l 2,86,87
 277 322 277 322 275 317 c 0,88,89
 274 315 274 315 274 271 c 0,90,91
 274 228 274 228 271 223 c 1,92,93
 268 220 268 220 268 213 c 0,94,95
 268 208 268 208 265 205 c 0,96,97
 264 204 264 204 256 200 c 0,98,99
 249 196 249 196 232 196 c 0,100,101
 214 196 214 196 204 202 c 128,-1,102
 194 208 194 208 194 215 c 0,103,104
 194 242 194 242 195 267 c 1,105,106
 195 312 195 312 199 320 c 0,107,108
 204 329 204 329 205 329 c 0,109,110
 207 331 207 331 210 339 c 0,111,112
 211 341 211 341 213.5 345.5 c 128,-1,113
 216 350 216 350 217 351 c 0,114,115
 220 352 220 352 220 357 c 128,-1,116
 220 362 220 362 225 365 c 0,117,118
 229 367 229 367 233 374 c 1,119,-1
 240 381 l 2,120,121
 242 382 242 382 246 386 c 1,122,123
 246 389 246 389 258 399 c 128,-1,124
 270 409 270 409 273 409 c 0,125,126
 278 409 278 409 286 419 c 1,127,128
 296 427 296 427 296 430 c 0,129,130
 296 432 296 432 301 435 c 1,131,132
 305 436 305 436 311 446 c 1,133,134
 324 463 324 463 330 470 c 0,135,136
 339 482 339 482 346 492 c 1,137,138
 348 499 348 499 351 500 c 1,139,140
 353 502 353 502 355 509 c 0,141,142
 358 518 358 518 359 519 c 0,143,144
 361 521 361 521 363 533 c 0,145,146
 365 546 365 546 368 548 c 1,147,148
 371 552 371 552 371 557 c 0,149,150
 371 561 371 561 369 563 c 1,151,152
 368 566 368 566 369 572 c 0,153,154
 371 580 371 580 371 584 c 0,155,156
 371 589 371 589 369 595 c 0,157,158
 369 597 369 597 367.5 600 c 128,-1,159
 366 603 366 603 366 604 c 0,160,161
 364 606 364 606 364 613 c 1,162,163
 362 623 362 623 357 629 c 0,164,165
 356 631 356 631 354 634 c 128,-1,166
 352 637 352 637 352 638 c 0,167,168
 346 645 346 645 339 652 c 0,169,170
 326 665 326 665 324 669 c 1,171,172
 320 673 320 673 316 673 c 0,173,174
 310 673 310 673 306 677 c 1,175,176
 303 682 303 682 295 682 c 0,177,178
 292 682 292 682 286 685 c 1,179,180
 283 688 283 688 250 688 c 0,181,182
 217 687 217 687 213 684 c 0,183,184
 209 680 209 680 188 681 c 0,185,186
 176 682 176 682 151 682 c 1,187,188
 136 681 136 681 132 685 c 0,189,190
 127 689 127 689 125 697 c 1,191,-1
 119 709 l 1,192,193
 115 713 115 713 115 716 c 0,194,195
 115 718 115 718 120 725 c 1,196,197
 125 730 125 730 125 733 c 128,-1,198
 125 736 125 736 132 741 c 1,199,200
 137 746 137 746 140 746 c 128,-1,201
 143 746 143 746 145 750 c 1,202,203
 148 753 148 753 155 753 c 0,204,205
 163 753 163 753 166 756 c 128,-1,206
 169 759 169 759 178 757 c 0,207,208
 190 754 190 754 196 754 c 0,209,210
 204 753 204 753 210 757 c 0,211,212
 216 760 216 760 226 760 c 0,213,214
 235 760 235 760 241 763 c 0,0,1
216 118 m 0,215,216
 224 121 224 121 236 121 c 0,217,218
 247 121 247 121 259 115 c 1,219,220
 274 103 274 103 276 101 c 0,221,222
 283 94 283 94 282 91 c 0,223,224
 282 88 282 88 284 84 c 0,225,226
 286 82 286 82 288 69 c 0,227,228
 288 65 288 65 288 63 c 0,229,230
 288 56 288 56 286 49 c 1,231,232
 281 39 281 39 276 34 c 0,233,234
 268 26 268 26 266 26 c 128,-1,235
 264 26 264 26 260 24 c 0,236,237
 256 21 256 21 233 21 c 1,238,239
 221 20 221 20 218 20 c 0,240,241
 210 20 210 20 206 24 c 1,242,243
 200 28 200 28 196 28 c 128,-1,244
 192 28 192 28 187 31 c 0,245,246
 184 33 184 33 182 40 c 1,247,248
 182 44 182 44 179 50 c 128,-1,249
 176 56 176 56 176 60 c 1,250,251
 175 63 175 63 175 65 c 0,252,253
 175 69 175 69 178 72 c 0,254,255
 182 78 182 78 181 86 c 128,-1,256
 180 94 180 94 188 103 c 0,257,258
 196 111 196 111 203 113 c 0,259,260
 212 116 212 116 216 118 c 0,215,216
EndSplineSet
Validated: 1
EndChar

